  0
SECTION
  2
HEADER
  9
$ACADVER
  1
AC1012
  9
$DWGCODEPAGE
  3
undefined
  9
$INSBASE
 10
0.0
 20
0.0
 30
0.0
  9
$EXTMIN
 10
1.000000000000000E+20
 20
1.000000000000000E+20
 30
1.000000000000000E+20
  9
$EXTMAX
 10
-1.000000000000000E+20
 20
-1.000000000000000E+20
 30
-1.000000000000000E+20
  9
$LIMMIN
 10
0.0
 20
0.0
  9
$LIMMAX
 10
12.0
 20
9.0
  9
$ORTHOMODE
 70
     0
  9
$REGENMODE
 70
     1
  9
$FILLMODE
 70
     1
  9
$QTEXTMODE
 70
     0
  9
$MIRRTEXT
 70
     1
  9
$DRAGMODE
 70
     2
  9
$LTSCALE
 40
1.0
  9
$OSMODE
 70
    37
  9
$ATTMODE
 70
     1
  9
$TEXTSIZE
 40
0.2
  9
$TRACEWID
 40
0.05
  9
$TEXTSTYLE
  7
STANDARD
  9
$CLAYER
  8
0
  9
$CELTYPE
  6
BYLAYER
  9
$CECOLOR
 62
   256
  9
$CELTSCALE
 40
1.0
  9
$DELOBJ
 70
     1
  9
$DISPSILH
 70
     0
  9
$DIMSCALE
 40
1.0
  9
$DIMASZ
 40
0.18
  9
$DIMEXO
 40
0.0625
  9
$DIMDLI
 40
0.38
  9
$DIMRND
 40
0.0
  9
$DIMDLE
 40
0.0
  9
$DIMEXE
 40
0.18
  9
$DIMTP
 40
0.0
  9
$DIMTM
 40
0.0
  9
$DIMTXT
 40
0.18
  9
$DIMCEN
 40
0.09
  9
$DIMTSZ
 40
0.0
  9
$DIMTOL
 70
     0
  9
$DIMLIM
 70
     0
  9
$DIMTIH
 70
     1
  9
$DIMTOH
 70
     1
  9
$DIMSE1
 70
     0
  9
$DIMSE2
 70
     0
  9
$DIMTAD
 70
     0
  9
$DIMZIN
 70
     0
  9
$DIMBLK
  1

  9
$DIMASO
 70
     1
  9
$DIMSHO
 70
     1
  9
$DIMPOST
  1

  9
$DIMAPOST
  1

  9
$DIMALT
 70
     0
  9
$DIMALTD
 70
     2
  9
$DIMALTF
 40
25.4
  9
$DIMLFAC
 40
1.0
  9
$DIMTOFL
 70
     0
  9
$DIMTVP
 40
0.0
  9
$DIMTIX
 70
     0
  9
$DIMSOXD
 70
     0
  9
$DIMSAH
 70
     0
  9
$DIMBLK1
  1

  9
$DIMBLK2
  1

  9
$DIMSTYLE
  2
STANDARD
  9
$DIMCLRD
 70
     0
  9
$DIMCLRE
 70
     0
  9
$DIMCLRT
 70
     0
  9
$DIMTFAC
 40
1.0
  9
$DIMGAP
 40
0.09
  9
$DIMJUST
 70
     0
  9
$DIMSD1
 70
     0
  9
$DIMSD2
 70
     0
  9
$DIMTOLJ
 70
     1
  9
$DIMTZIN
 70
     0
  9
$DIMALTZ
 70
     0
  9
$DIMALTTZ
 70
     0
  9
$DIMFIT
 70
     3
  9
$DIMUPT
 70
     0
  9
$DIMUNIT
 70
     2
  9
$DIMDEC
 70
     4
  9
$DIMTDEC
 70
     4
  9
$DIMALTU
 70
     2
  9
$DIMALTTD
 70
     2
  9
$DIMTXSTY
  7
STANDARD
  9
$DIMAUNIT
 70
     0
  9
$LUNITS
 70
     2
  9
$LUPREC
 70
     4
  9
$SKETCHINC
 40
0.1
  9
$FILLETRAD
 40
0.5
  9
$AUNITS
 70
     0
  9
$AUPREC
 70
     0
  9
$MENU
  1
.
  9
$ELEVATION
 40
0.0
  9
$PELEVATION
 40
0.0
  9
$THICKNESS
 40
0.0
  9
$LIMCHECK
 70
     0
  9
$CHAMFERA
 40
0.5
  9
$CHAMFERB
 40
0.5
  9
$CHAMFERC
 40
1.0
  9
$CHAMFERD
 40
0.0
  9
$SKPOLY
 70
     0
  9
$TDCREATE
 40
2457990.701296285
  9
$TDUPDATE
 40
2457990.701296285
  9
$TDINDWG
 40
0.0000000116
  9
$TDUSRTIMER
 40
0.0000000116
  9
$USRTIMER
 70
     1
  9
$ANGBASE
 50
0.0
  9
$ANGDIR
 70
     0
  9
$PDMODE
 70
     0
  9
$PDSIZE
 40
0.0
  9
$PLINEWID
 40
0.0
  9
$COORDS
 70
     1
  9
$SPLFRAME
 70
     0
  9
$SPLINETYPE
 70
     6
  9
$SPLINESEGS
 70
     8
  9
$ATTDIA
 70
     0
  9
$ATTREQ
 70
     1
  9
$HANDLING
 70
     1
  9
$HANDSEED
  5
1D8
  9
$SURFTAB1
 70
     6
  9
$SURFTAB2
 70
     6
  9
$SURFTYPE
 70
     6
  9
$SURFU
 70
     6
  9
$SURFV
 70
     6
  9
$UCSNAME
  2

  9
$UCSORG
 10
0.0
 20
0.0
 30
0.0
  9
$UCSXDIR
 10
1.0
 20
0.0
 30
0.0
  9
$UCSYDIR
 10
0.0
 20
1.0
 30
0.0
  9
$PUCSNAME
  2

  9
$PUCSORG
 10
0.0
 20
0.0
 30
0.0
  9
$PUCSXDIR
 10
1.0
 20
0.0
 30
0.0
  9
$PUCSYDIR
 10
0.0
 20
1.0
 30
0.0
  9
$USERI1
 70
     0
  9
$USERI2
 70
     0
  9
$USERI3
 70
     0
  9
$USERI4
 70
     0
  9
$USERI5
 70
     0
  9
$USERR1
 40
0.0
  9
$USERR2
 40
0.0
  9
$USERR3
 40
0.0
  9
$USERR4
 40
0.0
  9
$USERR5
 40
0.0
  9
$WORLDVIEW
 70
     1
  9
$SHADEDGE
 70
     3
  9
$SHADEDIF
 70
    70
  9
$TILEMODE
 70
     1
  9
$MAXACTVP
 70
    64
  9
$PINSBASE
 10
0.0
 20
0.0
 30
0.0
  9
$PLIMCHECK
 70
     0
  9
$PEXTMIN
 10
1.000000000000000E+20
 20
1.000000000000000E+20
 30
1.000000000000000E+20
  9
$PEXTMAX
 10
-1.000000000000000E+20
 20
-1.000000000000000E+20
 30
-1.000000000000000E+20
  9
$PLIMMIN
 10
0.0
 20
0.0
  9
$PLIMMAX
 10
12.0
 20
9.0
  9
$UNITMODE
 70
     0
  9
$VISRETAIN
 70
     1
  9
$PLINEGEN
 70
     0
  9
$PSLTSCALE
 70
     1
  9
$TREEDEPTH
 70
  3020
  9
$PICKSTYLE
 70
     1
  9
$CMLSTYLE
  2
STANDARD
  9
$CMLJUST
 70
     0
  9
$CMLSCALE
 40
1.0
  9
$SAVEIMAGES
 70
     1
  0
ENDSEC
  0
SECTION
  2
CLASSES
  0
CLASS
  1
ACDBDICTIONARYWDFLT
  2
AcDbDictionaryWithDefault
  3
ObjectDBX Classes
 90
    32768
280
     0
281
     0
  0
CLASS
  1
VISUALSTYLE
  2
AcDbVisualStyle
  3
ObjectDBX Classes
 90
     4095
280
     0
281
     0
  0
CLASS
  1
MATERIAL
  2
AcDbMaterial
  3
ObjectDBX Classes
 90
     1153
280
     0
281
     0
  0
CLASS
  1
SUN
  2
AcDbSun
  3
SCENEOE
 90
     1024
280
     0
281
     0
  0
CLASS
  1
DICTIONARYVAR
  2
AcDbDictionaryVar
  3
ObjectDBX Classes
 90
        0
280
     0
281
     0
  0
CLASS
  1
XRECORD
  2
AcDbXrecord
  3
AutoCAD 2000
 90
    32768
280
     0
281
     0
  0
CLASS
  1
LWPOLYLINE
  2
AcDbPolyline
  3
AutoCAD 2000
 90
    32768
280
     0
281
     1
  0
CLASS
  1
HATCH
  2
AcDbHatch
  3
AutoCAD 2000
 90
    32768
280
     0
281
     1
  0
CLASS
  1
ACDBPLACEHOLDER
  2
AcDbPlaceHolder
  3
ObjectDBX Classes
 90
        0
280
     0
281
     0
  0
CLASS
  1
LAYOUT
  2
AcDbLayout
  3
ObjectDBX Classes
 90
        0
280
     0
281
     0
  0
ENDSEC
  0
SECTION
  2
TABLES
  0
TABLE
  2
VPORT
  5
8
330
0
100
AcDbSymbolTable
 70
     1
  0
VPORT
  5
29
330
8
100
AcDbSymbolTableRecord
100
AcDbViewportTableRecord
  2
*ACTIVE
 70
     0
 10
0.0
 20
0.0
 11
1.0
 21
1.0
 12
0.0
 22
0.0
 13
0.0
 23
0.0
 14
0.5
 24
0.5
 15
0.5
 25
0.5
 16
0.0
 26
0.0
 36
1.0
 17
12.0
 27
-6.0
 37
0.0
 40
12.0
 41
2.0
 42
50.0
 43
0.0
 44
0.0
 50
0.0
 51
0.0
 71
     0
 72
   100
 73
     1
 74
     3
 75
     0
 76
     0
 77
     0
 78
     0
  0
ENDTAB
  0
TABLE
  2
LTYPE
  5
5
330
0
100
AcDbSymbolTable
 70
     1
  0
LTYPE
  5
14
330
5
100
AcDbSymbolTableRecord
100
AcDbLinetypeTableRecord
  2
BYBLOCK
 70
     0
  3

 72
    65
 73
     0
 40
0.0
  0
LTYPE
  5
15
330
5
100
AcDbSymbolTableRecord
100
AcDbLinetypeTableRecord
  2
BYLAYER
 70
     0
  3

 72
    65
 73
     0
 40
0.0
  0
LTYPE
  5
16
330
5
100
AcDbSymbolTableRecord
100
AcDbLinetypeTableRecord
  2
CONTINUOUS
 70
     0
  3
Solid line
 72
    65
 73
     0
 40
0.0
  0
ENDTAB
  0
TABLE
  2
LAYER
  5
2
330
0
100
AcDbSymbolTable
 70
     3
  0
LAYER
  5
10
330
2
100
AcDbSymbolTableRecord
100
AcDbLayerTableRecord
  2
0
 70
     0
 62
     7
  6
CONTINUOUS
  0
LAYER
  5
40
330
2
100
AcDbSymbolTableRecord
100
AcDbLayerTableRecord
  2
CUT
 70
     0
 62
     7
  6
CONTINUOUS
  0
LAYER
  5
49
330
2
100
AcDbSymbolTableRecord
100
AcDbLayerTableRecord
  2
ENGRAVE
 70
     0
 62
     7
  6
CONTINUOUS
  0
ENDTAB
  0
TABLE
  2
STYLE
  5
3
330
0
100
AcDbSymbolTable
 70
     1
  0
STYLE
  5
11
330
3
100
AcDbSymbolTableRecord
100
AcDbTextStyleTableRecord
  2
STANDARD
 70
     0
 40
0.0
 41
1.0
 50
0.0
 71
     0
 42
0.2
  3
txt
  4

  0
ENDTAB
  0
TABLE
  2
VIEW
  5
6
330
0
100
AcDbSymbolTable
 70
     0
  0
ENDTAB
  0
TABLE
  2
UCS
  5
7
330
0
100
AcDbSymbolTable
 70
     0
  0
ENDTAB
  0
TABLE
  2
APPID
  5
9
330
0
100
AcDbSymbolTable
 70
     1
  0
APPID
  5
12
330
9
100
AcDbSymbolTableRecord
100
AcDbRegAppTableRecord
  2
ACAD
 70
     0
  0
ENDTAB
  0
TABLE
  2
DIMSTYLE
  5
A
330
0
100
AcDbSymbolTable
 70
     1
  0
DIMSTYLE
105
27
330
A
100
AcDbSymbolTableRecord
100
AcDbDimStyleTableRecord
  2
STANDARD
 70
     0
  3

  4

  5

  6

  7

 40
1.0
 41
0.18
 42
0.0625
 43
0.38
 44
0.18
 45
0.0
 46
0.0
 47
0.0
 48
0.0
140
0.18
141
0.09
142
0.0
143
25.4
144
1.0
145
0.0
146
1.0
147
0.09
 71
     0
 72
     0
 73
     1
 74
     1
 75
     0
 76
     0
 77
     0
 78
     0
170
     0
171
     2
172
     0
173
     0
174
     0
175
     0
176
     0
177
     0
178
     0
270
     2
271
     4
272
     4
273
     2
274
     2
340
11
275
     0
280
     0
281
     0
282
     0
283
     1
284
     0
285
     0
286
     0
287
     3
288
     0
  0
ENDTAB
  0
TABLE
  2
BLOCK_RECORD
  5
1
330
0
100
AcDbSymbolTable
 70
     4
  0
BLOCK_RECORD
  5
1F
330
1
100
AcDbSymbolTableRecord
100
AcDbBlockTableRecord
  2
*MODEL_SPACE
  0
BLOCK_RECORD
  5
1B
330
1
100
AcDbSymbolTableRecord
100
AcDbBlockTableRecord
  2
*PAPER_SPACE
  0
BLOCK_RECORD
  5
55
330
1
100
AcDbSymbolTableRecord
100
AcDbBlockTableRecord
  2
*U1
  0
BLOCK_RECORD
  5
D2
330
1
100
AcDbSymbolTableRecord
100
AcDbBlockTableRecord
  2
*U2
  0
BLOCK_RECORD
  5
14F
330
1
100
AcDbSymbolTableRecord
100
AcDbBlockTableRecord
  2
*U3
  0
ENDTAB
  0
ENDSEC
  0
SECTION
  2
BLOCKS
  0
BLOCK
  5
20
330
1F
100
AcDbEntity
  8
0
100
AcDbBlockBegin
  2
*MODEL_SPACE
 70
     0
 10
0.0
 20
0.0
 30
0.0
  3
*MODEL_SPACE
  1

  0
ENDBLK
  5
21
330
1F
100
AcDbEntity
  8
0
100
AcDbBlockEnd
  0
BLOCK
  5
1C
330
1B
100
AcDbEntity
 67
     1
  8
0
100
AcDbBlockBegin
  2
*PAPER_SPACE
 70
     0
 10
0.0
 20
0.0
 30
0.0
  3
*PAPER_SPACE
  1

  0
ENDBLK
  5
1D
330
1B
100
AcDbEntity
 67
     1
  8
0
100
AcDbBlockEnd
  0
BLOCK
  5
1CC
330
55
100
AcDbEntity
  8
0
100
AcDbBlockBegin
  2
*U1
 70
     1
 10
0.0
 20
0.0
 30
0.0
  3
*U1
  1

  0
SOLID
  5
56
330
55
100
AcDbEntity
  8
ENGRAVE
 62
     7
100
AcDbTrace
 10
0.9317175292622758
 20
-0.4196610292433866
 30
0.0
 11
0.9313466648618739
 21
-0.4095916497849683
 31
0.0
 12
0.9317175292622758
 22
-0.4038130766060427
 32
0.0
 13
0.9317175292622758
 23
-0.4038130766060427
 33
0.0
  0
SOLID
  5
57
330
55
100
AcDbEntity
  8
ENGRAVE
 62
     7
100
AcDbTrace
 10
0.9317175292622758
 20
-0.4196610292433866
 30
0.0
 11
0.9317175292622758
 21
-0.4038130766060427
 31
0.0
 12
0.9319920203594917
 22
-0.4216401986599054
 32
0.0
 13
0.9319920203594917
 23
-0.4216401986599054
 33
0.0
  0
SOLID
  5
58
330
55
100
AcDbEntity
  8
ENGRAVE
 62
     7
100
AcDbTrace
 10
0.9319920203594917
 20
-0.4216401986599054
 30
0.0
 11
0.9317175292622758
 21
-0.4038130766060427
 31
0.0
 12
0.9319920203594917
 22
-0.3995361309339677
 32
0.0
 13
0.9319920203594917
 23
-0.3995361309339677
 33
0.0
  0
SOLID
  5
59
330
55
100
AcDbEntity
  8
ENGRAVE
 62
     7
100
AcDbTrace
 10
0.9319920203594917
 20
-0.4216401986599054
 30
0.0
 11
0.9319920203594917
 21
-0.3995361309339677
 31
0.0
 12
0.9330755986647886
 22
-0.4294531480196446
 32
0.0
 13
0.9330755986647886
 23
-0.4294531480196446
 33
0.0
  0
SOLID
  5
5A
330
55
100
AcDbEntity
  8
ENGRAVE
 62
     7
100
AcDbTrace
 10
0.9330755986647886
 20
-0.4294531480196446
 30
0.0
 11
0.9319920203594917
 21
-0.3995361309339677
 31
0.0
 12
0.9330755986647886
 22
-0.3930322276456618
 32
0.0
 13
0.9330755986647886
 23
-0.3930322276456618
 33
0.0
  0
SOLID
  5
5B
330
55
100
AcDbEntity
  8
ENGRAVE
 62
     7
100
AcDbTrace
 10
0.9330755986647886
 20
-0.4294531480196446
 30
0.0
 11
0.9330755986647886
 21
-0.3930322276456618
 31
0.0
 12
0.9336166517030552
 22
-0.4316830444355416
 32
0.0
 13
0.9336166517030552
 23
-0.4316830444355416
 33
0.0
  0
SOLID
  5
5C
330
55
100
AcDbEntity
  8
ENGRAVE
 62
     7
100
AcDbTrace
 10
0.9336166517030552
 20
-0.4316830444355416
 30
0.0
 11
0.9330755986647886
 21
-0.3930322276456618
 31
0.0
 12
0.9336166517030552
 22
-0.3897846943409363
 32
0.0
 13
0.9336166517030552
 23
-0.3897846943409363
 33
0.0
  0
SOLID
  5
5D
330
55
100
AcDbEntity
  8
ENGRAVE
 62
     7
100
AcDbTrace
 10
0.9336166517030552
 20
-0.4316830444355416
 30
0.0
 11
0.9336166517030552
 21
-0.3897846943409363
 31
0.0
 12
0.9353720785876881
 22
-0.4389178621734721
 32
0.0
 13
0.9353720785876881
 23
-0.4389178621734721
 33
0.0
  0
SOLID
  5
5E
330
55
100
AcDbEntity
  8
ENGRAVE
 62
     7
100
AcDbTrace
 10
0.9353720785876881
 20
-0.4389178621734721
 30
0.0
 11
0.9336166517030552
 21
-0.3897846943409363
 31
0.0
 12
0.9353720785876881
 22
-0.3833242346063481
 32
0.0
 13
0.9353720785876881
 23
-0.3833242346063481
 33
0.0
  0
SOLID
  5
5F
330
55
100
AcDbEntity
  8
ENGRAVE
 62
     7
100
AcDbTrace
 10
0.9353720785876881
 20
-0.4389178621734721
 30
0.0
 11
0.9353720785876881
 21
-0.3833242346063481
 31
0.0
 12
0.9361704149522944
 22
-0.4411948227013775
 32
0.0
 13
0.9361704149522944
 23
-0.4411948227013775
 33
0.0
  0
SOLID
  5
60
330
55
100
AcDbEntity
  8
ENGRAVE
 62
     7
100
AcDbTrace
 10
0.9361704149522944
 20
-0.4411948227013775
 30
0.0
 11
0.9353720785876881
 21
-0.3833242346063481
 31
0.0
 12
0.9361704149522944
 22
-0.3803861344875986
 32
0.0
 13
0.9361704149522944
 23
-0.3803861344875986
 33
0.0
  0
SOLID
  5
61
330
55
100
AcDbEntity
  8
ENGRAVE
 62
     7
100
AcDbTrace
 10
0.9361704149522944
 20
-0.4411948227013775
 30
0.0
 11
0.9361704149522944
 21
-0.3803861344875986
 31
0.0
 12
0.93855817454925
 22
-0.4480050277645987
 32
0.0
 13
0.93855817454925
 23
-0.4480050277645987
 33
0.0
  0
SOLID
  5
62
330
55
100
AcDbEntity
  8
ENGRAVE
 62
     7
100
AcDbTrace
 10
0.93855817454925
 20
-0.4480050277645987
 30
0.0
 11
0.9361704149522944
 21
-0.3803861344875986
 31
0.0
 12
0.93855817454925
 22
-0.3741280616386368
 32
0.0
 13
0.93855817454925
 23
-0.3741280616386368
 33
0.0
  0
SOLID
  5
63
330
55
100
AcDbEntity
  8
ENGRAVE
 62
     7
100
AcDbTrace
 10
0.93855817454925
 20
-0.4480050277645987
 30
0.0
 11
0.93855817454925
 21
-0.3741280616386368
 31
0.0
 12
0.9396031661669388
 22
-0.4502521750550891
 32
0.0
 13
0.9396031661669388
 23
-0.4502521750550891
 33
0.0
  0
SOLID
  5
64
330
55
100
AcDbEntity
  8
ENGRAVE
 62
     7
100
AcDbTrace
 10
0.9396031661669388
 20
-0.4502521750550891
 30
0.0
 11
0.93855817454925
 21
-0.3741280616386368
 31
0.0
 12
0.9396031661669388
 22
-0.3713892458556788
 32
0.0
 13
0.9396031661669388
 23
-0.3713892458556788
 33
0.0
  0
SOLID
  5
65
330
55
100
AcDbEntity
  8
ENGRAVE
 62
     7
100
AcDbTrace
 10
0.9396031661669388
 20
-0.4502521750550891
 30
0.0
 11
0.9396031661669388
 21
-0.3713892458556788
 31
0.0
 12
0.9425850920677495
 22
-0.4566645008527538
 32
0.0
 13
0.9425850920677495
 23
-0.4566645008527538
 33
0.0
  0
SOLID
  5
66
330
55
100
AcDbEntity
  8
ENGRAVE
 62
     7
100
AcDbTrace
 10
0.9425850920677495
 20
-0.4566645008527538
 30
0.0
 11
0.9396031661669388
 21
-0.3713892458556788
 31
0.0
 12
0.9425850920677495
 22
-0.3654091378311724
 32
0.0
 13
0.9425850920677495
 23
-0.3654091378311724
 33
0.0
  0
SOLID
  5
67
330
55
100
AcDbEntity
  8
ENGRAVE
 62
     7
100
AcDbTrace
 10
0.9425850920677495
 20
-0.4566645008527538
 30
0.0
 11
0.9425850920677495
 21
-0.3654091378311724
 31
0.0
 12
0.9438647614067185
 22
-0.4588371320904608
 32
0.0
 13
0.9438647614067185
 23
-0.4588371320904608
 33
0.0
  0
SOLID
  5
68
330
55
100
AcDbEntity
  8
ENGRAVE
 62
     7
100
AcDbTrace
 10
0.9438647614067185
 20
-0.4588371320904608
 30
0.0
 11
0.9425850920677495
 21
-0.3654091378311724
 31
0.0
 12
0.9438647614067185
 22
-0.3628428229269011
 32
0.0
 13
0.9438647614067185
 23
-0.3628428229269011
 33
0.0
  0
SOLID
  5
69
330
55
100
AcDbEntity
  8
ENGRAVE
 62
     7
100
AcDbTrace
 10
0.9438647614067185
 20
-0.4588371320904608
 30
0.0
 11
0.9438647614067185
 21
-0.3628428229269011
 31
0.0
 12
0.9474040366614626
 22
-0.4648461374976671
 32
0.0
 13
0.9474040366614626
 23
-0.4648461374976671
 33
0.0
  0
SOLID
  5
6A
330
55
100
AcDbEntity
  8
ENGRAVE
 62
     7
100
AcDbTrace
 10
0.9474040366614626
 20
-0.4648461374976671
 30
0.0
 11
0.9438647614067185
 21
-0.3628428229269011
 31
0.0
 12
0.9474040366614626
 22
-0.3571921373745754
 32
0.0
 13
0.9474040366614626
 23
-0.3571921373745754
 33
0.0
  0
SOLID
  5
6B
330
55
100
AcDbEntity
  8
ENGRAVE
 62
     7
100
AcDbTrace
 10
0.9474040366614626
 20
-0.4648461374976671
 30
0.0
 11
0.9474040366614626
 21
-0.3571921373745754
 31
0.0
 12
0.9489050567313629
 22
-0.4669115682219732
 32
0.0
 13
0.9489050567313629
 23
-0.4669115682219732
 33
0.0
  0
SOLID
  5
6C
330
55
100
AcDbEntity
  8
ENGRAVE
 62
     7
100
AcDbTrace
 10
0.9489050567313629
 20
-0.4669115682219732
 30
0.0
 11
0.9474040366614626
 21
-0.3571921373745754
 31
0.0
 12
0.9489050567313629
 22
-0.35479566018299
 32
0.0
 13
0.9489050567313629
 23
-0.35479566018299
 33
0.0
  0
SOLID
  5
6D
330
55
100
AcDbEntity
  8
ENGRAVE
 62
     7
100
AcDbTrace
 10
0.9489050567313629
 20
-0.4669115682219732
 30
0.0
 11
0.9489050567313629
 21
-0.35479566018299
 31
0.0
 12
0.9529662138486646
 22
-0.472499793759068
 32
0.0
 13
0.9529662138486646
 23
-0.472499793759068
 33
0.0
  0
SOLID
  5
6E
330
55
100
AcDbEntity
  8
ENGRAVE
 62
     7
100
AcDbTrace
 10
0.9529662138486646
 20
-0.472499793759068
 30
0.0
 11
0.9489050567313629
 21
-0.35479566018299
 31
0.0
 12
0.9529662138486646
 22
-0.3495164367008083
 32
0.0
 13
0.9529662138486646
 23
-0.3495164367008083
 33
0.0
  0
SOLID
  5
6F
330
55
100
AcDbEntity
  8
ENGRAVE
 62
     7
100
AcDbTrace
 10
0.9529662138486646
 20
-0.472499793759068
 30
0.0
 11
0.9529662138486646
 21
-0.3495164367008083
 31
0.0
 12
0.9546739082006019
 22
-0.4744310050209811
 32
0.0
 13
0.9546739082006019
 23
-0.4744310050209811
 33
0.0
  0
SOLID
  5
70
330
55
100
AcDbEntity
  8
ENGRAVE
 62
     7
100
AcDbTrace
 10
0.9546739082006019
 20
-0.4744310050209811
 30
0.0
 11
0.9529662138486646
 21
-0.3495164367008083
 31
0.0
 12
0.9546739082006019
 22
-0.3472965521056696
 32
0.0
 13
0.9546739082006019
 23
-0.3472965521056696
 33
0.0
  0
SOLID
  5
71
330
55
100
AcDbEntity
  8
ENGRAVE
 62
     7
100
AcDbTrace
 10
0.9546739082006019
 20
-0.4744310050209811
 30
0.0
 11
0.9546739082006019
 21
-0.3472965521056696
 31
0.0
 12
0.9592228291476314
 22
-0.4795753256966861
 32
0.0
 13
0.9592228291476314
 23
-0.4795753256966861
 33
0.0
  0
SOLID
  5
72
330
55
100
AcDbEntity
  8
ENGRAVE
 62
     7
100
AcDbTrace
 10
0.9592228291476314
 20
-0.4795753256966861
 30
0.0
 11
0.9546739082006019
 21
-0.3472965521056696
 31
0.0
 12
0.9592228291476314
 22
-0.3424266054408979
 32
0.0
 13
0.9592228291476314
 23
-0.3424266054408979
 33
0.0
  0
SOLID
  5
73
330
55
100
AcDbEntity
  8
ENGRAVE
 62
     7
100
AcDbTrace
 10
0.9592228291476314
 20
-0.4795753256966861
 30
0.0
 11
0.9592228291476314
 21
-0.3424266054408979
 31
0.0
 12
0.9611211718741652
 22
-0.4813485301253584
 32
0.0
 13
0.9611211718741652
 23
-0.4813485301253584
 33
0.0
  0
SOLID
  5
74
330
55
100
AcDbEntity
  8
ENGRAVE
 62
     7
100
AcDbTrace
 10
0.9611211718741652
 20
-0.4813485301253584
 30
0.0
 11
0.9592228291476314
 21
-0.3424266054408979
 31
0.0
 12
0.9611211718741652
 22
-0.3403942931766642
 32
0.0
 13
0.9611211718741652
 23
-0.3403942931766642
 33
0.0
  0
SOLID
  5
75
330
55
100
AcDbEntity
  8
ENGRAVE
 62
     7
100
AcDbTrace
 10
0.9611211718741652
 20
-0.4813485301253584
 30
0.0
 11
0.9611211718741652
 21
-0.3403942931766642
 31
0.0
 12
0.9661250880766383
 22
-0.4860225893702511
 32
0.0
 13
0.9661250880766383
 23
-0.4860225893702511
 33
0.0
  0
SOLID
  5
76
330
55
100
AcDbEntity
  8
ENGRAVE
 62
     7
100
AcDbTrace
 10
0.9661250880766383
 20
-0.4860225893702511
 30
0.0
 11
0.9611211718741652
 21
-0.3403942931766642
 31
0.0
 12
0.9661250880766383
 22
-0.3359695263968425
 32
0.0
 13
0.9661250880766383
 23
-0.3359695263968425
 33
0.0
  0
SOLID
  5
77
330
55
100
AcDbEntity
  8
ENGRAVE
 62
     7
100
AcDbTrace
 10
0.9661250880766383
 20
-0.4860225893702511
 30
0.0
 11
0.9661250880766383
 21
-0.3359695263968425
 31
0.0
 12
0.9681967038117827
 22
-0.487616224687167
 32
0.0
 13
0.9681967038117827
 23
-0.487616224687167
 33
0.0
  0
SOLID
  5
78
330
55
100
AcDbEntity
  8
ENGRAVE
 62
     7
100
AcDbTrace
 10
0.9681967038117827
 20
-0.487616224687167
 30
0.0
 11
0.9661250880766383
 21
-0.3359695263968425
 31
0.0
 12
0.9681967038117827
 22
-0.3341376778776982
 32
0.0
 13
0.9681967038117827
 23
-0.3341376778776982
 33
0.0
  0
SOLID
  5
79
330
55
100
AcDbEntity
  8
ENGRAVE
 62
     7
100
AcDbTrace
 10
0.9681967038117827
 20
-0.487616224687167
 30
0.0
 11
0.9681967038117827
 21
-0.3341376778776982
 31
0.0
 12
0.9736241961539611
 22
-0.4917914408394924
 32
0.0
 13
0.9736241961539611
 23
-0.4917914408394924
 33
0.0
  0
SOLID
  5
7A
330
55
100
AcDbEntity
  8
ENGRAVE
 62
     7
100
AcDbTrace
 10
0.9736241961539611
 20
-0.4917914408394924
 30
0.0
 11
0.9681967038117827
 21
-0.3341376778776982
 31
0.0
 12
0.9736241961539611
 22
-0.3301933311421874
 32
0.0
 13
0.9736241961539611
 23
-0.3301933311421874
 33
0.0
  0
SOLID
  5
7B
330
55
100
AcDbEntity
  8
ENGRAVE
 62
     7
100
AcDbTrace
 10
0.9736241961539611
 20
-0.4917914408394924
 30
0.0
 11
0.9736241961539611
 21
-0.3301933311421874
 31
0.0
 12
0.975850360073184
 22
-0.4931857861449161
 32
0.0
 13
0.975850360073184
 23
-0.4931857861449161
 33
0.0
  0
SOLID
  5
7C
330
55
100
AcDbEntity
  8
ENGRAVE
 62
     7
100
AcDbTrace
 10
0.975850360073184
 20
-0.4931857861449161
 30
0.0
 11
0.9736241961539611
 21
-0.3301933311421874
 31
0.0
 12
0.975850360073184
 22
-0.3285755006904959
 32
0.0
 13
0.975850360073184
 23
-0.3285755006904959
 33
0.0
  0
SOLID
  5
7D
330
55
100
AcDbEntity
  8
ENGRAVE
 62
     7
100
AcDbTrace
 10
0.975850360073184
 20
-0.4931857861449161
 30
0.0
 11
0.975850360073184
 21
-0.3285755006904959
 31
0.0
 12
0.9816713588978753
 22
-0.4968317361641397
 32
0.0
 13
0.9816713588978753
 23
-0.4968317361641397
 33
0.0
  0
SOLID
  5
7E
330
55
100
AcDbEntity
  8
ENGRAVE
 62
     7
100
AcDbTrace
 10
0.9816713588978753
 20
-0.4968317361641397
 30
0.0
 11
0.975850360073184
 21
-0.3285755006904959
 31
0.0
 12
0.9816713588978753
 22
-0.3251469604077031
 32
0.0
 13
0.9816713588978753
 23
-0.3251469604077031
 33
0.0
  0
SOLID
  5
7F
330
55
100
AcDbEntity
  8
ENGRAVE
 62
     7
100
AcDbTrace
 10
0.9816713588978753
 20
-0.4968317361641397
 30
0.0
 11
0.9816713588978753
 21
-0.3251469604077031
 31
0.0
 12
0.9840319967180989
 22
-0.4980088465156105
 32
0.0
 13
0.9840319967180989
 23
-0.4980088465156105
 33
0.0
  0
SOLID
  5
80
330
55
100
AcDbEntity
  8
ENGRAVE
 62
     7
100
AcDbTrace
 10
0.9840319967180989
 20
-0.4980088465156105
 30
0.0
 11
0.9816713588978753
 21
-0.3251469604077031
 31
0.0
 12
0.9840319967180989
 22
-0.3237565560967814
 32
0.0
 13
0.9840319967180989
 23
-0.3237565560967814
 33
0.0
  0
SOLID
  5
81
330
55
100
AcDbEntity
  8
ENGRAVE
 62
     7
100
AcDbTrace
 10
0.9840319967180989
 20
-0.4980088465156105
 30
0.0
 11
0.9840319967180989
 21
-0.3237565560967814
 31
0.0
 12
0.9902177818266565
 22
-0.5010933314039224
 32
0.0
 13
0.9902177818266565
 23
-0.5010933314039224
 33
0.0
  0
SOLID
  5
82
330
55
100
AcDbEntity
  8
ENGRAVE
 62
     7
100
AcDbTrace
 10
0.9902177818266565
 20
-0.5010933314039224
 30
0.0
 11
0.9840319967180989
 21
-0.3237565560967814
 31
0.0
 12
0.9902177818266565
 22
-0.3208799784845241
 32
0.0
 13
0.9902177818266565
 23
-0.3208799784845241
 33
0.0
  0
SOLID
  5
83
330
55
100
AcDbEntity
  8
ENGRAVE
 62
     7
100
AcDbTrace
 10
0.9902177818266565
 20
-0.5010933314039224
 30
0.0
 11
0.9902177818266565
 21
-0.3208799784845241
 31
0.0
 12
0.9926914698062571
 22
-0.5020371638513423
 32
0.0
 13
0.9926914698062571
 23
-0.5020371638513423
 33
0.0
  0
SOLID
  5
84
330
55
100
AcDbEntity
  8
ENGRAVE
 62
     7
100
AcDbTrace
 10
0.9926914698062571
 20
-0.5020371638513423
 30
0.0
 11
0.9902177818266565
 21
-0.3208799784845241
 31
0.0
 12
0.9926914698062571
 22
-0.3197296385782792
 32
0.0
 13
0.9926914698062571
 23
-0.3197296385782792
 33
0.0
  0
SOLID
  5
85
330
55
100
AcDbEntity
  8
ENGRAVE
 62
     7
100
AcDbTrace
 10
0.9926914698062571
 20
-0.5020371638513423
 30
0.0
 11
0.9926914698062571
 21
-0.3197296385782792
 31
0.0
 12
0.9992146704585806
 22
-0.5045260826185702
 32
0.0
 13
0.9992146704585806
 23
-0.5045260826185702
 33
0.0
  0
SOLID
  5
86
330
55
100
AcDbEntity
  8
ENGRAVE
 62
     7
100
AcDbTrace
 10
0.9992146704585806
 20
-0.5045260826185702
 30
0.0
 11
0.9926914698062571
 21
-0.3197296385782792
 31
0.0
 12
0.9992146704585806
 22
-0.3174425070138302
 32
0.0
 13
0.9992146704585806
 23
-0.3174425070138302
 33
0.0
  0
SOLID
  5
87
330
55
100
AcDbEntity
  8
ENGRAVE
 62
     7
100
AcDbTrace
 10
0.9992146704585806
 20
-0.5045260826185702
 30
0.0
 11
0.9992146704585806
 21
-0.3174425070138302
 31
0.0
 12
1.001778635397388
 22
-0.5052227595068645
 32
0.0
 13
1.001778635397388
 23
-0.5052227595068645
 33
0.0
  0
SOLID
  5
88
330
55
100
AcDbEntity
  8
ENGRAVE
 62
     7
100
AcDbTrace
 10
1.001778635397388
 20
-0.5052227595068645
 30
0.0
 11
0.9992146704585806
 21
-0.3174425070138302
 31
0.0
 12
1.001778635397388
 22
-0.3165435426167135
 32
0.0
 13
1.001778635397388
 23
-0.3165435426167135
 33
0.0
  0
SOLID
  5
89
330
55
100
AcDbEntity
  8
ENGRAVE
 62
     7
100
AcDbTrace
 10
1.001778635397388
 20
-0.5052227595068645
 30
0.0
 11
1.001778635397388
 21
-0.3165435426167135
 31
0.0
 12
1.008613230311922
 22
-0.5070798458678127
 32
0.0
 13
1.008613230311922
 23
-0.5070798458678127
 33
0.0
  0
SOLID
  5
8A
330
55
100
AcDbEntity
  8
ENGRAVE
 62
     7
100
AcDbTrace
 10
1.008613230311922
 20
-0.5070798458678127
 30
0.0
 11
1.001778635397388
 21
-0.3165435426167135
 31
0.0
 12
1.008613230311922
 22
-0.3148852241775817
 32
0.0
 13
1.008613230311922
 23
-0.3148852241775817
 33
0.0
  0
SOLID
  5
8B
330
55
100
AcDbEntity
  8
ENGRAVE
 62
     7
100
AcDbTrace
 10
1.008613230311922
 20
-0.5070798458678127
 30
0.0
 11
1.008613230311922
 21
-0.3148852241775817
 31
0.0
 12
1.011243349551223
 22
-0.5075180350630885
 32
0.0
 13
1.011243349551223
 23
-0.5075180350630885
 33
0.0
  0
SOLID
  5
8C
330
55
100
AcDbEntity
  8
ENGRAVE
 62
     7
100
AcDbTrace
 10
1.011243349551223
 20
-0.5075180350630885
 30
0.0
 11
1.008613230311922
 21
-0.3148852241775817
 31
0.0
 12
1.011243349551223
 22
-0.3142470626938086
 32
0.0
 13
1.011243349551223
 23
-0.3142470626938086
 33
0.0
  0
SOLID
  5
8D
330
55
100
AcDbEntity
  8
ENGRAVE
 62
     7
100
AcDbTrace
 10
1.011243349551223
 20
-0.5075180350630885
 30
0.0
 11
1.011243349551223
 21
-0.3142470626938086
 31
0.0
 12
1.018364666904959
 22
-0.5087044772113793
 32
0.0
 13
1.018364666904959
 23
-0.5087044772113793
 33
0.0
  0
SOLID
  5
8E
330
55
100
AcDbEntity
  8
ENGRAVE
 62
     7
100
AcDbTrace
 10
1.018364666904959
 20
-0.5087044772113793
 30
0.0
 11
1.011243349551223
 21
-0.3142470626938086
 31
0.0
 12
1.018364666904959
 22
-0.3132594068631642
 32
0.0
 13
1.018364666904959
 23
-0.3132594068631642
 33
0.0
  0
SOLID
  5
8F
330
55
100
AcDbEntity
  8
ENGRAVE
 62
     7
100
AcDbTrace
 10
1.018364666904959
 20
-0.5087044772113793
 30
0.0
 11
1.018364666904959
 21
-0.3132594068631642
 31
0.0
 12
1.021035468327489
 22
-0.5088758872009206
 32
0.0
 13
1.021035468327489
 23
-0.5088758872009206
 33
0.0
  0
SOLID
  5
90
330
55
100
AcDbEntity
  8
ENGRAVE
 62
     7
100
AcDbTrace
 10
1.021035468327489
 20
-0.5088758872009206
 30
0.0
 11
1.018364666904959
 21
-0.3132594068631642
 31
0.0
 12
1.021035468327489
 22
-0.3128889932912888
 32
0.0
 13
1.021035468327489
 23
-0.3128889932912888
 33
0.0
  0
SOLID
  5
91
330
55
100
AcDbEntity
  8
ENGRAVE
 62
     7
100
AcDbTrace
 10
1.021035468327489
 20
-0.5088758872009206
 30
0.0
 11
1.021035468327489
 21
-0.3128889932912888
 31
0.0
 12
1.028420185755964
 22
-0.5093498327089997
 32
0.0
 13
1.028420185755964
 23
-0.5093498327089997
 33
0.0
  0
SOLID
  5
92
330
55
100
AcDbEntity
  8
ENGRAVE
 62
     7
100
AcDbTrace
 10
1.028420185755964
 20
-0.5093498327089997
 30
0.0
 11
1.021035468327489
 21
-0.3128889932912888
 31
0.0
 12
1.028420185755964
 22
-0.3126170074343034
 32
0.0
 13
1.028420185755964
 23
-0.3126170074343034
 33
0.0
  0
SOLID
  5
93
330
55
100
AcDbEntity
  8
ENGRAVE
 62
     7
100
AcDbTrace
 10
1.028420185755964
 20
-0.5093498327089997
 30
0.0
 11
1.028420185755964
 21
-0.3126170074343034
 31
0.0
 12
1.031104847785918
 22
-0.5092509541655766
 32
0.0
 13
1.031104847785918
 23
-0.5092509541655766
 33
0.0
  0
SOLID
  5
94
330
55
100
AcDbEntity
  8
ENGRAVE
 62
     7
100
AcDbTrace
 10
1.031104847785918
 20
-0.5092509541655766
 30
0.0
 11
1.028420185755964
 21
-0.3126170074343034
 31
0.0
 12
1.031104847785918
 22
-0.3125181288908783
 32
0.0
 13
1.031104847785918
 23
-0.3125181288908783
 33
0.0
  0
SOLID
  5
95
330
55
100
AcDbEntity
  8
ENGRAVE
 62
     7
100
AcDbTrace
 10
1.031104847785918
 20
-0.5092509541655766
 30
0.0
 11
1.031104847785918
 21
-0.3125181288908783
 31
0.0
 12
1.038489565214375
 22
-0.5089789683085976
 32
0.0
 13
1.038489565214375
 23
-0.5089789683085976
 33
0.0
  0
SOLID
  5
96
330
55
100
AcDbEntity
  8
ENGRAVE
 62
     7
100
AcDbTrace
 10
1.038489565214375
 20
-0.5089789683085976
 30
0.0
 11
1.031104847785918
 21
-0.3125181288908783
 31
0.0
 12
1.038489565214375
 22
-0.3129920743989588
 32
0.0
 13
1.038489565214375
 23
-0.3129920743989588
 33
0.0
  0
SOLID
  5
97
330
55
100
AcDbEntity
  8
ENGRAVE
 62
     7
100
AcDbTrace
 10
1.038489565214375
 20
-0.5089789683085976
 30
0.0
 11
1.038489565214375
 21
-0.3129920743989588
 31
0.0
 12
1.041160366636908
 22
-0.508608554736723
 32
0.0
 13
1.041160366636908
 23
-0.508608554736723
 33
0.0
  0
SOLID
  5
98
330
55
100
AcDbEntity
  8
ENGRAVE
 62
     7
100
AcDbTrace
 10
1.041160366636908
 20
-0.508608554736723
 30
0.0
 11
1.038489565214375
 21
-0.3129920743989588
 31
0.0
 12
1.041160366636908
 22
-0.3131634843885011
 32
0.0
 13
1.041160366636908
 23
-0.3131634843885011
 33
0.0
  0
SOLID
  5
99
330
55
100
AcDbEntity
  8
ENGRAVE
 62
     7
100
AcDbTrace
 10
1.041160366636908
 20
-0.508608554736723
 30
0.0
 11
1.041160366636908
 21
-0.3131634843885011
 31
0.0
 12
1.048281683990627
 22
-0.507620898906084
 32
0.0
 13
1.048281683990627
 23
-0.507620898906084
 33
0.0
  0
SOLID
  5
9A
330
55
100
AcDbEntity
  8
ENGRAVE
 62
     7
100
AcDbTrace
 10
1.048281683990627
 20
-0.507620898906084
 30
0.0
 11
1.041160366636908
 21
-0.3131634843885011
 31
0.0
 12
1.048281683990627
 22
-0.3143499265367923
 32
0.0
 13
1.048281683990627
 23
-0.3143499265367923
 33
0.0
  0
SOLID
  5
9B
330
55
100
AcDbEntity
  8
ENGRAVE
 62
     7
100
AcDbTrace
 10
1.048281683990627
 20
-0.507620898906084
 30
0.0
 11
1.048281683990627
 21
-0.3143499265367923
 31
0.0
 12
1.050911803229932
 22
-0.5069827374223103
 32
0.0
 13
1.050911803229932
 23
-0.5069827374223103
 33
0.0
  0
SOLID
  5
9C
330
55
100
AcDbEntity
  8
ENGRAVE
 62
     7
100
AcDbTrace
 10
1.050911803229932
 20
-0.5069827374223103
 30
0.0
 11
1.048281683990627
 21
-0.3143499265367923
 31
0.0
 12
1.050911803229932
 22
-0.31478811573207
 32
0.0
 13
1.050911803229932
 23
-0.31478811573207
 33
0.0
  0
SOLID
  5
9D
330
55
100
AcDbEntity
  8
ENGRAVE
 62
     7
100
AcDbTrace
 10
1.050911803229932
 20
-0.5069827374223103
 30
0.0
 11
1.050911803229932
 21
-0.31478811573207
 31
0.0
 12
1.057746398144449
 22
-0.5053244189831835
 32
0.0
 13
1.057746398144449
 23
-0.5053244189831835
 33
0.0
  0
SOLID
  5
9E
330
55
100
AcDbEntity
  8
ENGRAVE
 62
     7
100
AcDbTrace
 10
1.057746398144449
 20
-0.5053244189831835
 30
0.0
 11
1.050911803229932
 21
-0.31478811573207
 31
0.0
 12
1.057746398144449
 22
-0.3166452020930173
 32
0.0
 13
1.057746398144449
 23
-0.3166452020930173
 33
0.0
  0
SOLID
  5
9F
330
55
100
AcDbEntity
  8
ENGRAVE
 62
     7
100
AcDbTrace
 10
1.057746398144449
 20
-0.5053244189831835
 30
0.0
 11
1.057746398144449
 21
-0.3166452020930173
 31
0.0
 12
1.060310363083264
 22
-0.504425454586064
 32
0.0
 13
1.060310363083264
 23
-0.504425454586064
 33
0.0
  0
SOLID
  5
A0
330
55
100
AcDbEntity
  8
ENGRAVE
 62
     7
100
AcDbTrace
 10
1.060310363083264
 20
-0.504425454586064
 30
0.0
 11
1.057746398144449
 21
-0.3166452020930173
 31
0.0
 12
1.060310363083264
 22
-0.3173418789813148
 32
0.0
 13
1.060310363083264
 23
-0.3173418789813148
 33
0.0
  0
SOLID
  5
A1
330
55
100
AcDbEntity
  8
ENGRAVE
 62
     7
100
AcDbTrace
 10
1.060310363083264
 20
-0.504425454586064
 30
0.0
 11
1.060310363083264
 21
-0.3173418789813148
 31
0.0
 12
1.066833563735571
 22
-0.5021383230216206
 32
0.0
 13
1.066833563735571
 23
-0.5021383230216206
 33
0.0
  0
SOLID
  5
A2
330
55
100
AcDbEntity
  8
ENGRAVE
 62
     7
100
AcDbTrace
 10
1.066833563735571
 20
-0.5021383230216206
 30
0.0
 11
1.060310363083264
 21
-0.3173418789813148
 31
0.0
 12
1.066833563735571
 22
-0.3198307977485402
 32
0.0
 13
1.066833563735571
 23
-0.3198307977485402
 33
0.0
  0
SOLID
  5
A3
330
55
100
AcDbEntity
  8
ENGRAVE
 62
     7
100
AcDbTrace
 10
1.066833563735571
 20
-0.5021383230216206
 30
0.0
 11
1.066833563735571
 21
-0.3198307977485402
 31
0.0
 12
1.06930725171518
 22
-0.5009879831153712
 32
0.0
 13
1.06930725171518
 23
-0.5009879831153712
 33
0.0
  0
SOLID
  5
A4
330
55
100
AcDbEntity
  8
ENGRAVE
 62
     7
100
AcDbTrace
 10
1.06930725171518
 20
-0.5009879831153712
 30
0.0
 11
1.066833563735571
 21
-0.3198307977485402
 31
0.0
 12
1.06930725171518
 22
-0.320774630195965
 32
0.0
 13
1.06930725171518
 23
-0.320774630195965
 33
0.0
  0
SOLID
  5
A5
330
55
100
AcDbEntity
  8
ENGRAVE
 62
     7
100
AcDbTrace
 10
1.06930725171518
 20
-0.5009879831153712
 30
0.0
 11
1.06930725171518
 21
-0.320774630195965
 31
0.0
 12
1.075493036823722
 22
-0.4981114055031202
 32
0.0
 13
1.075493036823722
 23
-0.4981114055031202
 33
0.0
  0
SOLID
  5
A6
330
55
100
AcDbEntity
  8
ENGRAVE
 62
     7
100
AcDbTrace
 10
1.075493036823722
 20
-0.4981114055031202
 30
0.0
 11
1.06930725171518
 21
-0.320774630195965
 31
0.0
 12
1.075493036823722
 22
-0.3238591150842726
 32
0.0
 13
1.075493036823722
 23
-0.3238591150842726
 33
0.0
  0
SOLID
  5
A7
330
55
100
AcDbEntity
  8
ENGRAVE
 62
     7
100
AcDbTrace
 10
1.075493036823722
 20
-0.4981114055031202
 30
0.0
 11
1.075493036823722
 21
-0.3238591150842726
 31
0.0
 12
1.077853674643956
 22
-0.4967210011921915
 32
0.0
 13
1.077853674643956
 23
-0.4967210011921915
 33
0.0
  0
SOLID
  5
A8
330
55
100
AcDbEntity
  8
ENGRAVE
 62
     7
100
AcDbTrace
 10
1.077853674643956
 20
-0.4967210011921915
 30
0.0
 11
1.075493036823722
 21
-0.3238591150842726
 31
0.0
 12
1.077853674643956
 22
-0.3250362254357502
 32
0.0
 13
1.077853674643956
 23
-0.3250362254357502
 33
0.0
  0
SOLID
  5
A9
330
55
100
AcDbEntity
  8
ENGRAVE
 62
     7
100
AcDbTrace
 10
1.077853674643956
 20
-0.4967210011921915
 30
0.0
 11
1.077853674643956
 21
-0.3250362254357502
 31
0.0
 12
1.083674673468631
 22
-0.4932924609094064
 32
0.0
 13
1.083674673468631
 23
-0.4932924609094064
 33
0.0
  0
SOLID
  5
AA
330
55
100
AcDbEntity
  8
ENGRAVE
 62
     7
100
AcDbTrace
 10
1.083674673468631
 20
-0.4932924609094064
 30
0.0
 11
1.077853674643956
 21
-0.3250362254357502
 31
0.0
 12
1.083674673468631
 22
-0.3286821754549671
 32
0.0
 13
1.083674673468631
 23
-0.3286821754549671
 33
0.0
  0
SOLID
  5
AB
330
55
100
AcDbEntity
  8
ENGRAVE
 62
     7
100
AcDbTrace
 10
1.083674673468631
 20
-0.4932924609094064
 30
0.0
 11
1.083674673468631
 21
-0.3286821754549671
 31
0.0
 12
1.085900837387866
 22
-0.4916746304577052
 32
0.0
 13
1.085900837387866
 23
-0.4916746304577052
 33
0.0
  0
SOLID
  5
AC
330
55
100
AcDbEntity
  8
ENGRAVE
 62
     7
100
AcDbTrace
 10
1.085900837387866
 20
-0.4916746304577052
 30
0.0
 11
1.083674673468631
 21
-0.3286821754549671
 31
0.0
 12
1.085900837387866
 22
-0.3300765207603998
 32
0.0
 13
1.085900837387866
 23
-0.3300765207603998
 33
0.0
  0
SOLID
  5
AD
330
55
100
AcDbEntity
  8
ENGRAVE
 62
     7
100
AcDbTrace
 10
1.085900837387866
 20
-0.4916746304577052
 30
0.0
 11
1.085900837387866
 21
-0.3300765207603998
 31
0.0
 12
1.091328329730029
 22
-0.4877302837222039
 32
0.0
 13
1.091328329730029
 23
-0.4877302837222039
 33
0.0
  0
SOLID
  5
AE
330
55
100
AcDbEntity
  8
ENGRAVE
 62
     7
100
AcDbTrace
 10
1.091328329730029
 20
-0.4877302837222039
 30
0.0
 11
1.085900837387866
 21
-0.3300765207603998
 31
0.0
 12
1.091328329730029
 22
-0.3342517369127161
 32
0.0
 13
1.091328329730029
 23
-0.3342517369127161
 33
0.0
  0
SOLID
  5
AF
330
55
100
AcDbEntity
  8
ENGRAVE
 62
     7
100
AcDbTrace
 10
1.091328329730029
 20
-0.4877302837222039
 30
0.0
 11
1.091328329730029
 21
-0.3342517369127161
 31
0.0
 12
1.093399945465187
 22
-0.4858984352030472
 32
0.0
 13
1.093399945465187
 23
-0.4858984352030472
 33
0.0
  0
SOLID
  5
B0
330
55
100
AcDbEntity
  8
ENGRAVE
 62
     7
100
AcDbTrace
 10
1.093399945465187
 20
-0.4858984352030472
 30
0.0
 11
1.091328329730029
 21
-0.3342517369127161
 31
0.0
 12
1.093399945465187
 22
-0.3358453722296435
 32
0.0
 13
1.093399945465187
 23
-0.3358453722296435
 33
0.0
  0
SOLID
  5
B1
330
55
100
AcDbEntity
  8
ENGRAVE
 62
     7
100
AcDbTrace
 10
1.093399945465187
 20
-0.4858984352030472
 30
0.0
 11
1.093399945465187
 21
-0.3358453722296435
 31
0.0
 12
1.098403861667645
 22
-0.4814736684232375
 32
0.0
 13
1.098403861667645
 23
-0.4814736684232375
 33
0.0
  0
SOLID
  5
B2
330
55
100
AcDbEntity
  8
ENGRAVE
 62
     7
100
AcDbTrace
 10
1.098403861667645
 20
-0.4814736684232375
 30
0.0
 11
1.093399945465187
 21
-0.3358453722296435
 31
0.0
 12
1.098403861667645
 22
-0.3405194314745243
 32
0.0
 13
1.098403861667645
 23
-0.3405194314745243
 33
0.0
  0
SOLID
  5
B3
330
55
100
AcDbEntity
  8
ENGRAVE
 62
     7
100
AcDbTrace
 10
1.098403861667645
 20
-0.4814736684232375
 30
0.0
 11
1.098403861667645
 21
-0.3405194314745243
 31
0.0
 12
1.100302204394194
 22
-0.4794413561589884
 32
0.0
 13
1.100302204394194
 23
-0.4794413561589884
 33
0.0
  0
SOLID
  5
B4
330
55
100
AcDbEntity
  8
ENGRAVE
 62
     7
100
AcDbTrace
 10
1.100302204394194
 20
-0.4794413561589884
 30
0.0
 11
1.098403861667645
 21
-0.3405194314745243
 31
0.0
 12
1.100302204394194
 22
-0.3422926359032109
 32
0.0
 13
1.100302204394194
 23
-0.3422926359032109
 33
0.0
  0
SOLID
  5
B5
330
55
100
AcDbEntity
  8
ENGRAVE
 62
     7
100
AcDbTrace
 10
1.100302204394194
 20
-0.4794413561589884
 30
0.0
 11
1.100302204394194
 21
-0.3422926359032109
 31
0.0
 12
1.104851125341209
 22
-0.4745714094942315
 32
0.0
 13
1.104851125341209
 23
-0.4745714094942315
 33
0.0
  0
SOLID
  5
B6
330
55
100
AcDbEntity
  8
ENGRAVE
 62
     7
100
AcDbTrace
 10
1.104851125341209
 20
-0.4745714094942315
 30
0.0
 11
1.100302204394194
 21
-0.3422926359032109
 31
0.0
 12
1.104851125341209
 22
-0.3474369565789013
 32
0.0
 13
1.104851125341209
 23
-0.3474369565789013
 33
0.0
  0
SOLID
  5
B7
330
55
100
AcDbEntity
  8
ENGRAVE
 62
     7
100
AcDbTrace
 10
1.104851125341209
 20
-0.4745714094942315
 30
0.0
 11
1.104851125341209
 21
-0.3474369565789013
 31
0.0
 12
1.106558819693161
 22
-0.4723515248990743
 32
0.0
 13
1.106558819693161
 23
-0.4723515248990743
 33
0.0
  0
SOLID
  5
B8
330
55
100
AcDbEntity
  8
ENGRAVE
 62
     7
100
AcDbTrace
 10
1.106558819693161
 20
-0.4723515248990743
 30
0.0
 11
1.104851125341209
 21
-0.3474369565789013
 31
0.0
 12
1.106558819693161
 22
-0.3493681678408314
 32
0.0
 13
1.106558819693161
 23
-0.3493681678408314
 33
0.0
  0
SOLID
  5
B9
330
55
100
AcDbEntity
  8
ENGRAVE
 62
     7
100
AcDbTrace
 10
1.106558819693161
 20
-0.4723515248990743
 30
0.0
 11
1.106558819693161
 21
-0.3493681678408314
 31
0.0
 12
1.11061997681045
 22
-0.4670723014169106
 32
0.0
 13
1.11061997681045
 23
-0.4670723014169106
 33
0.0
  0
SOLID
  5
BA
330
55
100
AcDbEntity
  8
ENGRAVE
 62
     7
100
AcDbTrace
 10
1.11061997681045
 20
-0.4670723014169106
 30
0.0
 11
1.106558819693161
 21
-0.3493681678408314
 31
0.0
 12
1.11061997681045
 22
-0.3549563933779087
 32
0.0
 13
1.11061997681045
 23
-0.3549563933779087
 33
0.0
  0
SOLID
  5
BB
330
55
100
AcDbEntity
  8
ENGRAVE
 62
     7
100
AcDbTrace
 10
1.11061997681045
 20
-0.4670723014169106
 30
0.0
 11
1.11061997681045
 21
-0.3549563933779087
 31
0.0
 12
1.112120996880364
 22
-0.4646758242253036
 32
0.0
 13
1.112120996880364
 23
-0.4646758242253036
 33
0.0
  0
SOLID
  5
BC
330
55
100
AcDbEntity
  8
ENGRAVE
 62
     7
100
AcDbTrace
 10
1.112120996880364
 20
-0.4646758242253036
 30
0.0
 11
1.11061997681045
 21
-0.3549563933779087
 31
0.0
 12
1.112120996880364
 22
-0.3570218241022347
 32
0.0
 13
1.112120996880364
 23
-0.3570218241022347
 33
0.0
  0
SOLID
  5
BD
330
55
100
AcDbEntity
  8
ENGRAVE
 62
     7
100
AcDbTrace
 10
1.112120996880364
 20
-0.4646758242253036
 30
0.0
 11
1.112120996880364
 21
-0.3570218241022347
 31
0.0
 12
1.115660272135097
 22
-0.4590251386729994
 32
0.0
 13
1.115660272135097
 23
-0.4590251386729994
 33
0.0
  0
SOLID
  5
BE
330
55
100
AcDbEntity
  8
ENGRAVE
 62
     7
100
AcDbTrace
 10
1.115660272135097
 20
-0.4590251386729994
 30
0.0
 11
1.112120996880364
 21
-0.3570218241022347
 31
0.0
 12
1.115660272135097
 22
-0.3630308295094203
 32
0.0
 13
1.115660272135097
 23
-0.3630308295094203
 33
0.0
  0
SOLID
  5
BF
330
55
100
AcDbEntity
  8
ENGRAVE
 62
     7
100
AcDbTrace
 10
1.115660272135097
 20
-0.4590251386729994
 30
0.0
 11
1.115660272135097
 21
-0.3630308295094203
 31
0.0
 12
1.11693994147408
 22
-0.4564588237687029
 32
0.0
 13
1.11693994147408
 23
-0.4564588237687029
 33
0.0
  0
SOLID
  5
C0
330
55
100
AcDbEntity
  8
ENGRAVE
 62
     7
100
AcDbTrace
 10
1.11693994147408
 20
-0.4564588237687029
 30
0.0
 11
1.115660272135097
 21
-0.3630308295094203
 31
0.0
 12
1.11693994147408
 22
-0.3652034607471503
 32
0.0
 13
1.11693994147408
 23
-0.3652034607471503
 33
0.0
  0
SOLID
  5
C1
330
55
100
AcDbEntity
  8
ENGRAVE
 62
     7
100
AcDbTrace
 10
1.11693994147408
 20
-0.4564588237687029
 30
0.0
 11
1.11693994147408
 21
-0.3652034607471503
 31
0.0
 12
1.119921867374881
 22
-0.4504787157442224
 32
0.0
 13
1.119921867374881
 23
-0.4504787157442224
 33
0.0
  0
SOLID
  5
C2
330
55
100
AcDbEntity
  8
ENGRAVE
 62
     7
100
AcDbTrace
 10
1.119921867374881
 20
-0.4504787157442224
 30
0.0
 11
1.11693994147408
 21
-0.3652034607471503
 31
0.0
 12
1.119921867374881
 22
-0.3716157865447905
 32
0.0
 13
1.119921867374881
 23
-0.3716157865447905
 33
0.0
  0
SOLID
  5
C3
330
55
100
AcDbEntity
  8
ENGRAVE
 62
     7
100
AcDbTrace
 10
1.119921867374881
 20
-0.4504787157442224
 30
0.0
 11
1.119921867374881
 21
-0.3716157865447905
 31
0.0
 12
1.120966858992582
 22
-0.4477398999612352
 32
0.0
 13
1.120966858992582
 23
-0.4477398999612352
 33
0.0
  0
SOLID
  5
C4
330
55
100
AcDbEntity
  8
ENGRAVE
 62
     7
100
AcDbTrace
 10
1.120966858992582
 20
-0.4477398999612352
 30
0.0
 11
1.119921867374881
 21
-0.3716157865447905
 31
0.0
 12
1.120966858992582
 22
-0.3738629338353077
 32
0.0
 13
1.120966858992582
 23
-0.3738629338353077
 33
0.0
  0
SOLID
  5
C5
330
55
100
AcDbEntity
  8
ENGRAVE
 62
     7
100
AcDbTrace
 10
1.120966858992582
 20
-0.4477398999612352
 30
0.0
 11
1.120966858992582
 21
-0.3738629338353077
 31
0.0
 12
1.12335461858953
 22
-0.4414818271123041
 32
0.0
 13
1.12335461858953
 23
-0.4414818271123041
 33
0.0
  0
SOLID
  5
C6
330
55
100
AcDbEntity
  8
ENGRAVE
 62
     7
100
AcDbTrace
 10
1.12335461858953
 20
-0.4414818271123041
 30
0.0
 11
1.120966858992582
 21
-0.3738629338353077
 31
0.0
 12
1.12335461858953
 22
-0.3806731388985029
 32
0.0
 13
1.12335461858953
 23
-0.3806731388985029
 33
0.0
  0
SOLID
  5
C7
330
55
100
AcDbEntity
  8
ENGRAVE
 62
     7
100
AcDbTrace
 10
1.12335461858953
 20
-0.4414818271123041
 30
0.0
 11
1.12335461858953
 21
-0.3806731388985029
 31
0.0
 12
1.124152954954147
 22
-0.4385437269935237
 32
0.0
 13
1.124152954954147
 23
-0.4385437269935237
 33
0.0
  0
SOLID
  5
C8
330
55
100
AcDbEntity
  8
ENGRAVE
 62
     7
100
AcDbTrace
 10
1.124152954954147
 20
-0.4385437269935237
 30
0.0
 11
1.12335461858953
 21
-0.3806731388985029
 31
0.0
 12
1.124152954954147
 22
-0.3829500994264367
 32
0.0
 13
1.124152954954147
 23
-0.3829500994264367
 33
0.0
  0
SOLID
  5
C9
330
55
100
AcDbEntity
  8
ENGRAVE
 62
     7
100
AcDbTrace
 10
1.124152954954147
 20
-0.4385437269935237
 30
0.0
 11
1.124152954954147
 21
-0.3829500994264367
 31
0.0
 12
1.125908381838775
 22
-0.4320832672589692
 32
0.0
 13
1.125908381838775
 23
-0.4320832672589692
 33
0.0
  0
SOLID
  5
CA
330
55
100
AcDbEntity
  8
ENGRAVE
 62
     7
100
AcDbTrace
 10
1.125908381838775
 20
-0.4320832672589692
 30
0.0
 11
1.124152954954147
 21
-0.3829500994264367
 31
0.0
 12
1.125908381838775
 22
-0.3901849171643393
 32
0.0
 13
1.125908381838775
 23
-0.3901849171643393
 33
0.0
  0
SOLID
  5
CB
330
55
100
AcDbEntity
  8
ENGRAVE
 62
     7
100
AcDbTrace
 10
1.125908381838775
 20
-0.4320832672589692
 30
0.0
 11
1.125908381838775
 21
-0.3901849171643393
 31
0.0
 12
1.12644943487705
 22
-0.4288357339542104
 32
0.0
 13
1.12644943487705
 23
-0.4288357339542104
 33
0.0
  0
SOLID
  5
CC
330
55
100
AcDbEntity
  8
ENGRAVE
 62
     7
100
AcDbTrace
 10
1.12644943487705
 20
-0.4288357339542104
 30
0.0
 11
1.125908381838775
 21
-0.3901849171643393
 31
0.0
 12
1.12644943487705
 22
-0.3924148135802665
 32
0.0
 13
1.12644943487705
 23
-0.3924148135802665
 33
0.0
  0
SOLID
  5
CD
330
55
100
AcDbEntity
  8
ENGRAVE
 62
     7
100
AcDbTrace
 10
1.12644943487705
 20
-0.4288357339542104
 30
0.0
 11
1.12644943487705
 21
-0.3924148135802665
 31
0.0
 12
1.127533013182345
 22
-0.4223318306659422
 32
0.0
 13
1.127533013182345
 23
-0.4223318306659422
 33
0.0
  0
SOLID
  5
CE
330
55
100
AcDbEntity
  8
ENGRAVE
 62
     7
100
AcDbTrace
 10
1.127533013182345
 20
-0.4223318306659422
 30
0.0
 11
1.12644943487705
 21
-0.3924148135802665
 31
0.0
 12
1.127533013182345
 22
-0.4002277629399815
 32
0.0
 13
1.127533013182345
 23
-0.4002277629399815
 33
0.0
  0
SOLID
  5
CF
330
55
100
AcDbEntity
  8
ENGRAVE
 62
     7
100
AcDbTrace
 10
1.127533013182345
 20
-0.4223318306659422
 30
0.0
 11
1.127533013182345
 21
-0.4002277629399815
 31
0.0
 12
1.127807504279565
 22
-0.4180548849938497
 32
0.0
 13
1.127807504279565
 23
-0.4180548849938497
 33
0.0
  0
SOLID
  5
D0
330
55
100
AcDbEntity
  8
ENGRAVE
 62
     7
100
AcDbTrace
 10
1.127807504279565
 20
-0.4180548849938497
 30
0.0
 11
1.127533013182345
 21
-0.4002277629399815
 31
0.0
 12
1.127807504279565
 22
-0.402206932356527
 32
0.0
 13
1.127807504279565
 23
-0.402206932356527
 33
0.0
  0
SOLID
  5
D1
330
55
100
AcDbEntity
  8
ENGRAVE
 62
     7
100
AcDbTrace
 10
1.127807504279565
 20
-0.4180548849938497
 30
0.0
 11
1.127807504279565
 21
-0.402206932356527
 31
0.0
 12
1.12817836867997
 22
-0.4122763118149477
 32
0.0
 13
1.12817836867997
 23
-0.4122763118149477
 33
0.0
  0
ENDBLK
  5
1CD
330
55
100
AcDbEntity
  8
0
100
AcDbBlockEnd
  0
BLOCK
  5
1CE
330
D2
100
AcDbEntity
  8
0
100
AcDbBlockBegin
  2
*U2
 70
     1
 10
0.0
 20
0.0
 30
0.0
  3
*U2
  1

  0
SOLID
  5
D3
330
D2
100
AcDbEntity
  8
ENGRAVE
 62
     7
100
AcDbTrace
 10
2.982213592708653
 20
-1.719779104246153
 30
0.0
 11
2.981842728308253
 21
-1.709709724787735
 31
0.0
 12
2.982213592708653
 22
-1.703931151608838
 32
0.0
 13
2.982213592708653
 23
-1.703931151608838
 33
0.0
  0
SOLID
  5
D4
330
D2
100
AcDbEntity
  8
ENGRAVE
 62
     7
100
AcDbTrace
 10
2.982213592708653
 20
-1.719779104246153
 30
0.0
 11
2.982213592708653
 21
-1.703931151608838
 31
0.0
 12
2.98248808380587
 22
-1.721758273662687
 32
0.0
 13
2.98248808380587
 23
-1.721758273662687
 33
0.0
  0
SOLID
  5
D5
330
D2
100
AcDbEntity
  8
ENGRAVE
 62
     7
100
AcDbTrace
 10
2.98248808380587
 20
-1.721758273662687
 30
0.0
 11
2.982213592708653
 21
-1.703931151608838
 31
0.0
 12
2.98248808380587
 22
-1.699654205936734
 32
0.0
 13
2.98248808380587
 23
-1.699654205936734
 33
0.0
  0
SOLID
  5
D6
330
D2
100
AcDbEntity
  8
ENGRAVE
 62
     7
100
AcDbTrace
 10
2.98248808380587
 20
-1.721758273662687
 30
0.0
 11
2.98248808380587
 21
-1.699654205936734
 31
0.0
 12
2.983571662111164
 22
-1.729571223022411
 32
0.0
 13
2.983571662111164
 23
-1.729571223022411
 33
0.0
  0
SOLID
  5
D7
330
D2
100
AcDbEntity
  8
ENGRAVE
 62
     7
100
AcDbTrace
 10
2.983571662111164
 20
-1.729571223022411
 30
0.0
 11
2.98248808380587
 21
-1.699654205936734
 31
0.0
 12
2.983571662111164
 22
-1.693150302648452
 32
0.0
 13
2.983571662111164
 23
-1.693150302648452
 33
0.0
  0
SOLID
  5
D8
330
D2
100
AcDbEntity
  8
ENGRAVE
 62
     7
100
AcDbTrace
 10
2.983571662111164
 20
-1.729571223022411
 30
0.0
 11
2.983571662111164
 21
-1.693150302648452
 31
0.0
 12
2.984112715149434
 22
-1.731801119438326
 32
0.0
 13
2.984112715149434
 23
-1.731801119438326
 33
0.0
  0
SOLID
  5
D9
330
D2
100
AcDbEntity
  8
ENGRAVE
 62
     7
100
AcDbTrace
 10
2.984112715149434
 20
-1.731801119438326
 30
0.0
 11
2.983571662111164
 21
-1.693150302648452
 31
0.0
 12
2.984112715149434
 22
-1.689902769343703
 32
0.0
 13
2.984112715149434
 23
-1.689902769343703
 33
0.0
  0
SOLID
  5
DA
330
D2
100
AcDbEntity
  8
ENGRAVE
 62
     7
100
AcDbTrace
 10
2.984112715149434
 20
-1.731801119438326
 30
0.0
 11
2.984112715149434
 21
-1.689902769343703
 31
0.0
 12
2.985868142034063
 22
-1.739035937176239
 32
0.0
 13
2.985868142034063
 23
-1.739035937176239
 33
0.0
  0
SOLID
  5
DB
330
D2
100
AcDbEntity
  8
ENGRAVE
 62
     7
100
AcDbTrace
 10
2.985868142034063
 20
-1.739035937176239
 30
0.0
 11
2.984112715149434
 21
-1.689902769343703
 31
0.0
 12
2.985868142034063
 22
-1.683442309609131
 32
0.0
 13
2.985868142034063
 23
-1.683442309609131
 33
0.0
  0
SOLID
  5
DC
330
D2
100
AcDbEntity
  8
ENGRAVE
 62
     7
100
AcDbTrace
 10
2.985868142034063
 20
-1.739035937176239
 30
0.0
 11
2.985868142034063
 21
-1.683442309609131
 31
0.0
 12
2.986666478398673
 22
-1.741312897704157
 32
0.0
 13
2.986666478398673
 23
-1.741312897704157
 33
0.0
  0
SOLID
  5
DD
330
D2
100
AcDbEntity
  8
ENGRAVE
 62
     7
100
AcDbTrace
 10
2.986666478398673
 20
-1.741312897704157
 30
0.0
 11
2.985868142034063
 21
-1.683442309609131
 31
0.0
 12
2.986666478398673
 22
-1.680504209490365
 32
0.0
 13
2.986666478398673
 23
-1.680504209490365
 33
0.0
  0
SOLID
  5
DE
330
D2
100
AcDbEntity
  8
ENGRAVE
 62
     7
100
AcDbTrace
 10
2.986666478398673
 20
-1.741312897704157
 30
0.0
 11
2.986666478398673
 21
-1.680504209490365
 31
0.0
 12
2.989054237995623
 22
-1.748123102767365
 32
0.0
 13
2.989054237995623
 23
-1.748123102767365
 33
0.0
  0
SOLID
  5
DF
330
D2
100
AcDbEntity
  8
ENGRAVE
 62
     7
100
AcDbTrace
 10
2.989054237995623
 20
-1.748123102767365
 30
0.0
 11
2.986666478398673
 21
-1.680504209490365
 31
0.0
 12
2.989054237995623
 22
-1.674246136641418
 32
0.0
 13
2.989054237995623
 23
-1.674246136641418
 33
0.0
  0
SOLID
  5
E0
330
D2
100
AcDbEntity
  8
ENGRAVE
 62
     7
100
AcDbTrace
 10
2.989054237995623
 20
-1.748123102767365
 30
0.0
 11
2.989054237995623
 21
-1.674246136641418
 31
0.0
 12
2.990099229613318
 22
-1.750370250057868
 32
0.0
 13
2.990099229613318
 23
-1.750370250057868
 33
0.0
  0
SOLID
  5
E1
330
D2
100
AcDbEntity
  8
ENGRAVE
 62
     7
100
AcDbTrace
 10
2.990099229613318
 20
-1.750370250057868
 30
0.0
 11
2.989054237995623
 21
-1.674246136641418
 31
0.0
 12
2.990099229613318
 22
-1.671507320858445
 32
0.0
 13
2.990099229613318
 23
-1.671507320858445
 33
0.0
  0
SOLID
  5
E2
330
D2
100
AcDbEntity
  8
ENGRAVE
 62
     7
100
AcDbTrace
 10
2.990099229613318
 20
-1.750370250057868
 30
0.0
 11
2.990099229613318
 21
-1.671507320858445
 31
0.0
 12
2.993081155514123
 22
-1.75678257585552
 32
0.0
 13
2.993081155514123
 23
-1.75678257585552
 33
0.0
  0
SOLID
  5
E3
330
D2
100
AcDbEntity
  8
ENGRAVE
 62
     7
100
AcDbTrace
 10
2.993081155514123
 20
-1.75678257585552
 30
0.0
 11
2.990099229613318
 21
-1.671507320858445
 31
0.0
 12
2.993081155514123
 22
-1.66552721283395
 32
0.0
 13
2.993081155514123
 23
-1.66552721283395
 33
0.0
  0
SOLID
  5
E4
330
D2
100
AcDbEntity
  8
ENGRAVE
 62
     7
100
AcDbTrace
 10
2.993081155514123
 20
-1.75678257585552
 30
0.0
 11
2.993081155514123
 21
-1.66552721283395
 31
0.0
 12
2.994360824853097
 22
-1.758955207093237
 32
0.0
 13
2.994360824853097
 23
-1.758955207093237
 33
0.0
  0
SOLID
  5
E5
330
D2
100
AcDbEntity
  8
ENGRAVE
 62
     7
100
AcDbTrace
 10
2.994360824853097
 20
-1.758955207093237
 30
0.0
 11
2.993081155514123
 21
-1.66552721283395
 31
0.0
 12
2.994360824853097
 22
-1.662960897929668
 32
0.0
 13
2.994360824853097
 23
-1.662960897929668
 33
0.0
  0
SOLID
  5
E6
330
D2
100
AcDbEntity
  8
ENGRAVE
 62
     7
100
AcDbTrace
 10
2.994360824853097
 20
-1.758955207093237
 30
0.0
 11
2.994360824853097
 21
-1.662960897929668
 31
0.0
 12
2.997900100107836
 22
-1.764964212500434
 32
0.0
 13
2.997900100107836
 23
-1.764964212500434
 33
0.0
  0
SOLID
  5
E7
330
D2
100
AcDbEntity
  8
ENGRAVE
 62
     7
100
AcDbTrace
 10
2.997900100107836
 20
-1.764964212500434
 30
0.0
 11
2.994360824853097
 21
-1.662960897929668
 31
0.0
 12
2.997900100107836
 22
-1.657310212377351
 32
0.0
 13
2.997900100107836
 23
-1.657310212377351
 33
0.0
  0
SOLID
  5
E8
330
D2
100
AcDbEntity
  8
ENGRAVE
 62
     7
100
AcDbTrace
 10
2.997900100107836
 20
-1.764964212500434
 30
0.0
 11
2.997900100107836
 21
-1.657310212377351
 31
0.0
 12
2.999401120177742
 22
-1.767029643224747
 32
0.0
 13
2.999401120177742
 23
-1.767029643224747
 33
0.0
  0
SOLID
  5
E9
330
D2
100
AcDbEntity
  8
ENGRAVE
 62
     7
100
AcDbTrace
 10
2.999401120177742
 20
-1.767029643224747
 30
0.0
 11
2.997900100107836
 21
-1.657310212377351
 31
0.0
 12
2.999401120177742
 22
-1.654913735185757
 32
0.0
 13
2.999401120177742
 23
-1.654913735185757
 33
0.0
  0
SOLID
  5
EA
330
D2
100
AcDbEntity
  8
ENGRAVE
 62
     7
100
AcDbTrace
 10
2.999401120177742
 20
-1.767029643224747
 30
0.0
 11
2.999401120177742
 21
-1.654913735185757
 31
0.0
 12
3.003462277295038
 22
-1.772617868761835
 32
0.0
 13
3.003462277295038
 23
-1.772617868761835
 33
0.0
  0
SOLID
  5
EB
330
D2
100
AcDbEntity
  8
ENGRAVE
 62
     7
100
AcDbTrace
 10
3.003462277295038
 20
-1.772617868761835
 30
0.0
 11
2.999401120177742
 21
-1.654913735185757
 31
0.0
 12
3.003462277295038
 22
-1.649634511703582
 32
0.0
 13
3.003462277295038
 23
-1.649634511703582
 33
0.0
  0
SOLID
  5
EC
330
D2
100
AcDbEntity
  8
ENGRAVE
 62
     7
100
AcDbTrace
 10
3.003462277295038
 20
-1.772617868761835
 30
0.0
 11
3.003462277295038
 21
-1.649634511703582
 31
0.0
 12
3.005169971646981
 22
-1.774549080023754
 32
0.0
 13
3.005169971646981
 23
-1.774549080023754
 33
0.0
  0
SOLID
  5
ED
330
D2
100
AcDbEntity
  8
ENGRAVE
 62
     7
100
AcDbTrace
 10
3.005169971646981
 20
-1.774549080023754
 30
0.0
 11
3.003462277295038
 21
-1.649634511703582
 31
0.0
 12
3.005169971646981
 22
-1.647414627108436
 32
0.0
 13
3.005169971646981
 23
-1.647414627108436
 33
0.0
  0
SOLID
  5
EE
330
D2
100
AcDbEntity
  8
ENGRAVE
 62
     7
100
AcDbTrace
 10
3.005169971646981
 20
-1.774549080023754
 30
0.0
 11
3.005169971646981
 21
-1.647414627108436
 31
0.0
 12
3.009718892594005
 22
-1.779693400699453
 32
0.0
 13
3.009718892594005
 23
-1.779693400699453
 33
0.0
  0
SOLID
  5
EF
330
D2
100
AcDbEntity
  8
ENGRAVE
 62
     7
100
AcDbTrace
 10
3.009718892594005
 20
-1.779693400699453
 30
0.0
 11
3.005169971646981
 21
-1.647414627108436
 31
0.0
 12
3.009718892594005
 22
-1.64254468044367
 32
0.0
 13
3.009718892594005
 23
-1.64254468044367
 33
0.0
  0
SOLID
  5
F0
330
D2
100
AcDbEntity
  8
ENGRAVE
 62
     7
100
AcDbTrace
 10
3.009718892594005
 20
-1.779693400699453
 30
0.0
 11
3.009718892594005
 21
-1.64254468044367
 31
0.0
 12
3.011617235320544
 22
-1.78146660512813
 32
0.0
 13
3.011617235320544
 23
-1.78146660512813
 33
0.0
  0
SOLID
  5
F1
330
D2
100
AcDbEntity
  8
ENGRAVE
 62
     7
100
AcDbTrace
 10
3.011617235320544
 20
-1.78146660512813
 30
0.0
 11
3.009718892594005
 21
-1.64254468044367
 31
0.0
 12
3.011617235320544
 22
-1.640512368179431
 32
0.0
 13
3.011617235320544
 23
-1.640512368179431
 33
0.0
  0
SOLID
  5
F2
330
D2
100
AcDbEntity
  8
ENGRAVE
 62
     7
100
AcDbTrace
 10
3.011617235320544
 20
-1.78146660512813
 30
0.0
 11
3.011617235320544
 21
-1.640512368179431
 31
0.0
 12
3.016621151523013
 22
-1.786140664373018
 32
0.0
 13
3.016621151523013
 23
-1.786140664373018
 33
0.0
  0
SOLID
  5
F3
330
D2
100
AcDbEntity
  8
ENGRAVE
 62
     7
100
AcDbTrace
 10
3.016621151523013
 20
-1.786140664373018
 30
0.0
 11
3.011617235320544
 21
-1.640512368179431
 31
0.0
 12
3.016621151523013
 22
-1.636087601399613
 32
0.0
 13
3.016621151523013
 23
-1.636087601399613
 33
0.0
  0
SOLID
  5
F4
330
D2
100
AcDbEntity
  8
ENGRAVE
 62
     7
100
AcDbTrace
 10
3.016621151523013
 20
-1.786140664373018
 30
0.0
 11
3.016621151523013
 21
-1.636087601399613
 31
0.0
 12
3.018692767258162
 22
-1.787734299689937
 32
0.0
 13
3.018692767258162
 23
-1.787734299689937
 33
0.0
  0
SOLID
  5
F5
330
D2
100
AcDbEntity
  8
ENGRAVE
 62
     7
100
AcDbTrace
 10
3.018692767258162
 20
-1.787734299689937
 30
0.0
 11
3.016621151523013
 21
-1.636087601399613
 31
0.0
 12
3.018692767258162
 22
-1.634255752880465
 32
0.0
 13
3.018692767258162
 23
-1.634255752880465
 33
0.0
  0
SOLID
  5
F6
330
D2
100
AcDbEntity
  8
ENGRAVE
 62
     7
100
AcDbTrace
 10
3.018692767258162
 20
-1.787734299689937
 30
0.0
 11
3.018692767258162
 21
-1.634255752880465
 31
0.0
 12
3.024120259600337
 22
-1.791909515842259
 32
0.0
 13
3.024120259600337
 23
-1.791909515842259
 33
0.0
  0
SOLID
  5
F7
330
D2
100
AcDbEntity
  8
ENGRAVE
 62
     7
100
AcDbTrace
 10
3.024120259600337
 20
-1.791909515842259
 30
0.0
 11
3.018692767258162
 21
-1.634255752880465
 31
0.0
 12
3.024120259600337
 22
-1.630311406144957
 32
0.0
 13
3.024120259600337
 23
-1.630311406144957
 33
0.0
  0
SOLID
  5
F8
330
D2
100
AcDbEntity
  8
ENGRAVE
 62
     7
100
AcDbTrace
 10
3.024120259600337
 20
-1.791909515842259
 30
0.0
 11
3.024120259600337
 21
-1.630311406144957
 31
0.0
 12
3.026346423519563
 22
-1.793303861147685
 32
0.0
 13
3.026346423519563
 23
-1.793303861147685
 33
0.0
  0
SOLID
  5
F9
330
D2
100
AcDbEntity
  8
ENGRAVE
 62
     7
100
AcDbTrace
 10
3.026346423519563
 20
-1.793303861147685
 30
0.0
 11
3.024120259600337
 21
-1.630311406144957
 31
0.0
 12
3.026346423519563
 22
-1.628693575693263
 32
0.0
 13
3.026346423519563
 23
-1.628693575693263
 33
0.0
  0
SOLID
  5
FA
330
D2
100
AcDbEntity
  8
ENGRAVE
 62
     7
100
AcDbTrace
 10
3.026346423519563
 20
-1.793303861147685
 30
0.0
 11
3.026346423519563
 21
-1.628693575693263
 31
0.0
 12
3.032167422344252
 22
-1.796949811166906
 32
0.0
 13
3.032167422344252
 23
-1.796949811166906
 33
0.0
  0
SOLID
  5
FB
330
D2
100
AcDbEntity
  8
ENGRAVE
 62
     7
100
AcDbTrace
 10
3.032167422344252
 20
-1.796949811166906
 30
0.0
 11
3.026346423519563
 21
-1.628693575693263
 31
0.0
 12
3.032167422344252
 22
-1.625265035410471
 32
0.0
 13
3.032167422344252
 23
-1.625265035410471
 33
0.0
  0
SOLID
  5
FC
330
D2
100
AcDbEntity
  8
ENGRAVE
 62
     7
100
AcDbTrace
 10
3.032167422344252
 20
-1.796949811166906
 30
0.0
 11
3.032167422344252
 21
-1.625265035410471
 31
0.0
 12
3.034528060164478
 22
-1.798126921518378
 32
0.0
 13
3.034528060164478
 23
-1.798126921518378
 33
0.0
  0
SOLID
  5
FD
330
D2
100
AcDbEntity
  8
ENGRAVE
 62
     7
100
AcDbTrace
 10
3.034528060164478
 20
-1.798126921518378
 30
0.0
 11
3.032167422344252
 21
-1.625265035410471
 31
0.0
 12
3.034528060164478
 22
-1.623874631099548
 32
0.0
 13
3.034528060164478
 23
-1.623874631099548
 33
0.0
  0
SOLID
  5
FE
330
D2
100
AcDbEntity
  8
ENGRAVE
 62
     7
100
AcDbTrace
 10
3.034528060164478
 20
-1.798126921518378
 30
0.0
 11
3.034528060164478
 21
-1.623874631099548
 31
0.0
 12
3.040713845273034
 22
-1.801211406406689
 32
0.0
 13
3.040713845273034
 23
-1.801211406406689
 33
0.0
  0
SOLID
  5
FF
330
D2
100
AcDbEntity
  8
ENGRAVE
 62
     7
100
AcDbTrace
 10
3.040713845273034
 20
-1.801211406406689
 30
0.0
 11
3.034528060164478
 21
-1.623874631099548
 31
0.0
 12
3.040713845273034
 22
-1.620998053487292
 32
0.0
 13
3.040713845273034
 23
-1.620998053487292
 33
0.0
  0
SOLID
  5
100
330
D2
100
AcDbEntity
  8
ENGRAVE
 62
     7
100
AcDbTrace
 10
3.040713845273034
 20
-1.801211406406689
 30
0.0
 11
3.040713845273034
 21
-1.620998053487292
 31
0.0
 12
3.043187533252636
 22
-1.80215523885411
 32
0.0
 13
3.043187533252636
 23
-1.80215523885411
 33
0.0
  0
SOLID
  5
101
330
D2
100
AcDbEntity
  8
ENGRAVE
 62
     7
100
AcDbTrace
 10
3.043187533252636
 20
-1.80215523885411
 30
0.0
 11
3.040713845273034
 21
-1.620998053487292
 31
0.0
 12
3.043187533252636
 22
-1.619847713581046
 32
0.0
 13
3.043187533252636
 23
-1.619847713581046
 33
0.0
  0
SOLID
  5
102
330
D2
100
AcDbEntity
  8
ENGRAVE
 62
     7
100
AcDbTrace
 10
3.043187533252636
 20
-1.80215523885411
 30
0.0
 11
3.043187533252636
 21
-1.619847713581046
 31
0.0
 12
3.049710733904958
 22
-1.804644157621337
 32
0.0
 13
3.049710733904958
 23
-1.804644157621337
 33
0.0
  0
SOLID
  5
103
330
D2
100
AcDbEntity
  8
ENGRAVE
 62
     7
100
AcDbTrace
 10
3.049710733904958
 20
-1.804644157621337
 30
0.0
 11
3.043187533252636
 21
-1.619847713581046
 31
0.0
 12
3.049710733904958
 22
-1.617560582016598
 32
0.0
 13
3.049710733904958
 23
-1.617560582016598
 33
0.0
  0
SOLID
  5
104
330
D2
100
AcDbEntity
  8
ENGRAVE
 62
     7
100
AcDbTrace
 10
3.049710733904958
 20
-1.804644157621337
 30
0.0
 11
3.049710733904958
 21
-1.617560582016598
 31
0.0
 12
3.052274698843767
 22
-1.805340834509632
 32
0.0
 13
3.052274698843767
 23
-1.805340834509632
 33
0.0
  0
SOLID
  5
105
330
D2
100
AcDbEntity
  8
ENGRAVE
 62
     7
100
AcDbTrace
 10
3.052274698843767
 20
-1.805340834509632
 30
0.0
 11
3.049710733904958
 21
-1.617560582016598
 31
0.0
 12
3.052274698843767
 22
-1.61666161761948
 32
0.0
 13
3.052274698843767
 23
-1.61666161761948
 33
0.0
  0
SOLID
  5
106
330
D2
100
AcDbEntity
  8
ENGRAVE
 62
     7
100
AcDbTrace
 10
3.052274698843767
 20
-1.805340834509632
 30
0.0
 11
3.052274698843767
 21
-1.61666161761948
 31
0.0
 12
3.059109293758301
 22
-1.807197920870579
 32
0.0
 13
3.059109293758301
 23
-1.807197920870579
 33
0.0
  0
SOLID
  5
107
330
D2
100
AcDbEntity
  8
ENGRAVE
 62
     7
100
AcDbTrace
 10
3.059109293758301
 20
-1.807197920870579
 30
0.0
 11
3.052274698843767
 21
-1.61666161761948
 31
0.0
 12
3.059109293758301
 22
-1.615003299180349
 32
0.0
 13
3.059109293758301
 23
-1.615003299180349
 33
0.0
  0
SOLID
  5
108
330
D2
100
AcDbEntity
  8
ENGRAVE
 62
     7
100
AcDbTrace
 10
3.059109293758301
 20
-1.807197920870579
 30
0.0
 11
3.059109293758301
 21
-1.615003299180349
 31
0.0
 12
3.061739412997602
 22
-1.807636110065855
 32
0.0
 13
3.061739412997602
 23
-1.807636110065855
 33
0.0
  0
SOLID
  5
109
330
D2
100
AcDbEntity
  8
ENGRAVE
 62
     7
100
AcDbTrace
 10
3.061739412997602
 20
-1.807636110065855
 30
0.0
 11
3.059109293758301
 21
-1.615003299180349
 31
0.0
 12
3.061739412997602
 22
-1.614365137696575
 32
0.0
 13
3.061739412997602
 23
-1.614365137696575
 33
0.0
  0
SOLID
  5
10A
330
D2
100
AcDbEntity
  8
ENGRAVE
 62
     7
100
AcDbTrace
 10
3.061739412997602
 20
-1.807636110065855
 30
0.0
 11
3.061739412997602
 21
-1.614365137696575
 31
0.0
 12
3.068860730351337
 22
-1.808822552214146
 32
0.0
 13
3.068860730351337
 23
-1.808822552214146
 33
0.0
  0
SOLID
  5
10B
330
D2
100
AcDbEntity
  8
ENGRAVE
 62
     7
100
AcDbTrace
 10
3.068860730351337
 20
-1.808822552214146
 30
0.0
 11
3.061739412997602
 21
-1.614365137696575
 31
0.0
 12
3.068860730351337
 22
-1.613377481865931
 32
0.0
 13
3.068860730351337
 23
-1.613377481865931
 33
0.0
  0
SOLID
  5
10C
330
D2
100
AcDbEntity
  8
ENGRAVE
 62
     7
100
AcDbTrace
 10
3.068860730351337
 20
-1.808822552214146
 30
0.0
 11
3.068860730351337
 21
-1.613377481865931
 31
0.0
 12
3.071531531773868
 22
-1.808993962203687
 32
0.0
 13
3.071531531773868
 23
-1.808993962203687
 33
0.0
  0
SOLID
  5
10D
330
D2
100
AcDbEntity
  8
ENGRAVE
 62
     7
100
AcDbTrace
 10
3.071531531773868
 20
-1.808993962203687
 30
0.0
 11
3.068860730351337
 21
-1.613377481865931
 31
0.0
 12
3.071531531773868
 22
-1.613007068294055
 32
0.0
 13
3.071531531773868
 23
-1.613007068294055
 33
0.0
  0
SOLID
  5
10E
330
D2
100
AcDbEntity
  8
ENGRAVE
 62
     7
100
AcDbTrace
 10
3.071531531773868
 20
-1.808993962203687
 30
0.0
 11
3.071531531773868
 21
-1.613007068294055
 31
0.0
 12
3.078916249202343
 22
-1.809467907711766
 32
0.0
 13
3.078916249202343
 23
-1.809467907711766
 33
0.0
  0
SOLID
  5
10F
330
D2
100
AcDbEntity
  8
ENGRAVE
 62
     7
100
AcDbTrace
 10
3.078916249202343
 20
-1.809467907711766
 30
0.0
 11
3.071531531773868
 21
-1.613007068294055
 31
0.0
 12
3.078916249202343
 22
-1.61273508243707
 32
0.0
 13
3.078916249202343
 23
-1.61273508243707
 33
0.0
  0
SOLID
  5
110
330
D2
100
AcDbEntity
  8
ENGRAVE
 62
     7
100
AcDbTrace
 10
3.078916249202343
 20
-1.809467907711766
 30
0.0
 11
3.078916249202343
 21
-1.61273508243707
 31
0.0
 12
3.081600911232297
 22
-1.809369029168343
 32
0.0
 13
3.081600911232297
 23
-1.809369029168343
 33
0.0
  0
SOLID
  5
111
330
D2
100
AcDbEntity
  8
ENGRAVE
 62
     7
100
AcDbTrace
 10
3.081600911232297
 20
-1.809369029168343
 30
0.0
 11
3.078916249202343
 21
-1.61273508243707
 31
0.0
 12
3.081600911232297
 22
-1.612636203893645
 32
0.0
 13
3.081600911232297
 23
-1.612636203893645
 33
0.0
  0
SOLID
  5
112
330
D2
100
AcDbEntity
  8
ENGRAVE
 62
     7
100
AcDbTrace
 10
3.081600911232297
 20
-1.809369029168343
 30
0.0
 11
3.081600911232297
 21
-1.612636203893645
 31
0.0
 12
3.088985628660754
 22
-1.809097043311364
 32
0.0
 13
3.088985628660754
 23
-1.809097043311364
 33
0.0
  0
SOLID
  5
113
330
D2
100
AcDbEntity
  8
ENGRAVE
 62
     7
100
AcDbTrace
 10
3.088985628660754
 20
-1.809097043311364
 30
0.0
 11
3.081600911232297
 21
-1.612636203893645
 31
0.0
 12
3.088985628660754
 22
-1.613110149401725
 32
0.0
 13
3.088985628660754
 23
-1.613110149401725
 33
0.0
  0
SOLID
  5
114
330
D2
100
AcDbEntity
  8
ENGRAVE
 62
     7
100
AcDbTrace
 10
3.088985628660754
 20
-1.809097043311364
 30
0.0
 11
3.088985628660754
 21
-1.613110149401725
 31
0.0
 12
3.091656430083285
 22
-1.80872662973949
 32
0.0
 13
3.091656430083285
 23
-1.80872662973949
 33
0.0
  0
SOLID
  5
115
330
D2
100
AcDbEntity
  8
ENGRAVE
 62
     7
100
AcDbTrace
 10
3.091656430083285
 20
-1.80872662973949
 30
0.0
 11
3.088985628660754
 21
-1.613110149401725
 31
0.0
 12
3.091656430083285
 22
-1.613281559391268
 32
0.0
 13
3.091656430083285
 23
-1.613281559391268
 33
0.0
  0
SOLID
  5
116
330
D2
100
AcDbEntity
  8
ENGRAVE
 62
     7
100
AcDbTrace
 10
3.091656430083285
 20
-1.80872662973949
 30
0.0
 11
3.091656430083285
 21
-1.613281559391268
 31
0.0
 12
3.098777747437006
 22
-1.807738973908851
 32
0.0
 13
3.098777747437006
 23
-1.807738973908851
 33
0.0
  0
SOLID
  5
117
330
D2
100
AcDbEntity
  8
ENGRAVE
 62
     7
100
AcDbTrace
 10
3.098777747437006
 20
-1.807738973908851
 30
0.0
 11
3.091656430083285
 21
-1.613281559391268
 31
0.0
 12
3.098777747437006
 22
-1.61446800153956
 32
0.0
 13
3.098777747437006
 23
-1.61446800153956
 33
0.0
  0
SOLID
  5
118
330
D2
100
AcDbEntity
  8
ENGRAVE
 62
     7
100
AcDbTrace
 10
3.098777747437006
 20
-1.807738973908851
 30
0.0
 11
3.098777747437006
 21
-1.61446800153956
 31
0.0
 12
3.101407866676307
 22
-1.807100812425078
 32
0.0
 13
3.101407866676307
 23
-1.807100812425078
 33
0.0
  0
SOLID
  5
119
330
D2
100
AcDbEntity
  8
ENGRAVE
 62
     7
100
AcDbTrace
 10
3.101407866676307
 20
-1.807100812425078
 30
0.0
 11
3.098777747437006
 21
-1.61446800153956
 31
0.0
 12
3.101407866676307
 22
-1.614906190734837
 32
0.0
 13
3.101407866676307
 23
-1.614906190734837
 33
0.0
  0
SOLID
  5
11A
330
D2
100
AcDbEntity
  8
ENGRAVE
 62
     7
100
AcDbTrace
 10
3.101407866676307
 20
-1.807100812425078
 30
0.0
 11
3.101407866676307
 21
-1.614906190734837
 31
0.0
 12
3.108242461590828
 22
-1.80544249398595
 32
0.0
 13
3.108242461590828
 23
-1.80544249398595
 33
0.0
  0
SOLID
  5
11B
330
D2
100
AcDbEntity
  8
ENGRAVE
 62
     7
100
AcDbTrace
 10
3.108242461590828
 20
-1.80544249398595
 30
0.0
 11
3.101407866676307
 21
-1.614906190734837
 31
0.0
 12
3.108242461590828
 22
-1.616763277095785
 32
0.0
 13
3.108242461590828
 23
-1.616763277095785
 33
0.0
  0
SOLID
  5
11C
330
D2
100
AcDbEntity
  8
ENGRAVE
 62
     7
100
AcDbTrace
 10
3.108242461590828
 20
-1.80544249398595
 30
0.0
 11
3.108242461590828
 21
-1.616763277095785
 31
0.0
 12
3.110806426529638
 22
-1.804543529588832
 32
0.0
 13
3.110806426529638
 23
-1.804543529588832
 33
0.0
  0
SOLID
  5
11D
330
D2
100
AcDbEntity
  8
ENGRAVE
 62
     7
100
AcDbTrace
 10
3.110806426529638
 20
-1.804543529588832
 30
0.0
 11
3.108242461590828
 21
-1.616763277095785
 31
0.0
 12
3.110806426529638
 22
-1.617459953984081
 32
0.0
 13
3.110806426529638
 23
-1.617459953984081
 33
0.0
  0
SOLID
  5
11E
330
D2
100
AcDbEntity
  8
ENGRAVE
 62
     7
100
AcDbTrace
 10
3.110806426529638
 20
-1.804543529588832
 30
0.0
 11
3.110806426529638
 21
-1.617459953984081
 31
0.0
 12
3.11732962718195
 22
-1.802256398024387
 32
0.0
 13
3.11732962718195
 23
-1.802256398024387
 33
0.0
  0
SOLID
  5
11F
330
D2
100
AcDbEntity
  8
ENGRAVE
 62
     7
100
AcDbTrace
 10
3.11732962718195
 20
-1.802256398024387
 30
0.0
 11
3.110806426529638
 21
-1.617459953984081
 31
0.0
 12
3.11732962718195
 22
-1.619948872751309
 32
0.0
 13
3.11732962718195
 23
-1.619948872751309
 33
0.0
  0
SOLID
  5
120
330
D2
100
AcDbEntity
  8
ENGRAVE
 62
     7
100
AcDbTrace
 10
3.11732962718195
 20
-1.802256398024387
 30
0.0
 11
3.11732962718195
 21
-1.619948872751309
 31
0.0
 12
3.119803315161554
 22
-1.80110605811814
 32
0.0
 13
3.119803315161554
 23
-1.80110605811814
 33
0.0
  0
SOLID
  5
121
330
D2
100
AcDbEntity
  8
ENGRAVE
 62
     7
100
AcDbTrace
 10
3.119803315161554
 20
-1.80110605811814
 30
0.0
 11
3.11732962718195
 21
-1.619948872751309
 31
0.0
 12
3.119803315161554
 22
-1.620892705198732
 32
0.0
 13
3.119803315161554
 23
-1.620892705198732
 33
0.0
  0
SOLID
  5
122
330
D2
100
AcDbEntity
  8
ENGRAVE
 62
     7
100
AcDbTrace
 10
3.119803315161554
 20
-1.80110605811814
 30
0.0
 11
3.119803315161554
 21
-1.620892705198732
 31
0.0
 12
3.1259891002701
 22
-1.798229480505887
 32
0.0
 13
3.1259891002701
 23
-1.798229480505887
 33
0.0
  0
SOLID
  5
123
330
D2
100
AcDbEntity
  8
ENGRAVE
 62
     7
100
AcDbTrace
 10
3.1259891002701
 20
-1.798229480505887
 30
0.0
 11
3.119803315161554
 21
-1.620892705198732
 31
0.0
 12
3.1259891002701
 22
-1.623977190087042
 32
0.0
 13
3.1259891002701
 23
-1.623977190087042
 33
0.0
  0
SOLID
  5
124
330
D2
100
AcDbEntity
  8
ENGRAVE
 62
     7
100
AcDbTrace
 10
3.1259891002701
 20
-1.798229480505887
 30
0.0
 11
3.1259891002701
 21
-1.623977190087042
 31
0.0
 12
3.12834973809033
 22
-1.796839076194961
 32
0.0
 13
3.12834973809033
 23
-1.796839076194961
 33
0.0
  0
SOLID
  5
125
330
D2
100
AcDbEntity
  8
ENGRAVE
 62
     7
100
AcDbTrace
 10
3.12834973809033
 20
-1.796839076194961
 30
0.0
 11
3.1259891002701
 21
-1.623977190087042
 31
0.0
 12
3.12834973809033
 22
-1.625154300438517
 32
0.0
 13
3.12834973809033
 23
-1.625154300438517
 33
0.0
  0
SOLID
  5
126
330
D2
100
AcDbEntity
  8
ENGRAVE
 62
     7
100
AcDbTrace
 10
3.12834973809033
 20
-1.796839076194961
 30
0.0
 11
3.12834973809033
 21
-1.625154300438517
 31
0.0
 12
3.13417073691501
 22
-1.793410535912173
 32
0.0
 13
3.13417073691501
 23
-1.793410535912173
 33
0.0
  0
SOLID
  5
127
330
D2
100
AcDbEntity
  8
ENGRAVE
 62
     7
100
AcDbTrace
 10
3.13417073691501
 20
-1.793410535912173
 30
0.0
 11
3.12834973809033
 21
-1.625154300438517
 31
0.0
 12
3.13417073691501
 22
-1.628800250457737
 32
0.0
 13
3.13417073691501
 23
-1.628800250457737
 33
0.0
  0
SOLID
  5
128
330
D2
100
AcDbEntity
  8
ENGRAVE
 62
     7
100
AcDbTrace
 10
3.13417073691501
 20
-1.793410535912173
 30
0.0
 11
3.13417073691501
 21
-1.628800250457737
 31
0.0
 12
3.13639690083424
 22
-1.791792705460476
 32
0.0
 13
3.13639690083424
 23
-1.791792705460476
 33
0.0
  0
SOLID
  5
129
330
D2
100
AcDbEntity
  8
ENGRAVE
 62
     7
100
AcDbTrace
 10
3.13639690083424
 20
-1.791792705460476
 30
0.0
 11
3.13417073691501
 21
-1.628800250457737
 31
0.0
 12
3.13639690083424
 22
-1.630194595763166
 32
0.0
 13
3.13639690083424
 23
-1.630194595763166
 33
0.0
  0
SOLID
  5
12A
330
D2
100
AcDbEntity
  8
ENGRAVE
 62
     7
100
AcDbTrace
 10
3.13639690083424
 20
-1.791792705460476
 30
0.0
 11
3.13639690083424
 21
-1.630194595763166
 31
0.0
 12
3.141824393176408
 22
-1.78784835872497
 32
0.0
 13
3.141824393176408
 23
-1.78784835872497
 33
0.0
  0
SOLID
  5
12B
330
D2
100
AcDbEntity
  8
ENGRAVE
 62
     7
100
AcDbTrace
 10
3.141824393176408
 20
-1.78784835872497
 30
0.0
 11
3.13639690083424
 21
-1.630194595763166
 31
0.0
 12
3.141824393176408
 22
-1.634369811915486
 32
0.0
 13
3.141824393176408
 23
-1.634369811915486
 33
0.0
  0
SOLID
  5
12C
330
D2
100
AcDbEntity
  8
ENGRAVE
 62
     7
100
AcDbTrace
 10
3.141824393176408
 20
-1.78784835872497
 30
0.0
 11
3.141824393176408
 21
-1.634369811915486
 31
0.0
 12
3.143896008911561
 22
-1.786016510205818
 32
0.0
 13
3.143896008911561
 23
-1.786016510205818
 33
0.0
  0
SOLID
  5
12D
330
D2
100
AcDbEntity
  8
ENGRAVE
 62
     7
100
AcDbTrace
 10
3.143896008911561
 20
-1.786016510205818
 30
0.0
 11
3.141824393176408
 21
-1.634369811915486
 31
0.0
 12
3.143896008911561
 22
-1.63596344723241
 32
0.0
 13
3.143896008911561
 23
-1.63596344723241
 33
0.0
  0
SOLID
  5
12E
330
D2
100
AcDbEntity
  8
ENGRAVE
 62
     7
100
AcDbTrace
 10
3.143896008911561
 20
-1.786016510205818
 30
0.0
 11
3.143896008911561
 21
-1.63596344723241
 31
0.0
 12
3.148899925114024
 22
-1.781591743426004
 32
0.0
 13
3.148899925114024
 23
-1.781591743426004
 33
0.0
  0
SOLID
  5
12F
330
D2
100
AcDbEntity
  8
ENGRAVE
 62
     7
100
AcDbTrace
 10
3.148899925114024
 20
-1.781591743426004
 30
0.0
 11
3.143896008911561
 21
-1.63596344723241
 31
0.0
 12
3.148899925114024
 22
-1.640637506477296
 32
0.0
 13
3.148899925114024
 23
-1.640637506477296
 33
0.0
  0
SOLID
  5
130
330
D2
100
AcDbEntity
  8
ENGRAVE
 62
     7
100
AcDbTrace
 10
3.148899925114024
 20
-1.781591743426004
 30
0.0
 11
3.148899925114024
 21
-1.640637506477296
 31
0.0
 12
3.150798267840567
 22
-1.77955943116176
 32
0.0
 13
3.150798267840567
 23
-1.77955943116176
 33
0.0
  0
SOLID
  5
131
330
D2
100
AcDbEntity
  8
ENGRAVE
 62
     7
100
AcDbTrace
 10
3.150798267840567
 20
-1.77955943116176
 30
0.0
 11
3.148899925114024
 21
-1.640637506477296
 31
0.0
 12
3.150798267840567
 22
-1.642410710905978
 32
0.0
 13
3.150798267840567
 23
-1.642410710905978
 33
0.0
  0
SOLID
  5
132
330
D2
100
AcDbEntity
  8
ENGRAVE
 62
     7
100
AcDbTrace
 10
3.150798267840567
 20
-1.77955943116176
 30
0.0
 11
3.150798267840567
 21
-1.642410710905978
 31
0.0
 12
3.155347188787588
 22
-1.774689484496998
 32
0.0
 13
3.155347188787588
 23
-1.774689484496998
 33
0.0
  0
SOLID
  5
133
330
D2
100
AcDbEntity
  8
ENGRAVE
 62
     7
100
AcDbTrace
 10
3.155347188787588
 20
-1.774689484496998
 30
0.0
 11
3.150798267840567
 21
-1.642410710905978
 31
0.0
 12
3.155347188787588
 22
-1.647555031581672
 32
0.0
 13
3.155347188787588
 23
-1.647555031581672
 33
0.0
  0
SOLID
  5
134
330
D2
100
AcDbEntity
  8
ENGRAVE
 62
     7
100
AcDbTrace
 10
3.155347188787588
 20
-1.774689484496998
 30
0.0
 11
3.155347188787588
 21
-1.647555031581672
 31
0.0
 12
3.157054883139536
 22
-1.772469599901846
 32
0.0
 13
3.157054883139536
 23
-1.772469599901846
 33
0.0
  0
SOLID
  5
135
330
D2
100
AcDbEntity
  8
ENGRAVE
 62
     7
100
AcDbTrace
 10
3.157054883139536
 20
-1.772469599901846
 30
0.0
 11
3.155347188787588
 21
-1.647555031581672
 31
0.0
 12
3.157054883139536
 22
-1.649486242843598
 32
0.0
 13
3.157054883139536
 23
-1.649486242843598
 33
0.0
  0
SOLID
  5
136
330
D2
100
AcDbEntity
  8
ENGRAVE
 62
     7
100
AcDbTrace
 10
3.157054883139536
 20
-1.772469599901846
 30
0.0
 11
3.157054883139536
 21
-1.649486242843598
 31
0.0
 12
3.161116040256828
 22
-1.767190376419677
 32
0.0
 13
3.161116040256828
 23
-1.767190376419677
 33
0.0
  0
SOLID
  5
137
330
D2
100
AcDbEntity
  8
ENGRAVE
 62
     7
100
AcDbTrace
 10
3.161116040256828
 20
-1.767190376419677
 30
0.0
 11
3.157054883139536
 21
-1.649486242843598
 31
0.0
 12
3.161116040256828
 22
-1.65507446838068
 32
0.0
 13
3.161116040256828
 23
-1.65507446838068
 33
0.0
  0
SOLID
  5
138
330
D2
100
AcDbEntity
  8
ENGRAVE
 62
     7
100
AcDbTrace
 10
3.161116040256828
 20
-1.767190376419677
 30
0.0
 11
3.161116040256828
 21
-1.65507446838068
 31
0.0
 12
3.16261706032674
 22
-1.764793899228075
 32
0.0
 13
3.16261706032674
 23
-1.764793899228075
 33
0.0
  0
SOLID
  5
139
330
D2
100
AcDbEntity
  8
ENGRAVE
 62
     7
100
AcDbTrace
 10
3.16261706032674
 20
-1.764793899228075
 30
0.0
 11
3.161116040256828
 21
-1.65507446838068
 31
0.0
 12
3.16261706032674
 22
-1.657139899105001
 32
0.0
 13
3.16261706032674
 23
-1.657139899105001
 33
0.0
  0
SOLID
  5
13A
330
D2
100
AcDbEntity
  8
ENGRAVE
 62
     7
100
AcDbTrace
 10
3.16261706032674
 20
-1.764793899228075
 30
0.0
 11
3.16261706032674
 21
-1.657139899105001
 31
0.0
 12
3.166156335581476
 22
-1.759143213675766
 32
0.0
 13
3.166156335581476
 23
-1.759143213675766
 33
0.0
  0
SOLID
  5
13B
330
D2
100
AcDbEntity
  8
ENGRAVE
 62
     7
100
AcDbTrace
 10
3.166156335581476
 20
-1.759143213675766
 30
0.0
 11
3.16261706032674
 21
-1.657139899105001
 31
0.0
 12
3.166156335581476
 22
-1.663148904512191
 32
0.0
 13
3.166156335581476
 23
-1.663148904512191
 33
0.0
  0
SOLID
  5
13C
330
D2
100
AcDbEntity
  8
ENGRAVE
 62
     7
100
AcDbTrace
 10
3.166156335581476
 20
-1.759143213675766
 30
0.0
 11
3.166156335581476
 21
-1.663148904512191
 31
0.0
 12
3.167436004920456
 22
-1.756576898771474
 32
0.0
 13
3.167436004920456
 23
-1.756576898771474
 33
0.0
  0
SOLID
  5
13D
330
D2
100
AcDbEntity
  8
ENGRAVE
 62
     7
100
AcDbTrace
 10
3.167436004920456
 20
-1.756576898771474
 30
0.0
 11
3.166156335581476
 21
-1.663148904512191
 31
0.0
 12
3.167436004920456
 22
-1.665321535749917
 32
0.0
 13
3.167436004920456
 23
-1.665321535749917
 33
0.0
  0
SOLID
  5
13E
330
D2
100
AcDbEntity
  8
ENGRAVE
 62
     7
100
AcDbTrace
 10
3.167436004920456
 20
-1.756576898771474
 30
0.0
 11
3.167436004920456
 21
-1.665321535749917
 31
0.0
 12
3.170417930821259
 22
-1.750596790746989
 32
0.0
 13
3.170417930821259
 23
-1.750596790746989
 33
0.0
  0
SOLID
  5
13F
330
D2
100
AcDbEntity
  8
ENGRAVE
 62
     7
100
AcDbTrace
 10
3.170417930821259
 20
-1.750596790746989
 30
0.0
 11
3.167436004920456
 21
-1.665321535749917
 31
0.0
 12
3.170417930821259
 22
-1.671733861547561
 32
0.0
 13
3.170417930821259
 23
-1.671733861547561
 33
0.0
  0
SOLID
  5
140
330
D2
100
AcDbEntity
  8
ENGRAVE
 62
     7
100
AcDbTrace
 10
3.170417930821259
 20
-1.750596790746989
 30
0.0
 11
3.170417930821259
 21
-1.671733861547561
 31
0.0
 12
3.171462922438959
 22
-1.747857974964008
 32
0.0
 13
3.171462922438959
 23
-1.747857974964008
 33
0.0
  0
SOLID
  5
141
330
D2
100
AcDbEntity
  8
ENGRAVE
 62
     7
100
AcDbTrace
 10
3.171462922438959
 20
-1.747857974964008
 30
0.0
 11
3.170417930821259
 21
-1.671733861547561
 31
0.0
 12
3.171462922438959
 22
-1.673981008838074
 32
0.0
 13
3.171462922438959
 23
-1.673981008838074
 33
0.0
  0
SOLID
  5
142
330
D2
100
AcDbEntity
  8
ENGRAVE
 62
     7
100
AcDbTrace
 10
3.171462922438959
 20
-1.747857974964008
 30
0.0
 11
3.171462922438959
 21
-1.673981008838074
 31
0.0
 12
3.173850682035909
 22
-1.741599902115071
 32
0.0
 13
3.173850682035909
 23
-1.741599902115071
 33
0.0
  0
SOLID
  5
143
330
D2
100
AcDbEntity
  8
ENGRAVE
 62
     7
100
AcDbTrace
 10
3.173850682035909
 20
-1.741599902115071
 30
0.0
 11
3.171462922438959
 21
-1.673981008838074
 31
0.0
 12
3.173850682035909
 22
-1.680791213901273
 32
0.0
 13
3.173850682035909
 23
-1.680791213901273
 33
0.0
  0
SOLID
  5
144
330
D2
100
AcDbEntity
  8
ENGRAVE
 62
     7
100
AcDbTrace
 10
3.173850682035909
 20
-1.741599902115071
 30
0.0
 11
3.173850682035909
 21
-1.680791213901273
 31
0.0
 12
3.174649018400525
 22
-1.738661801996293
 32
0.0
 13
3.174649018400525
 23
-1.738661801996293
 33
0.0
  0
SOLID
  5
145
330
D2
100
AcDbEntity
  8
ENGRAVE
 62
     7
100
AcDbTrace
 10
3.174649018400525
 20
-1.738661801996293
 30
0.0
 11
3.173850682035909
 21
-1.680791213901273
 31
0.0
 12
3.174649018400525
 22
-1.683068174429203
 32
0.0
 13
3.174649018400525
 23
-1.683068174429203
 33
0.0
  0
SOLID
  5
146
330
D2
100
AcDbEntity
  8
ENGRAVE
 62
     7
100
AcDbTrace
 10
3.174649018400525
 20
-1.738661801996293
 30
0.0
 11
3.174649018400525
 21
-1.683068174429203
 31
0.0
 12
3.176404445285154
 22
-1.732201342261736
 32
0.0
 13
3.176404445285154
 23
-1.732201342261736
 33
0.0
  0
SOLID
  5
147
330
D2
100
AcDbEntity
  8
ENGRAVE
 62
     7
100
AcDbTrace
 10
3.176404445285154
 20
-1.732201342261736
 30
0.0
 11
3.174649018400525
 21
-1.683068174429203
 31
0.0
 12
3.176404445285154
 22
-1.690302992167108
 32
0.0
 13
3.176404445285154
 23
-1.690302992167108
 33
0.0
  0
SOLID
  5
148
330
D2
100
AcDbEntity
  8
ENGRAVE
 62
     7
100
AcDbTrace
 10
3.176404445285154
 20
-1.732201342261736
 30
0.0
 11
3.176404445285154
 21
-1.690302992167108
 31
0.0
 12
3.176945498323428
 22
-1.728953808956981
 32
0.0
 13
3.176945498323428
 23
-1.728953808956981
 33
0.0
  0
SOLID
  5
149
330
D2
100
AcDbEntity
  8
ENGRAVE
 62
     7
100
AcDbTrace
 10
3.176945498323428
 20
-1.728953808956981
 30
0.0
 11
3.176404445285154
 21
-1.690302992167108
 31
0.0
 12
3.176945498323428
 22
-1.692532888583033
 32
0.0
 13
3.176945498323428
 23
-1.692532888583033
 33
0.0
  0
SOLID
  5
14A
330
D2
100
AcDbEntity
  8
ENGRAVE
 62
     7
100
AcDbTrace
 10
3.176945498323428
 20
-1.728953808956981
 30
0.0
 11
3.176945498323428
 21
-1.692532888583033
 31
0.0
 12
3.178029076628724
 22
-1.722449905668709
 32
0.0
 13
3.178029076628724
 23
-1.722449905668709
 33
0.0
  0
SOLID
  5
14B
330
D2
100
AcDbEntity
  8
ENGRAVE
 62
     7
100
AcDbTrace
 10
3.178029076628724
 20
-1.722449905668709
 30
0.0
 11
3.176945498323428
 21
-1.692532888583033
 31
0.0
 12
3.178029076628724
 22
-1.700345837942748
 32
0.0
 13
3.178029076628724
 23
-1.700345837942748
 33
0.0
  0
SOLID
  5
14C
330
D2
100
AcDbEntity
  8
ENGRAVE
 62
     7
100
AcDbTrace
 10
3.178029076628724
 20
-1.722449905668709
 30
0.0
 11
3.178029076628724
 21
-1.700345837942748
 31
0.0
 12
3.178303567725945
 22
-1.718172959996613
 32
0.0
 13
3.178303567725945
 23
-1.718172959996613
 33
0.0
  0
SOLID
  5
14D
330
D2
100
AcDbEntity
  8
ENGRAVE
 62
     7
100
AcDbTrace
 10
3.178303567725945
 20
-1.718172959996613
 30
0.0
 11
3.178029076628724
 21
-1.700345837942748
 31
0.0
 12
3.178303567725945
 22
-1.702325007359294
 32
0.0
 13
3.178303567725945
 23
-1.702325007359294
 33
0.0
  0
SOLID
  5
14E
330
D2
100
AcDbEntity
  8
ENGRAVE
 62
     7
100
AcDbTrace
 10
3.178303567725945
 20
-1.718172959996613
 30
0.0
 11
3.178303567725945
 21
-1.702325007359294
 31
0.0
 12
3.178674432126349
 22
-1.712394386817714
 32
0.0
 13
3.178674432126349
 23
-1.712394386817714
 33
0.0
  0
ENDBLK
  5
1CF
330
D2
100
AcDbEntity
  8
0
100
AcDbBlockEnd
  0
BLOCK
  5
1D0
330
14F
100
AcDbEntity
  8
0
100
AcDbBlockBegin
  2
*U3
 70
     1
 10
0.0
 20
0.0
 30
0.0
  3
*U3
  1

  0
SOLID
  5
150
330
14F
100
AcDbEntity
  8
ENGRAVE
 62
     7
100
AcDbTrace
 10
3.849536377443024
 20
-0.4175272066912032
 30
0.0
 11
3.849165513042622
 21
-0.407457827232785
 31
0.0
 12
3.849536377443024
 22
-0.401679254053854
 32
0.0
 13
3.849536377443024
 23
-0.401679254053854
 33
0.0
  0
SOLID
  5
151
330
14F
100
AcDbEntity
  8
ENGRAVE
 62
     7
100
AcDbTrace
 10
3.849536377443024
 20
-0.4175272066912032
 30
0.0
 11
3.849536377443024
 21
-0.401679254053854
 31
0.0
 12
3.84981086854024
 22
-0.4195063761077196
 32
0.0
 13
3.84981086854024
 23
-0.4195063761077196
 33
0.0
  0
SOLID
  5
152
330
14F
100
AcDbEntity
  8
ENGRAVE
 62
     7
100
AcDbTrace
 10
3.84981086854024
 20
-0.4195063761077196
 30
0.0
 11
3.849536377443024
 21
-0.401679254053854
 31
0.0
 12
3.84981086854024
 22
-0.3974023083817844
 32
0.0
 13
3.84981086854024
 23
-0.3974023083817844
 33
0.0
  0
SOLID
  5
153
330
14F
100
AcDbEntity
  8
ENGRAVE
 62
     7
100
AcDbTrace
 10
3.84981086854024
 20
-0.4195063761077196
 30
0.0
 11
3.84981086854024
 21
-0.3974023083817844
 31
0.0
 12
3.850894446845537
 22
-0.4273193254674614
 32
0.0
 13
3.850894446845537
 23
-0.4273193254674614
 33
0.0
  0
SOLID
  5
154
330
14F
100
AcDbEntity
  8
ENGRAVE
 62
     7
100
AcDbTrace
 10
3.850894446845537
 20
-0.4273193254674614
 30
0.0
 11
3.84981086854024
 21
-0.3974023083817844
 31
0.0
 12
3.850894446845537
 22
-0.3908984050934812
 32
0.0
 13
3.850894446845537
 23
-0.3908984050934812
 33
0.0
  0
SOLID
  5
155
330
14F
100
AcDbEntity
  8
ENGRAVE
 62
     7
100
AcDbTrace
 10
3.850894446845537
 20
-0.4273193254674614
 30
0.0
 11
3.850894446845537
 21
-0.3908984050934812
 31
0.0
 12
3.851435499883804
 22
-0.4295492218833607
 32
0.0
 13
3.851435499883804
 23
-0.4295492218833607
 33
0.0
  0
SOLID
  5
156
330
14F
100
AcDbEntity
  8
ENGRAVE
 62
     7
100
AcDbTrace
 10
3.851435499883804
 20
-0.4295492218833607
 30
0.0
 11
3.850894446845537
 21
-0.3908984050934812
 31
0.0
 12
3.851435499883804
 22
-0.387650871788753
 32
0.0
 13
3.851435499883804
 23
-0.387650871788753
 33
0.0
  0
SOLID
  5
157
330
14F
100
AcDbEntity
  8
ENGRAVE
 62
     7
100
AcDbTrace
 10
3.851435499883804
 20
-0.4295492218833607
 30
0.0
 11
3.851435499883804
 21
-0.387650871788753
 31
0.0
 12
3.853190926768437
 22
-0.4367840396212889
 32
0.0
 13
3.853190926768437
 23
-0.4367840396212889
 33
0.0
  0
SOLID
  5
158
330
14F
100
AcDbEntity
  8
ENGRAVE
 62
     7
100
AcDbTrace
 10
3.853190926768437
 20
-0.4367840396212889
 30
0.0
 11
3.851435499883804
 21
-0.387650871788753
 31
0.0
 12
3.853190926768437
 22
-0.3811904120541646
 32
0.0
 13
3.853190926768437
 23
-0.3811904120541646
 33
0.0
  0
SOLID
  5
159
330
14F
100
AcDbEntity
  8
ENGRAVE
 62
     7
100
AcDbTrace
 10
3.853190926768437
 20
-0.4367840396212889
 30
0.0
 11
3.853190926768437
 21
-0.3811904120541646
 31
0.0
 12
3.853989263133043
 22
-0.4390610001491937
 32
0.0
 13
3.853989263133043
 23
-0.4390610001491937
 33
0.0
  0
SOLID
  5
15A
330
14F
100
AcDbEntity
  8
ENGRAVE
 62
     7
100
AcDbTrace
 10
3.853989263133043
 20
-0.4390610001491937
 30
0.0
 11
3.853190926768437
 21
-0.3811904120541646
 31
0.0
 12
3.853989263133043
 22
-0.3782523119354154
 32
0.0
 13
3.853989263133043
 23
-0.3782523119354154
 33
0.0
  0
SOLID
  5
15B
330
14F
100
AcDbEntity
  8
ENGRAVE
 62
     7
100
AcDbTrace
 10
3.853989263133043
 20
-0.4390610001491937
 30
0.0
 11
3.853989263133043
 21
-0.3782523119354154
 31
0.0
 12
3.856377022729998
 22
-0.4458712052124155
 32
0.0
 13
3.856377022729998
 23
-0.4458712052124155
 33
0.0
  0
SOLID
  5
15C
330
14F
100
AcDbEntity
  8
ENGRAVE
 62
     7
100
AcDbTrace
 10
3.856377022729998
 20
-0.4458712052124155
 30
0.0
 11
3.853989263133043
 21
-0.3782523119354154
 31
0.0
 12
3.856377022729998
 22
-0.3719942390864531
 32
0.0
 13
3.856377022729998
 23
-0.3719942390864531
 33
0.0
  0
SOLID
  5
15D
330
14F
100
AcDbEntity
  8
ENGRAVE
 62
     7
100
AcDbTrace
 10
3.856377022729998
 20
-0.4458712052124155
 30
0.0
 11
3.856377022729998
 21
-0.3719942390864531
 31
0.0
 12
3.857422014347687
 22
-0.4481183525029055
 32
0.0
 13
3.857422014347687
 23
-0.4481183525029055
 33
0.0
  0
SOLID
  5
15E
330
14F
100
AcDbEntity
  8
ENGRAVE
 62
     7
100
AcDbTrace
 10
3.857422014347687
 20
-0.4481183525029055
 30
0.0
 11
3.856377022729998
 21
-0.3719942390864531
 31
0.0
 12
3.857422014347687
 22
-0.3692554233034955
 32
0.0
 13
3.857422014347687
 23
-0.3692554233034955
 33
0.0
  0
SOLID
  5
15F
330
14F
100
AcDbEntity
  8
ENGRAVE
 62
     7
100
AcDbTrace
 10
3.857422014347687
 20
-0.4481183525029055
 30
0.0
 11
3.857422014347687
 21
-0.3692554233034955
 31
0.0
 12
3.860403940248498
 22
-0.4545306783005706
 32
0.0
 13
3.860403940248498
 23
-0.4545306783005706
 33
0.0
  0
SOLID
  5
160
330
14F
100
AcDbEntity
  8
ENGRAVE
 62
     7
100
AcDbTrace
 10
3.860403940248498
 20
-0.4545306783005706
 30
0.0
 11
3.857422014347687
 21
-0.3692554233034955
 31
0.0
 12
3.860403940248498
 22
-0.363275315278989
 32
0.0
 13
3.860403940248498
 23
-0.363275315278989
 33
0.0
  0
SOLID
  5
161
330
14F
100
AcDbEntity
  8
ENGRAVE
 62
     7
100
AcDbTrace
 10
3.860403940248498
 20
-0.4545306783005706
 30
0.0
 11
3.860403940248498
 21
-0.363275315278989
 31
0.0
 12
3.861683609587467
 22
-0.4567033095382775
 32
0.0
 13
3.861683609587467
 23
-0.4567033095382775
 33
0.0
  0
SOLID
  5
162
330
14F
100
AcDbEntity
  8
ENGRAVE
 62
     7
100
AcDbTrace
 10
3.861683609587467
 20
-0.4567033095382775
 30
0.0
 11
3.860403940248498
 21
-0.363275315278989
 31
0.0
 12
3.861683609587467
 22
-0.3607090003747179
 32
0.0
 13
3.861683609587467
 23
-0.3607090003747179
 33
0.0
  0
SOLID
  5
163
330
14F
100
AcDbEntity
  8
ENGRAVE
 62
     7
100
AcDbTrace
 10
3.861683609587467
 20
-0.4567033095382775
 30
0.0
 11
3.861683609587467
 21
-0.3607090003747179
 31
0.0
 12
3.865222884842211
 22
-0.4627123149454839
 32
0.0
 13
3.865222884842211
 23
-0.4627123149454839
 33
0.0
  0
SOLID
  5
164
330
14F
100
AcDbEntity
  8
ENGRAVE
 62
     7
100
AcDbTrace
 10
3.865222884842211
 20
-0.4627123149454839
 30
0.0
 11
3.861683609587467
 21
-0.3607090003747179
 31
0.0
 12
3.865222884842211
 22
-0.3550583148223918
 32
0.0
 13
3.865222884842211
 23
-0.3550583148223918
 33
0.0
  0
SOLID
  5
165
330
14F
100
AcDbEntity
  8
ENGRAVE
 62
     7
100
AcDbTrace
 10
3.865222884842211
 20
-0.4627123149454839
 30
0.0
 11
3.865222884842211
 21
-0.3550583148223918
 31
0.0
 12
3.866723904912111
 22
-0.4647777456697896
 32
0.0
 13
3.866723904912111
 23
-0.4647777456697896
 33
0.0
  0
SOLID
  5
166
330
14F
100
AcDbEntity
  8
ENGRAVE
 62
     7
100
AcDbTrace
 10
3.866723904912111
 20
-0.4647777456697896
 30
0.0
 11
3.865222884842211
 21
-0.3550583148223918
 31
0.0
 12
3.866723904912111
 22
-0.3526618376308067
 32
0.0
 13
3.866723904912111
 23
-0.3526618376308067
 33
0.0
  0
SOLID
  5
167
330
14F
100
AcDbEntity
  8
ENGRAVE
 62
     7
100
AcDbTrace
 10
3.866723904912111
 20
-0.4647777456697896
 30
0.0
 11
3.866723904912111
 21
-0.3526618376308067
 31
0.0
 12
3.870785062029413
 22
-0.4703659712068848
 32
0.0
 13
3.870785062029413
 23
-0.4703659712068848
 33
0.0
  0
SOLID
  5
168
330
14F
100
AcDbEntity
  8
ENGRAVE
 62
     7
100
AcDbTrace
 10
3.870785062029413
 20
-0.4703659712068848
 30
0.0
 11
3.866723904912111
 21
-0.3526618376308067
 31
0.0
 12
3.870785062029413
 22
-0.3473826141486248
 32
0.0
 13
3.870785062029413
 23
-0.3473826141486248
 33
0.0
  0
SOLID
  5
169
330
14F
100
AcDbEntity
  8
ENGRAVE
 62
     7
100
AcDbTrace
 10
3.870785062029413
 20
-0.4703659712068848
 30
0.0
 11
3.870785062029413
 21
-0.3473826141486248
 31
0.0
 12
3.87249275638135
 22
-0.4722971824687974
 32
0.0
 13
3.87249275638135
 23
-0.4722971824687974
 33
0.0
  0
SOLID
  5
16A
330
14F
100
AcDbEntity
  8
ENGRAVE
 62
     7
100
AcDbTrace
 10
3.87249275638135
 20
-0.4722971824687974
 30
0.0
 11
3.870785062029413
 21
-0.3473826141486248
 31
0.0
 12
3.87249275638135
 22
-0.3451627295534864
 32
0.0
 13
3.87249275638135
 23
-0.3451627295534864
 33
0.0
  0
SOLID
  5
16B
330
14F
100
AcDbEntity
  8
ENGRAVE
 62
     7
100
AcDbTrace
 10
3.87249275638135
 20
-0.4722971824687974
 30
0.0
 11
3.87249275638135
 21
-0.3451627295534864
 31
0.0
 12
3.87704167732838
 22
-0.4774415031445029
 32
0.0
 13
3.87704167732838
 23
-0.4774415031445029
 33
0.0
  0
SOLID
  5
16C
330
14F
100
AcDbEntity
  8
ENGRAVE
 62
     7
100
AcDbTrace
 10
3.87704167732838
 20
-0.4774415031445029
 30
0.0
 11
3.87249275638135
 21
-0.3451627295534864
 31
0.0
 12
3.87704167732838
 22
-0.3402927828887142
 32
0.0
 13
3.87704167732838
 23
-0.3402927828887142
 33
0.0
  0
SOLID
  5
16D
330
14F
100
AcDbEntity
  8
ENGRAVE
 62
     7
100
AcDbTrace
 10
3.87704167732838
 20
-0.4774415031445029
 30
0.0
 11
3.87704167732838
 21
-0.3402927828887142
 31
0.0
 12
3.878940020054914
 22
-0.479214707573175
 32
0.0
 13
3.878940020054914
 23
-0.479214707573175
 33
0.0
  0
SOLID
  5
16E
330
14F
100
AcDbEntity
  8
ENGRAVE
 62
     7
100
AcDbTrace
 10
3.878940020054914
 20
-0.479214707573175
 30
0.0
 11
3.87704167732838
 21
-0.3402927828887142
 31
0.0
 12
3.878940020054914
 22
-0.338260470624481
 32
0.0
 13
3.878940020054914
 23
-0.338260470624481
 33
0.0
  0
SOLID
  5
16F
330
14F
100
AcDbEntity
  8
ENGRAVE
 62
     7
100
AcDbTrace
 10
3.878940020054914
 20
-0.479214707573175
 30
0.0
 11
3.878940020054914
 21
-0.338260470624481
 31
0.0
 12
3.883943936257387
 22
-0.4838887668180679
 32
0.0
 13
3.883943936257387
 23
-0.4838887668180679
 33
0.0
  0
SOLID
  5
170
330
14F
100
AcDbEntity
  8
ENGRAVE
 62
     7
100
AcDbTrace
 10
3.883943936257387
 20
-0.4838887668180679
 30
0.0
 11
3.878940020054914
 21
-0.338260470624481
 31
0.0
 12
3.883943936257387
 22
-0.3338357038446595
 32
0.0
 13
3.883943936257387
 23
-0.3338357038446595
 33
0.0
  0
SOLID
  5
171
330
14F
100
AcDbEntity
  8
ENGRAVE
 62
     7
100
AcDbTrace
 10
3.883943936257387
 20
-0.4838887668180679
 30
0.0
 11
3.883943936257387
 21
-0.3338357038446595
 31
0.0
 12
3.886015551992531
 22
-0.4854824021349839
 32
0.0
 13
3.886015551992531
 23
-0.4854824021349839
 33
0.0
  0
SOLID
  5
172
330
14F
100
AcDbEntity
  8
ENGRAVE
 62
     7
100
AcDbTrace
 10
3.886015551992531
 20
-0.4854824021349839
 30
0.0
 11
3.883943936257387
 21
-0.3338357038446595
 31
0.0
 12
3.886015551992531
 22
-0.332003855325515
 32
0.0
 13
3.886015551992531
 23
-0.332003855325515
 33
0.0
  0
SOLID
  5
173
330
14F
100
AcDbEntity
  8
ENGRAVE
 62
     7
100
AcDbTrace
 10
3.886015551992531
 20
-0.4854824021349839
 30
0.0
 11
3.886015551992531
 21
-0.332003855325515
 31
0.0
 12
3.891443044334709
 22
-0.4896576182873092
 32
0.0
 13
3.891443044334709
 23
-0.4896576182873092
 33
0.0
  0
SOLID
  5
174
330
14F
100
AcDbEntity
  8
ENGRAVE
 62
     7
100
AcDbTrace
 10
3.891443044334709
 20
-0.4896576182873092
 30
0.0
 11
3.886015551992531
 21
-0.332003855325515
 31
0.0
 12
3.891443044334709
 22
-0.3280595085900045
 32
0.0
 13
3.891443044334709
 23
-0.3280595085900045
 33
0.0
  0
SOLID
  5
175
330
14F
100
AcDbEntity
  8
ENGRAVE
 62
     7
100
AcDbTrace
 10
3.891443044334709
 20
-0.4896576182873092
 30
0.0
 11
3.891443044334709
 21
-0.3280595085900045
 31
0.0
 12
3.893669208253933
 22
-0.4910519635927332
 32
0.0
 13
3.893669208253933
 23
-0.4910519635927332
 33
0.0
  0
SOLID
  5
176
330
14F
100
AcDbEntity
  8
ENGRAVE
 62
     7
100
AcDbTrace
 10
3.893669208253933
 20
-0.4910519635927332
 30
0.0
 11
3.891443044334709
 21
-0.3280595085900045
 31
0.0
 12
3.893669208253933
 22
-0.3264416781383127
 32
0.0
 13
3.893669208253933
 23
-0.3264416781383127
 33
0.0
  0
SOLID
  5
177
330
14F
100
AcDbEntity
  8
ENGRAVE
 62
     7
100
AcDbTrace
 10
3.893669208253933
 20
-0.4910519635927332
 30
0.0
 11
3.893669208253933
 21
-0.3264416781383127
 31
0.0
 12
3.899490207078624
 22
-0.4946979136119565
 32
0.0
 13
3.899490207078624
 23
-0.4946979136119565
 33
0.0
  0
SOLID
  5
178
330
14F
100
AcDbEntity
  8
ENGRAVE
 62
     7
100
AcDbTrace
 10
3.899490207078624
 20
-0.4946979136119565
 30
0.0
 11
3.893669208253933
 21
-0.3264416781383127
 31
0.0
 12
3.899490207078624
 22
-0.3230131378555199
 32
0.0
 13
3.899490207078624
 23
-0.3230131378555199
 33
0.0
  0
SOLID
  5
179
330
14F
100
AcDbEntity
  8
ENGRAVE
 62
     7
100
AcDbTrace
 10
3.899490207078624
 20
-0.4946979136119565
 30
0.0
 11
3.899490207078624
 21
-0.3230131378555199
 31
0.0
 12
3.901850844898847
 22
-0.4958750239634273
 32
0.0
 13
3.901850844898847
 23
-0.4958750239634273
 33
0.0
  0
SOLID
  5
17A
330
14F
100
AcDbEntity
  8
ENGRAVE
 62
     7
100
AcDbTrace
 10
3.901850844898847
 20
-0.4958750239634273
 30
0.0
 11
3.899490207078624
 21
-0.3230131378555199
 31
0.0
 12
3.901850844898847
 22
-0.3216227335445982
 32
0.0
 13
3.901850844898847
 23
-0.3216227335445982
 33
0.0
  0
SOLID
  5
17B
330
14F
100
AcDbEntity
  8
ENGRAVE
 62
     7
100
AcDbTrace
 10
3.901850844898847
 20
-0.4958750239634273
 30
0.0
 11
3.901850844898847
 21
-0.3216227335445982
 31
0.0
 12
3.908036630007405
 22
-0.4989595088517392
 32
0.0
 13
3.908036630007405
 23
-0.4989595088517392
 33
0.0
  0
SOLID
  5
17C
330
14F
100
AcDbEntity
  8
ENGRAVE
 62
     7
100
AcDbTrace
 10
3.908036630007405
 20
-0.4989595088517392
 30
0.0
 11
3.901850844898847
 21
-0.3216227335445982
 31
0.0
 12
3.908036630007405
 22
-0.3187461559323407
 32
0.0
 13
3.908036630007405
 23
-0.3187461559323407
 33
0.0
  0
SOLID
  5
17D
330
14F
100
AcDbEntity
  8
ENGRAVE
 62
     7
100
AcDbTrace
 10
3.908036630007405
 20
-0.4989595088517392
 30
0.0
 11
3.908036630007405
 21
-0.3187461559323407
 31
0.0
 12
3.910510317987006
 22
-0.4999033412991591
 32
0.0
 13
3.910510317987006
 23
-0.4999033412991591
 33
0.0
  0
SOLID
  5
17E
330
14F
100
AcDbEntity
  8
ENGRAVE
 62
     7
100
AcDbTrace
 10
3.910510317987006
 20
-0.4999033412991591
 30
0.0
 11
3.908036630007405
 21
-0.3187461559323407
 31
0.0
 12
3.910510317987006
 22
-0.317595816026096
 32
0.0
 13
3.910510317987006
 23
-0.317595816026096
 33
0.0
  0
SOLID
  5
17F
330
14F
100
AcDbEntity
  8
ENGRAVE
 62
     7
100
AcDbTrace
 10
3.910510317987006
 20
-0.4999033412991591
 30
0.0
 11
3.910510317987006
 21
-0.317595816026096
 31
0.0
 12
3.917033518639329
 22
-0.5023922600663872
 32
0.0
 13
3.917033518639329
 23
-0.5023922600663872
 33
0.0
  0
SOLID
  5
180
330
14F
100
AcDbEntity
  8
ENGRAVE
 62
     7
100
AcDbTrace
 10
3.917033518639329
 20
-0.5023922600663872
 30
0.0
 11
3.910510317987006
 21
-0.317595816026096
 31
0.0
 12
3.917033518639329
 22
-0.3153086844616472
 32
0.0
 13
3.917033518639329
 23
-0.3153086844616472
 33
0.0
  0
SOLID
  5
181
330
14F
100
AcDbEntity
  8
ENGRAVE
 62
     7
100
AcDbTrace
 10
3.917033518639329
 20
-0.5023922600663872
 30
0.0
 11
3.917033518639329
 21
-0.3153086844616472
 31
0.0
 12
3.919597483578137
 22
-0.5030889369546815
 32
0.0
 13
3.919597483578137
 23
-0.5030889369546815
 33
0.0
  0
SOLID
  5
182
330
14F
100
AcDbEntity
  8
ENGRAVE
 62
     7
100
AcDbTrace
 10
3.919597483578137
 20
-0.5030889369546815
 30
0.0
 11
3.917033518639329
 21
-0.3153086844616472
 31
0.0
 12
3.919597483578137
 22
-0.3144097200645303
 32
0.0
 13
3.919597483578137
 23
-0.3144097200645303
 33
0.0
  0
SOLID
  5
183
330
14F
100
AcDbEntity
  8
ENGRAVE
 62
     7
100
AcDbTrace
 10
3.919597483578137
 20
-0.5030889369546815
 30
0.0
 11
3.919597483578137
 21
-0.3144097200645303
 31
0.0
 12
3.926432078492671
 22
-0.5049460233156295
 32
0.0
 13
3.926432078492671
 23
-0.5049460233156295
 33
0.0
  0
SOLID
  5
184
330
14F
100
AcDbEntity
  8
ENGRAVE
 62
     7
100
AcDbTrace
 10
3.926432078492671
 20
-0.5049460233156295
 30
0.0
 11
3.919597483578137
 21
-0.3144097200645303
 31
0.0
 12
3.926432078492671
 22
-0.3127514016253984
 32
0.0
 13
3.926432078492671
 23
-0.3127514016253984
 33
0.0
  0
SOLID
  5
185
330
14F
100
AcDbEntity
  8
ENGRAVE
 62
     7
100
AcDbTrace
 10
3.926432078492671
 20
-0.5049460233156295
 30
0.0
 11
3.926432078492671
 21
-0.3127514016253984
 31
0.0
 12
3.929062197731971
 22
-0.5053842125109052
 32
0.0
 13
3.929062197731971
 23
-0.5053842125109052
 33
0.0
  0
SOLID
  5
186
330
14F
100
AcDbEntity
  8
ENGRAVE
 62
     7
100
AcDbTrace
 10
3.929062197731971
 20
-0.5053842125109052
 30
0.0
 11
3.926432078492671
 21
-0.3127514016253984
 31
0.0
 12
3.929062197731971
 22
-0.3121132401416254
 32
0.0
 13
3.929062197731971
 23
-0.3121132401416254
 33
0.0
  0
SOLID
  5
187
330
14F
100
AcDbEntity
  8
ENGRAVE
 62
     7
100
AcDbTrace
 10
3.929062197731971
 20
-0.5053842125109052
 30
0.0
 11
3.929062197731971
 21
-0.3121132401416254
 31
0.0
 12
3.936183515085707
 22
-0.5065706546591962
 32
0.0
 13
3.936183515085707
 23
-0.5065706546591962
 33
0.0
  0
SOLID
  5
188
330
14F
100
AcDbEntity
  8
ENGRAVE
 62
     7
100
AcDbTrace
 10
3.936183515085707
 20
-0.5065706546591962
 30
0.0
 11
3.929062197731971
 21
-0.3121132401416254
 31
0.0
 12
3.936183515085707
 22
-0.311125584310981
 32
0.0
 13
3.936183515085707
 23
-0.311125584310981
 33
0.0
  0
SOLID
  5
189
330
14F
100
AcDbEntity
  8
ENGRAVE
 62
     7
100
AcDbTrace
 10
3.936183515085707
 20
-0.5065706546591962
 30
0.0
 11
3.936183515085707
 21
-0.311125584310981
 31
0.0
 12
3.938854316508237
 22
-0.5067420646487374
 32
0.0
 13
3.938854316508237
 23
-0.5067420646487374
 33
0.0
  0
SOLID
  5
18A
330
14F
100
AcDbEntity
  8
ENGRAVE
 62
     7
100
AcDbTrace
 10
3.938854316508237
 20
-0.5067420646487374
 30
0.0
 11
3.936183515085707
 21
-0.311125584310981
 31
0.0
 12
3.938854316508237
 22
-0.3107551707391056
 32
0.0
 13
3.938854316508237
 23
-0.3107551707391056
 33
0.0
  0
SOLID
  5
18B
330
14F
100
AcDbEntity
  8
ENGRAVE
 62
     7
100
AcDbTrace
 10
3.938854316508237
 20
-0.5067420646487374
 30
0.0
 11
3.938854316508237
 21
-0.3107551707391056
 31
0.0
 12
3.946239033936712
 22
-0.5072160101568165
 32
0.0
 13
3.946239033936712
 23
-0.5072160101568165
 33
0.0
  0
SOLID
  5
18C
330
14F
100
AcDbEntity
  8
ENGRAVE
 62
     7
100
AcDbTrace
 10
3.946239033936712
 20
-0.5072160101568165
 30
0.0
 11
3.938854316508237
 21
-0.3107551707391056
 31
0.0
 12
3.946239033936712
 22
-0.3104831848821202
 32
0.0
 13
3.946239033936712
 23
-0.3104831848821202
 33
0.0
  0
SOLID
  5
18D
330
14F
100
AcDbEntity
  8
ENGRAVE
 62
     7
100
AcDbTrace
 10
3.946239033936712
 20
-0.5072160101568165
 30
0.0
 11
3.946239033936712
 21
-0.3104831848821202
 31
0.0
 12
3.948923695966666
 22
-0.5071171316133934
 32
0.0
 13
3.948923695966666
 23
-0.5071171316133934
 33
0.0
  0
SOLID
  5
18E
330
14F
100
AcDbEntity
  8
ENGRAVE
 62
     7
100
AcDbTrace
 10
3.948923695966666
 20
-0.5071171316133934
 30
0.0
 11
3.946239033936712
 21
-0.3104831848821202
 31
0.0
 12
3.948923695966666
 22
-0.3103843063386951
 32
0.0
 13
3.948923695966666
 23
-0.3103843063386951
 33
0.0
  0
SOLID
  5
18F
330
14F
100
AcDbEntity
  8
ENGRAVE
 62
     7
100
AcDbTrace
 10
3.948923695966666
 20
-0.5071171316133934
 30
0.0
 11
3.948923695966666
 21
-0.3103843063386951
 31
0.0
 12
3.956308413395124
 22
-0.5068451457564144
 32
0.0
 13
3.956308413395124
 23
-0.5068451457564144
 33
0.0
  0
SOLID
  5
190
330
14F
100
AcDbEntity
  8
ENGRAVE
 62
     7
100
AcDbTrace
 10
3.956308413395124
 20
-0.5068451457564144
 30
0.0
 11
3.948923695966666
 21
-0.3103843063386951
 31
0.0
 12
3.956308413395124
 22
-0.3108582518467756
 32
0.0
 13
3.956308413395124
 23
-0.3108582518467756
 33
0.0
  0
SOLID
  5
191
330
14F
100
AcDbEntity
  8
ENGRAVE
 62
     7
100
AcDbTrace
 10
3.956308413395124
 20
-0.5068451457564144
 30
0.0
 11
3.956308413395124
 21
-0.3108582518467756
 31
0.0
 12
3.958979214817657
 22
-0.5064747321845398
 32
0.0
 13
3.958979214817657
 23
-0.5064747321845398
 33
0.0
  0
SOLID
  5
192
330
14F
100
AcDbEntity
  8
ENGRAVE
 62
     7
100
AcDbTrace
 10
3.958979214817657
 20
-0.5064747321845398
 30
0.0
 11
3.956308413395124
 21
-0.3108582518467756
 31
0.0
 12
3.958979214817657
 22
-0.3110296618363178
 32
0.0
 13
3.958979214817657
 23
-0.3110296618363178
 33
0.0
  0
SOLID
  5
193
330
14F
100
AcDbEntity
  8
ENGRAVE
 62
     7
100
AcDbTrace
 10
3.958979214817657
 20
-0.5064747321845398
 30
0.0
 11
3.958979214817657
 21
-0.3110296618363178
 31
0.0
 12
3.966100532171376
 22
-0.5054870763539008
 32
0.0
 13
3.966100532171376
 23
-0.5054870763539008
 33
0.0
  0
SOLID
  5
194
330
14F
100
AcDbEntity
  8
ENGRAVE
 62
     7
100
AcDbTrace
 10
3.966100532171376
 20
-0.5054870763539008
 30
0.0
 11
3.958979214817657
 21
-0.3110296618363178
 31
0.0
 12
3.966100532171376
 22
-0.3122161039846091
 32
0.0
 13
3.966100532171376
 23
-0.3122161039846091
 33
0.0
  0
SOLID
  5
195
330
14F
100
AcDbEntity
  8
ENGRAVE
 62
     7
100
AcDbTrace
 10
3.966100532171376
 20
-0.5054870763539008
 30
0.0
 11
3.966100532171376
 21
-0.3122161039846091
 31
0.0
 12
3.968730651410681
 22
-0.504848914870127
 32
0.0
 13
3.968730651410681
 23
-0.504848914870127
 33
0.0
  0
SOLID
  5
196
330
14F
100
AcDbEntity
  8
ENGRAVE
 62
     7
100
AcDbTrace
 10
3.968730651410681
 20
-0.504848914870127
 30
0.0
 11
3.966100532171376
 21
-0.3122161039846091
 31
0.0
 12
3.968730651410681
 22
-0.3126542931798868
 32
0.0
 13
3.968730651410681
 23
-0.3126542931798868
 33
0.0
  0
SOLID
  5
197
330
14F
100
AcDbEntity
  8
ENGRAVE
 62
     7
100
AcDbTrace
 10
3.968730651410681
 20
-0.504848914870127
 30
0.0
 11
3.968730651410681
 21
-0.3126542931798868
 31
0.0
 12
3.975565246325198
 22
-0.5031905964310003
 32
0.0
 13
3.975565246325198
 23
-0.5031905964310003
 33
0.0
  0
SOLID
  5
198
330
14F
100
AcDbEntity
  8
ENGRAVE
 62
     7
100
AcDbTrace
 10
3.975565246325198
 20
-0.5031905964310003
 30
0.0
 11
3.968730651410681
 21
-0.3126542931798868
 31
0.0
 12
3.975565246325198
 22
-0.314511379540834
 32
0.0
 13
3.975565246325198
 23
-0.314511379540834
 33
0.0
  0
SOLID
  5
199
330
14F
100
AcDbEntity
  8
ENGRAVE
 62
     7
100
AcDbTrace
 10
3.975565246325198
 20
-0.5031905964310003
 30
0.0
 11
3.975565246325198
 21
-0.314511379540834
 31
0.0
 12
3.978129211264013
 22
-0.5022916320338808
 32
0.0
 13
3.978129211264013
 23
-0.5022916320338808
 33
0.0
  0
SOLID
  5
19A
330
14F
100
AcDbEntity
  8
ENGRAVE
 62
     7
100
AcDbTrace
 10
3.978129211264013
 20
-0.5022916320338808
 30
0.0
 11
3.975565246325198
 21
-0.314511379540834
 31
0.0
 12
3.978129211264013
 22
-0.3152080564291316
 32
0.0
 13
3.978129211264013
 23
-0.3152080564291316
 33
0.0
  0
SOLID
  5
19B
330
14F
100
AcDbEntity
  8
ENGRAVE
 62
     7
100
AcDbTrace
 10
3.978129211264013
 20
-0.5022916320338808
 30
0.0
 11
3.978129211264013
 21
-0.3152080564291316
 31
0.0
 12
3.984652411916319
 22
-0.5000045004694375
 32
0.0
 13
3.984652411916319
 23
-0.5000045004694375
 33
0.0
  0
SOLID
  5
19C
330
14F
100
AcDbEntity
  8
ENGRAVE
 62
     7
100
AcDbTrace
 10
3.984652411916319
 20
-0.5000045004694375
 30
0.0
 11
3.978129211264013
 21
-0.3152080564291316
 31
0.0
 12
3.984652411916319
 22
-0.3176969751963566
 32
0.0
 13
3.984652411916319
 23
-0.3176969751963566
 33
0.0
  0
SOLID
  5
19D
330
14F
100
AcDbEntity
  8
ENGRAVE
 62
     7
100
AcDbTrace
 10
3.984652411916319
 20
-0.5000045004694375
 30
0.0
 11
3.984652411916319
 21
-0.3176969751963566
 31
0.0
 12
3.98712609989593
 22
-0.4988541605631873
 32
0.0
 13
3.98712609989593
 23
-0.4988541605631873
 33
0.0
  0
SOLID
  5
19E
330
14F
100
AcDbEntity
  8
ENGRAVE
 62
     7
100
AcDbTrace
 10
3.98712609989593
 20
-0.4988541605631873
 30
0.0
 11
3.984652411916319
 21
-0.3176969751963566
 31
0.0
 12
3.98712609989593
 22
-0.3186408076437818
 32
0.0
 13
3.98712609989593
 23
-0.3186408076437818
 33
0.0
  0
SOLID
  5
19F
330
14F
100
AcDbEntity
  8
ENGRAVE
 62
     7
100
AcDbTrace
 10
3.98712609989593
 20
-0.4988541605631873
 30
0.0
 11
3.98712609989593
 21
-0.3186408076437818
 31
0.0
 12
3.99331188500447
 22
-0.495977582950937
 32
0.0
 13
3.99331188500447
 23
-0.495977582950937
 33
0.0
  0
SOLID
  5
1A0
330
14F
100
AcDbEntity
  8
ENGRAVE
 62
     7
100
AcDbTrace
 10
3.99331188500447
 20
-0.495977582950937
 30
0.0
 11
3.98712609989593
 21
-0.3186408076437818
 31
0.0
 12
3.99331188500447
 22
-0.3217252925320881
 32
0.0
 13
3.99331188500447
 23
-0.3217252925320881
 33
0.0
  0
SOLID
  5
1A1
330
14F
100
AcDbEntity
  8
ENGRAVE
 62
     7
100
AcDbTrace
 10
3.99331188500447
 20
-0.495977582950937
 30
0.0
 11
3.99331188500447
 21
-0.3217252925320881
 31
0.0
 12
3.995672522824707
 22
-0.4945871786400067
 32
0.0
 13
3.995672522824707
 23
-0.4945871786400067
 33
0.0
  0
SOLID
  5
1A2
330
14F
100
AcDbEntity
  8
ENGRAVE
 62
     7
100
AcDbTrace
 10
3.995672522824707
 20
-0.4945871786400067
 30
0.0
 11
3.99331188500447
 21
-0.3217252925320881
 31
0.0
 12
3.995672522824707
 22
-0.3229024028835669
 32
0.0
 13
3.995672522824707
 23
-0.3229024028835669
 33
0.0
  0
SOLID
  5
1A3
330
14F
100
AcDbEntity
  8
ENGRAVE
 62
     7
100
AcDbTrace
 10
3.995672522824707
 20
-0.4945871786400067
 30
0.0
 11
3.995672522824707
 21
-0.3229024028835669
 31
0.0
 12
4.00149352164938
 22
-0.4911586383572232
 32
0.0
 13
4.00149352164938
 23
-0.4911586383572232
 33
0.0
  0
SOLID
  5
1A4
330
14F
100
AcDbEntity
  8
ENGRAVE
 62
     7
100
AcDbTrace
 10
4.00149352164938
 20
-0.4911586383572232
 30
0.0
 11
3.995672522824707
 21
-0.3229024028835669
 31
0.0
 12
4.00149352164938
 22
-0.3265483529027815
 32
0.0
 13
4.00149352164938
 23
-0.3265483529027815
 33
0.0
  0
SOLID
  5
1A5
330
14F
100
AcDbEntity
  8
ENGRAVE
 62
     7
100
AcDbTrace
 10
4.00149352164938
 20
-0.4911586383572232
 30
0.0
 11
4.00149352164938
 21
-0.3265483529027815
 31
0.0
 12
4.003719685568619
 22
-0.4895408079055189
 32
0.0
 13
4.003719685568619
 23
-0.4895408079055189
 33
0.0
  0
SOLID
  5
1A6
330
14F
100
AcDbEntity
  8
ENGRAVE
 62
     7
100
AcDbTrace
 10
4.003719685568619
 20
-0.4895408079055189
 30
0.0
 11
4.00149352164938
 21
-0.3265483529027815
 31
0.0
 12
4.003719685568619
 22
-0.3279426982082166
 32
0.0
 13
4.003719685568619
 23
-0.3279426982082166
 33
0.0
  0
SOLID
  5
1A7
330
14F
100
AcDbEntity
  8
ENGRAVE
 62
     7
100
AcDbTrace
 10
4.003719685568619
 20
-0.4895408079055189
 30
0.0
 11
4.003719685568619
 21
-0.3279426982082166
 31
0.0
 12
4.009147177910777
 22
-0.4855964611700208
 32
0.0
 13
4.009147177910777
 23
-0.4855964611700208
 33
0.0
  0
SOLID
  5
1A8
330
14F
100
AcDbEntity
  8
ENGRAVE
 62
     7
100
AcDbTrace
 10
4.009147177910777
 20
-0.4855964611700208
 30
0.0
 11
4.003719685568619
 21
-0.3279426982082166
 31
0.0
 12
4.009147177910777
 22
-0.3321179143605294
 32
0.0
 13
4.009147177910777
 23
-0.3321179143605294
 33
0.0
  0
SOLID
  5
1A9
330
14F
100
AcDbEntity
  8
ENGRAVE
 62
     7
100
AcDbTrace
 10
4.009147177910777
 20
-0.4855964611700208
 30
0.0
 11
4.009147177910777
 21
-0.3321179143605294
 31
0.0
 12
4.01121879364594
 22
-0.4837646126508603
 32
0.0
 13
4.01121879364594
 23
-0.4837646126508603
 33
0.0
  0
SOLID
  5
1AA
330
14F
100
AcDbEntity
  8
ENGRAVE
 62
     7
100
AcDbTrace
 10
4.01121879364594
 20
-0.4837646126508603
 30
0.0
 11
4.009147177910777
 21
-0.3321179143605294
 31
0.0
 12
4.01121879364594
 22
-0.3337115496774603
 32
0.0
 13
4.01121879364594
 23
-0.3337115496774603
 33
0.0
  0
SOLID
  5
1AB
330
14F
100
AcDbEntity
  8
ENGRAVE
 62
     7
100
AcDbTrace
 10
4.01121879364594
 20
-0.4837646126508603
 30
0.0
 11
4.01121879364594
 21
-0.3337115496774603
 31
0.0
 12
4.016222709848394
 22
-0.4793398458710543
 32
0.0
 13
4.016222709848394
 23
-0.4793398458710543
 33
0.0
  0
SOLID
  5
1AC
330
14F
100
AcDbEntity
  8
ENGRAVE
 62
     7
100
AcDbTrace
 10
4.016222709848394
 20
-0.4793398458710543
 30
0.0
 11
4.01121879364594
 21
-0.3337115496774603
 31
0.0
 12
4.016222709848394
 22
-0.3383856089223372
 32
0.0
 13
4.016222709848394
 23
-0.3383856089223372
 33
0.0
  0
SOLID
  5
1AD
330
14F
100
AcDbEntity
  8
ENGRAVE
 62
     7
100
AcDbTrace
 10
4.016222709848394
 20
-0.4793398458710543
 30
0.0
 11
4.016222709848394
 21
-0.3383856089223372
 31
0.0
 12
4.018121052574947
 22
-0.4773075336068001
 32
0.0
 13
4.018121052574947
 23
-0.4773075336068001
 33
0.0
  0
SOLID
  5
1AE
330
14F
100
AcDbEntity
  8
ENGRAVE
 62
     7
100
AcDbTrace
 10
4.018121052574947
 20
-0.4773075336068001
 30
0.0
 11
4.016222709848394
 21
-0.3383856089223372
 31
0.0
 12
4.018121052574947
 22
-0.3401588133510276
 32
0.0
 13
4.018121052574947
 23
-0.3401588133510276
 33
0.0
  0
SOLID
  5
1AF
330
14F
100
AcDbEntity
  8
ENGRAVE
 62
     7
100
AcDbTrace
 10
4.018121052574947
 20
-0.4773075336068001
 30
0.0
 11
4.018121052574947
 21
-0.3401588133510276
 31
0.0
 12
4.022669973521957
 22
-0.4724375869420483
 32
0.0
 13
4.022669973521957
 23
-0.4724375869420483
 33
0.0
  0
SOLID
  5
1B0
330
14F
100
AcDbEntity
  8
ENGRAVE
 62
     7
100
AcDbTrace
 10
4.022669973521957
 20
-0.4724375869420483
 30
0.0
 11
4.018121052574947
 21
-0.3401588133510276
 31
0.0
 12
4.022669973521957
 22
-0.3453031340267115
 32
0.0
 13
4.022669973521957
 23
-0.3453031340267115
 33
0.0
  0
SOLID
  5
1B1
330
14F
100
AcDbEntity
  8
ENGRAVE
 62
     7
100
AcDbTrace
 10
4.022669973521957
 20
-0.4724375869420483
 30
0.0
 11
4.022669973521957
 21
-0.3453031340267115
 31
0.0
 12
4.024377667873915
 22
-0.4702177023468837
 32
0.0
 13
4.024377667873915
 23
-0.4702177023468837
 33
0.0
  0
SOLID
  5
1B2
330
14F
100
AcDbEntity
  8
ENGRAVE
 62
     7
100
AcDbTrace
 10
4.024377667873915
 20
-0.4702177023468837
 30
0.0
 11
4.022669973521957
 21
-0.3453031340267115
 31
0.0
 12
4.024377667873915
 22
-0.3472343452886482
 32
0.0
 13
4.024377667873915
 23
-0.3472343452886482
 33
0.0
  0
SOLID
  5
1B3
330
14F
100
AcDbEntity
  8
ENGRAVE
 62
     7
100
AcDbTrace
 10
4.024377667873915
 20
-0.4702177023468837
 30
0.0
 11
4.024377667873915
 21
-0.3472343452886482
 31
0.0
 12
4.028438824991198
 22
-0.4649384788647274
 32
0.0
 13
4.028438824991198
 23
-0.4649384788647274
 33
0.0
  0
SOLID
  5
1B4
330
14F
100
AcDbEntity
  8
ENGRAVE
 62
     7
100
AcDbTrace
 10
4.028438824991198
 20
-0.4649384788647274
 30
0.0
 11
4.024377667873915
 21
-0.3472343452886482
 31
0.0
 12
4.028438824991198
 22
-0.3528225708257182
 32
0.0
 13
4.028438824991198
 23
-0.3528225708257182
 33
0.0
  0
SOLID
  5
1B5
330
14F
100
AcDbEntity
  8
ENGRAVE
 62
     7
100
AcDbTrace
 10
4.028438824991198
 20
-0.4649384788647274
 30
0.0
 11
4.028438824991198
 21
-0.3528225708257182
 31
0.0
 12
4.029939845061119
 22
-0.4625420016731119
 32
0.0
 13
4.029939845061119
 23
-0.4625420016731119
 33
0.0
  0
SOLID
  5
1B6
330
14F
100
AcDbEntity
  8
ENGRAVE
 62
     7
100
AcDbTrace
 10
4.029939845061119
 20
-0.4625420016731119
 30
0.0
 11
4.028438824991198
 21
-0.3528225708257182
 31
0.0
 12
4.029939845061119
 22
-0.3548880015500515
 32
0.0
 13
4.029939845061119
 23
-0.3548880015500515
 33
0.0
  0
SOLID
  5
1B7
330
14F
100
AcDbEntity
  8
ENGRAVE
 62
     7
100
AcDbTrace
 10
4.029939845061119
 20
-0.4625420016731119
 30
0.0
 11
4.029939845061119
 21
-0.3548880015500515
 31
0.0
 12
4.033479120315846
 22
-0.4568913161208162
 32
0.0
 13
4.033479120315846
 23
-0.4568913161208162
 33
0.0
  0
SOLID
  5
1B8
330
14F
100
AcDbEntity
  8
ENGRAVE
 62
     7
100
AcDbTrace
 10
4.033479120315846
 20
-0.4568913161208162
 30
0.0
 11
4.029939845061119
 21
-0.3548880015500515
 31
0.0
 12
4.033479120315846
 22
-0.3608970069572281
 32
0.0
 13
4.033479120315846
 23
-0.3608970069572281
 33
0.0
  0
SOLID
  5
1B9
330
14F
100
AcDbEntity
  8
ENGRAVE
 62
     7
100
AcDbTrace
 10
4.033479120315846
 20
-0.4568913161208162
 30
0.0
 11
4.033479120315846
 21
-0.3608970069572281
 31
0.0
 12
4.034758789654834
 22
-0.4543250012165085
 32
0.0
 13
4.034758789654834
 23
-0.4543250012165085
 33
0.0
  0
SOLID
  5
1BA
330
14F
100
AcDbEntity
  8
ENGRAVE
 62
     7
100
AcDbTrace
 10
4.034758789654834
 20
-0.4543250012165085
 30
0.0
 11
4.033479120315846
 21
-0.3608970069572281
 31
0.0
 12
4.034758789654834
 22
-0.3630696381949671
 32
0.0
 13
4.034758789654834
 23
-0.3630696381949671
 33
0.0
  0
SOLID
  5
1BB
330
14F
100
AcDbEntity
  8
ENGRAVE
 62
     7
100
AcDbTrace
 10
4.034758789654834
 20
-0.4543250012165085
 30
0.0
 11
4.034758789654834
 21
-0.3630696381949671
 31
0.0
 12
4.037740715555628
 22
-0.4483448931920392
 32
0.0
 13
4.037740715555628
 23
-0.4483448931920392
 33
0.0
  0
SOLID
  5
1BC
330
14F
100
AcDbEntity
  8
ENGRAVE
 62
     7
100
AcDbTrace
 10
4.037740715555628
 20
-0.4483448931920392
 30
0.0
 11
4.034758789654834
 21
-0.3630696381949671
 31
0.0
 12
4.037740715555628
 22
-0.3694819639925951
 32
0.0
 13
4.037740715555628
 23
-0.3694819639925951
 33
0.0
  0
SOLID
  5
1BD
330
14F
100
AcDbEntity
  8
ENGRAVE
 62
     7
100
AcDbTrace
 10
4.037740715555628
 20
-0.4483448931920392
 30
0.0
 11
4.037740715555628
 21
-0.3694819639925951
 31
0.0
 12
4.038785707173336
 22
-0.4456060774090375
 32
0.0
 13
4.038785707173336
 23
-0.4456060774090375
 33
0.0
  0
SOLID
  5
1BE
330
14F
100
AcDbEntity
  8
ENGRAVE
 62
     7
100
AcDbTrace
 10
4.038785707173336
 20
-0.4456060774090375
 30
0.0
 11
4.037740715555628
 21
-0.3694819639925951
 31
0.0
 12
4.038785707173336
 22
-0.3717291112831245
 32
0.0
 13
4.038785707173336
 23
-0.3717291112831245
 33
0.0
  0
SOLID
  5
1BF
330
14F
100
AcDbEntity
  8
ENGRAVE
 62
     7
100
AcDbTrace
 10
4.038785707173336
 20
-0.4456060774090375
 30
0.0
 11
4.038785707173336
 21
-0.3717291112831245
 31
0.0
 12
4.041173466770278
 22
-0.4393480045601209
 32
0.0
 13
4.041173466770278
 23
-0.4393480045601209
 33
0.0
  0
SOLID
  5
1C0
330
14F
100
AcDbEntity
  8
ENGRAVE
 62
     7
100
AcDbTrace
 10
4.041173466770278
 20
-0.4393480045601209
 30
0.0
 11
4.038785707173336
 21
-0.3717291112831245
 31
0.0
 12
4.041173466770278
 22
-0.3785393163463044
 32
0.0
 13
4.041173466770278
 23
-0.3785393163463044
 33
0.0
  0
SOLID
  5
1C1
330
14F
100
AcDbEntity
  8
ENGRAVE
 62
     7
100
AcDbTrace
 10
4.041173466770278
 20
-0.4393480045601209
 30
0.0
 11
4.041173466770278
 21
-0.3785393163463044
 31
0.0
 12
4.0419718031349
 22
-0.4364099044413219
 32
0.0
 13
4.0419718031349
 23
-0.4364099044413219
 33
0.0
  0
SOLID
  5
1C2
330
14F
100
AcDbEntity
  8
ENGRAVE
 62
     7
100
AcDbTrace
 10
4.0419718031349
 20
-0.4364099044413219
 30
0.0
 11
4.041173466770278
 21
-0.3785393163463044
 31
0.0
 12
4.0419718031349
 22
-0.3808162768742535
 32
0.0
 13
4.0419718031349
 23
-0.3808162768742535
 33
0.0
  0
SOLID
  5
1C3
330
14F
100
AcDbEntity
  8
ENGRAVE
 62
     7
100
AcDbTrace
 10
4.0419718031349
 20
-0.4364099044413219
 30
0.0
 11
4.0419718031349
 21
-0.3808162768742535
 31
0.0
 12
4.043727230019524
 22
-0.429949444706786
 32
0.0
 13
4.043727230019524
 23
-0.429949444706786
 33
0.0
  0
SOLID
  5
1C4
330
14F
100
AcDbEntity
  8
ENGRAVE
 62
     7
100
AcDbTrace
 10
4.043727230019524
 20
-0.429949444706786
 30
0.0
 11
4.0419718031349
 21
-0.3808162768742535
 31
0.0
 12
4.043727230019524
 22
-0.3880510946121413
 32
0.0
 13
4.043727230019524
 23
-0.3880510946121413
 33
0.0
  0
SOLID
  5
1C5
330
14F
100
AcDbEntity
  8
ENGRAVE
 62
     7
100
AcDbTrace
 10
4.043727230019524
 20
-0.429949444706786
 30
0.0
 11
4.043727230019524
 21
-0.3880510946121413
 31
0.0
 12
4.044268283057802
 22
-0.4267019114020068
 32
0.0
 13
4.044268283057802
 23
-0.4267019114020068
 33
0.0
  0
SOLID
  5
1C6
330
14F
100
AcDbEntity
  8
ENGRAVE
 62
     7
100
AcDbTrace
 10
4.044268283057802
 20
-0.4267019114020068
 30
0.0
 11
4.043727230019524
 21
-0.3880510946121413
 31
0.0
 12
4.044268283057802
 22
-0.3902809910280833
 32
0.0
 13
4.044268283057802
 23
-0.3902809910280833
 33
0.0
  0
SOLID
  5
1C7
330
14F
100
AcDbEntity
  8
ENGRAVE
 62
     7
100
AcDbTrace
 10
4.044268283057802
 20
-0.4267019114020068
 30
0.0
 11
4.044268283057802
 21
-0.3902809910280833
 31
0.0
 12
4.045351861363094
 22
-0.420198008113759
 32
0.0
 13
4.045351861363094
 23
-0.420198008113759
 33
0.0
  0
SOLID
  5
1C8
330
14F
100
AcDbEntity
  8
ENGRAVE
 62
     7
100
AcDbTrace
 10
4.045351861363094
 20
-0.420198008113759
 30
0.0
 11
4.044268283057802
 21
-0.3902809910280833
 31
0.0
 12
4.045351861363094
 22
-0.3980939403877791
 32
0.0
 13
4.045351861363094
 23
-0.3980939403877791
 33
0.0
  0
SOLID
  5
1C9
330
14F
100
AcDbEntity
  8
ENGRAVE
 62
     7
100
AcDbTrace
 10
4.045351861363094
 20
-0.420198008113759
 30
0.0
 11
4.045351861363094
 21
-0.3980939403877791
 31
0.0
 12
4.045626352460316
 22
-0.4159210624416284
 32
0.0
 13
4.045626352460316
 23
-0.4159210624416284
 33
0.0
  0
SOLID
  5
1CA
330
14F
100
AcDbEntity
  8
ENGRAVE
 62
     7
100
AcDbTrace
 10
4.045626352460316
 20
-0.4159210624416284
 30
0.0
 11
4.045351861363094
 21
-0.3980939403877791
 31
0.0
 12
4.045626352460316
 22
-0.4000731098043439
 32
0.0
 13
4.045626352460316
 23
-0.4000731098043439
 33
0.0
  0
SOLID
  5
1CB
330
14F
100
AcDbEntity
  8
ENGRAVE
 62
     7
100
AcDbTrace
 10
4.045626352460316
 20
-0.4159210624416284
 30
0.0
 11
4.045626352460316
 21
-0.4000731098043439
 31
0.0
 12
4.045997216860719
 22
-0.4101424892627645
 32
0.0
 13
4.045997216860719
 23
-0.4101424892627645
 33
0.0
  0
ENDBLK
  5
1D1
330
14F
100
AcDbEntity
  8
0
100
AcDbBlockEnd
  0
ENDSEC
  0
SECTION
  2
ENTITIES
  0
SPLINE
  5
41
330
1F
100
AcDbEntity
  8
CUT
 62
     7
100
AcDbSpline
210
0.0
220
0.0
230
1.0
 70
    11
 71
     3
 72
    17
 73
    13
 74
     0
 42
0.0000000001
 43
0.0000000001
 12
1.0
 22
0.0
 32
0.0
 13
1.0
 23
0.0
 33
0.0
 40
0.0
 40
0.0
 40
0.0
 40
0.0
 40
1.0
 40
1.0
 40
1.0
 40
2.0
 40
2.0
 40
2.0
 40
3.0
 40
3.0
 40
3.0
 40
4.0
 40
4.0
 40
4.0
 40
4.0
 10
0.9608714204346143
 20
-0.4099943490894651
 30
0.0
 10
0.9603524761704799
 20
-0.4480418509930233
 30
0.0
 10
0.9907753831568773
 20
-0.4793061328721377
 30
0.0
 10
1.028822885060448
 20
-0.479825077136272
 30
0.0
 10
1.066870386963981
 20
-0.4803440214004063
 30
0.0
 10
1.098134668843095
 20
-0.4499211144139963
 30
0.0
 10
1.09865361310723
 20
-0.4118736125104507
 30
0.0
 10
1.099172557371364
 20
-0.3738261106068926
 30
0.0
 10
1.068749650384941
 20
-0.3425618287277656
 30
0.0
 10
1.030702148481421
 20
-0.3420428844636313
 30
0.0
 10
0.992654646577825
 20
-0.3415239401995223
 30
0.0
 10
0.9613903646987358
 20
-0.371946847185907
 30
0.0
 10
0.9608714204346143
 20
-0.4099943490894651
 30
0.0
  0
SPLINE
  5
42
330
1F
100
AcDbEntity
  8
CUT
 62
     7
100
AcDbSpline
210
0.0
220
0.0
230
1.0
 70
    11
 71
     3
 72
    17
 73
    13
 74
     0
 42
0.0000000001
 43
0.0000000001
 12
1.0
 22
0.0
 32
0.0
 13
1.0
 23
0.0
 33
0.0
 40
0.0
 40
0.0
 40
0.0
 40
0.0
 40
1.0
 40
1.0
 40
1.0
 40
2.0
 40
2.0
 40
2.0
 40
3.0
 40
3.0
 40
3.0
 40
4.0
 40
4.0
 40
4.0
 40
4.0
 10
4.211371421247236
 20
-0.4103604553171938
 30
0.0
 10
4.210852476983089
 20
-0.448407957220752
 30
0.0
 10
4.241275383969486
 20
-0.4796722390998664
 30
0.0
 10
4.279322885873057
 20
-0.4801911833640007
 30
0.0
 10
4.317370387776602
 20
-0.480710127628135
 30
0.0
 10
4.348634669655717
 20
-0.4502872206417249
 30
0.0
 10
4.349153613919851
 20
-0.4122397187381794
 30
0.0
 10
4.349672558183973
 20
-0.3741922168346213
 30
0.0
 10
4.31924965119755
 20
-0.3429279349554943
 30
0.0
 10
4.28120214929403
 20
-0.3424089906913599
 30
0.0
 10
4.243154647390447
 20
-0.3418900464272509
 30
0.0
 10
4.211890365511358
 20
-0.3723129534136357
 30
0.0
 10
4.211371421247236
 20
-0.4103604553171938
 30
0.0
  0
SPLINE
  5
43
330
1F
100
AcDbEntity
  8
CUT
 62
     7
100
AcDbSpline
210
0.0
220
0.0
230
1.0
 70
    11
 71
     3
 72
    17
 73
    13
 74
     0
 42
0.0000000001
 43
0.0000000001
 12
1.0
 22
0.0
 32
0.0
 13
1.0
 23
0.0
 33
0.0
 40
0.0
 40
0.0
 40
0.0
 40
0.0
 40
1.0
 40
1.0
 40
1.0
 40
2.0
 40
2.0
 40
2.0
 40
3.0
 40
3.0
 40
3.0
 40
4.0
 40
4.0
 40
4.0
 40
4.0
 10
4.293824674766293
 20
-2.065696446748992
 30
0.0
 10
4.293305730502172
 20
-2.103743948652537
 30
0.0
 10
4.323728637488557
 20
-2.135008230531652
 30
0.0
 10
4.36177613939214
 20
-2.135527174795811
 30
0.0
 10
4.399823641295685
 20
-2.136046119059882
 30
0.0
 10
4.4310879231748
 20
-2.105623212073485
 30
0.0
 10
4.431606867438922
 20
-2.067575710169977
 30
0.0
 10
4.432125811703056
 20
-2.029528208266419
 30
0.0
 10
4.401702904716621
 20
-1.998263926387267
 30
0.0
 10
4.363655402813088
 20
-1.997744982123145
 30
0.0
 10
4.325607900909542
 20
-1.997226037859024
 30
0.0
 10
4.294343619030441
 20
-2.027648944845421
 30
0.0
 10
4.293824674766293
 20
-2.065696446748992
 30
0.0
  0
SPLINE
  5
44
330
1F
100
AcDbEntity
  8
CUT
 62
     7
100
AcDbSpline
210
0.0
220
0.0
230
1.0
 70
    11
 71
     3
 72
    17
 73
    13
 74
     0
 42
0.0000000001
 43
0.0000000001
 12
1.0
 22
0.0
 32
0.0
 13
1.0
 23
0.0
 33
0.0
 40
0.0
 40
0.0
 40
0.0
 40
0.0
 40
1.0
 40
1.0
 40
1.0
 40
2.0
 40
2.0
 40
2.0
 40
3.0
 40
3.0
 40
3.0
 40
4.0
 40
4.0
 40
4.0
 40
4.0
 10
3.011367483881006
 20
-1.710112424092219
 30
0.0
 10
3.010848539616884
 20
-1.748159925995777
 30
0.0
 10
3.041271446603269
 20
-1.779424207874892
 30
0.0
 10
3.079318948506852
 20
-1.779943152139039
 30
0.0
 10
3.117366450410385
 20
-1.780462096403135
 30
0.0
 10
3.148630732289512
 20
-1.750039189416725
 30
0.0
 10
3.149149676553621
 20
-1.711991687513217
 30
0.0
 10
3.149668620817768
 20
-1.673944185609647
 30
0.0
 10
3.119245713831333
 20
-1.642679903730494
 30
0.0
 10
3.0811982119278
 20
-1.642160959466385
 30
0.0
 10
3.043150710024242
 20
-1.641642015202263
 30
0.0
 10
3.011886428145153
 20
-1.672064922188661
 30
0.0
 10
3.011367483881006
 20
-1.710112424092219
 30
0.0
  0
SPLINE
  5
45
330
1F
100
AcDbEntity
  8
CUT
 62
     7
100
AcDbSpline
210
0.0
220
0.0
230
1.0
 70
    11
 71
     3
 72
    17
 73
    13
 74
     0
 42
0.0000000001
 43
0.0000000001
 12
1.0
 22
0.0
 32
0.0
 13
1.0
 23
0.0
 33
0.0
 40
0.0
 40
0.0
 40
0.0
 40
0.0
 40
1.0
 40
1.0
 40
1.0
 40
2.0
 40
2.0
 40
2.0
 40
3.0
 40
3.0
 40
3.0
 40
4.0
 40
4.0
 40
4.0
 40
4.0
 10
0.3823942197450504
 20
-0.4374724979561506
 30
0.0
 10
0.3818752754809288
 20
-0.4755199998597214
 30
0.0
 10
0.4122981824673135
 20
-0.5067842817388357
 30
0.0
 10
0.4503456843708969
 20
-0.5073032260029827
 30
0.0
 10
0.4883931862744804
 20
-0.5078221702671171
 30
0.0
 10
0.51965746815362
 20
-0.4773992632806817
 30
0.0
 10
0.520176412417729
 20
-0.4393517613770983
 30
0.0
 10
0.5206953566818634
 20
-0.4013042594735401
 30
0.0
 10
0.4902724496954534
 20
-0.3700399775943879
 30
0.0
 10
0.4522249477918573
 20
-0.3695210333302788
 30
0.0
 10
0.4141774458883118
 20
-0.3690020890661445
 30
0.0
 10
0.3829131640091721
 20
-0.3994249960525798
 30
0.0
 10
0.3823942197450504
 20
-0.4374724979561506
 30
0.0
  0
SPLINE
  5
46
330
1F
100
AcDbEntity
  8
CUT
 62
     7
100
AcDbSpline
210
0.0
220
0.0
230
1.0
 70
    11
 71
     3
 72
    17
 73
    13
 74
     0
 42
0.0000000001
 43
0.0000000001
 12
1.0
 22
0.0
 32
0.0
 13
1.0
 23
0.0
 33
0.0
 40
0.0
 40
0.0
 40
0.0
 40
0.0
 40
1.0
 40
1.0
 40
1.0
 40
2.0
 40
2.0
 40
2.0
 40
3.0
 40
3.0
 40
3.0
 40
4.0
 40
4.0
 40
4.0
 40
4.0
 10
0.6800235896137994
 20
-1.995519848626082
 30
0.0
 10
0.679504645349665
 20
-2.033567350529653
 30
0.0
 10
0.7099275523360499
 20
-2.064831632408767
 30
0.0
 10
0.7479750542396459
 20
-2.065350576672914
 30
0.0
 10
0.786022556143204
 20
-2.065869520937011
 30
0.0
 10
0.8172868380223437
 20
-2.0354466139506
 30
0.0
 10
0.8178057822864654
 20
-1.997399112047055
 30
0.0
 10
0.8183247265505871
 20
-1.959351610143497
 30
0.0
 10
0.7879018195641644
 20
-1.928087328264332
 30
0.0
 10
0.7498543176606063
 20
-1.927568384000223
 30
0.0
 10
0.7118068157570355
 20
-1.927049439736101
 30
0.0
 10
0.6805425338779464
 20
-1.957472346722536
 30
0.0
 10
0.6800235896137994
 20
-1.995519848626082
 30
0.0
  0
SPLINE
  5
47
330
1F
100
AcDbEntity
  8
CUT
 62
     7
100
AcDbSpline
210
0.0
220
0.0
230
1.0
 70
    11
 71
     3
 72
    41
 73
    37
 74
     0
 42
0.0000000001
 43
0.0000000001
 12
1.0
 22
0.0
 32
0.0
 13
1.0
 23
0.0
 33
0.0
 40
0.0
 40
0.0
 40
0.0
 40
0.0
 40
1.0
 40
1.0
 40
1.0
 40
2.0
 40
2.0
 40
2.0
 40
3.0
 40
3.0
 40
3.0
 40
4.0
 40
4.0
 40
4.0
 40
5.0
 40
5.0
 40
5.0
 40
6.0
 40
6.0
 40
6.0
 40
7.0
 40
7.0
 40
7.0
 40
8.0
 40
8.0
 40
8.0
 40
9.0
 40
9.0
 40
9.0
 40
10.0
 40
10.0
 40
10.0
 40
11.0
 40
11.0
 40
11.0
 40
12.0
 40
12.0
 40
12.0
 40
12.0
 10
0.2435353937346463
 20
-1.990685696824281
 30
0.0
 10
0.2435353937346463
 20
-1.990685696824281
 30
0.0
 10
0.833693528750195
 20
-2.519493195503805
 30
0.0
 10
0.833693528750195
 20
-2.519493195503805
 30
0.0
 10
0.870378309287288
 20
-2.552364363220426
 30
0.0
 10
0.9179032259750607
 20
-2.570541704756301
 30
0.0
 10
0.9671605786252888
 20
-2.570541704758512
 30
0.0
 10
0.9671605786252888
 20
-2.570541704758512
 30
0.0
 10
4.09039942070342
 20
-2.570541704898738
 30
0.0
 10
4.09039942070342
 20
-2.570541704898738
 30
0.0
 10
4.135994297542728
 20
-2.570541704900784
 30
0.0
 10
4.180220524051846
 20
-2.554962588176295
 30
0.0
 10
4.215749050307648
 20
-2.526386083560081
 30
0.0
 10
4.215749050307648
 20
-2.526386083560081
 30
0.0
 10
4.725691067608484
 20
-2.116226644170689
 30
0.0
 10
4.725691067608484
 20
-2.116226644170689
 30
0.0
 10
4.772890248172744
 20
-2.078263133059497
 30
0.0
 10
4.800341438010516
 20
-2.020954460639763
 30
0.0
 10
4.800341438013245
 20
-1.960382265518344
 30
0.0
 10
4.800341438013245
 20
-1.960382265518344
 30
0.0
 10
4.800341438084589
 20
-0.3715201554480245
 30
0.0
 10
4.800341438084589
 20
-0.3715201554480245
 30
0.0
 10
4.800341438089529
 20
-0.2610632054818703
 30
0.0
 10
4.710798388059717
 20
-0.1715201554440126
 30
0.0
 10
4.600341438093563
 20
-0.1715201554390609
 30
0.0
 10
4.600341438093563
 20
-0.1715201554390609
 30
0.0
 10
0.3770024436937041
 20
-0.1715201552494439
 30
0.0
 10
0.3770024436937041
 20
-0.1715201552494439
 30
0.0
 10
0.2665454937275374
 20
-0.1715201552444796
 30
0.0
 10
0.177002443689667
 20
-0.2610632052743035
 30
0.0
 10
0.1770024436847153
 20
-0.3715201552404576
 30
0.0
 10
0.1770024436847153
 20
-0.3715201552404576
 30
0.0
 10
0.1770024436187012
 20
-1.841734206069999
 30
0.0
 10
0.1770024436187012
 20
-1.841734206069999
 30
0.0
 10
0.1770024436161495
 20
-1.898584131024803
 30
0.0
 10
0.20119598838077
 20
-1.952747737975036
 30
0.0
 10
0.2435353937346463
 20
-1.990685696824281
 30
0.0
  0
SPLINE
  5
48
330
1F
100
AcDbEntity
  8
CUT
 62
     7
100
AcDbSpline
210
0.0
220
0.0
230
1.0
 70
    11
 71
     3
 72
    17
 73
    13
 74
     0
 42
0.0000000001
 43
0.0000000001
 12
1.0
 22
0.0
 32
0.0
 13
1.0
 23
0.0
 33
0.0
 40
0.0
 40
0.0
 40
0.0
 40
0.0
 40
1.0
 40
1.0
 40
1.0
 40
2.0
 40
2.0
 40
2.0
 40
3.0
 40
3.0
 40
3.0
 40
4.0
 40
4.0
 40
4.0
 40
4.0
 10
3.878690268615375
 20
-0.4078605265372693
 30
0.0
 10
3.878171324351253
 20
-0.4459080284408274
 30
0.0
 10
3.908594231337638
 20
-0.4771723103199418
 30
0.0
 10
3.946641733241222
 20
-0.4776912545840888
 30
0.0
 10
3.984689235144755
 20
-0.4782101988481852
 30
0.0
 10
4.015953517023894
 20
-0.4477872918617751
 30
0.0
 10
4.016472461287991
 20
-0.4097397899582675
 30
0.0
 10
4.016991405552138
 20
-0.3716922880547094
 30
0.0
 10
3.986568498565703
 20
-0.3404280061755445
 30
0.0
 10
3.948520996662169
 20
-0.3399090619114354
 30
0.0
 10
3.910473494758612
 20
-0.3393901176473137
 30
0.0
 10
3.879209212879522
 20
-0.3698130246337112
 30
0.0
 10
3.878690268615375
 20
-0.4078605265372693
 30
0.0
  0
SPLINE
  5
4A
330
1F
100
AcDbEntity
  8
ENGRAVE
100
AcDbSpline
210
0.0
220
0.0
230
1.0
 70
    11
 71
     3
 72
    17
 73
    13
 74
     0
 42
0.0000000001
 43
0.0000000001
 12
1.0
 22
0.0
 32
0.0
 13
1.0
 23
0.0
 33
0.0
 40
0.0
 40
0.0
 40
0.0
 40
0.0
 40
1.0
 40
1.0
 40
1.0
 40
2.0
 40
2.0
 40
2.0
 40
3.0
 40
3.0
 40
3.0
 40
4.0
 40
4.0
 40
4.0
 40
4.0
 10
0.9313466648618739
 20
-0.4095916497849683
 30
0.0
 10
0.9306053159130998
 20
-0.4639452239329229
 30
0.0
 10
0.9740666116079713
 20
-0.5086084837602508
 30
0.0
 10
1.028420185755964
 20
-0.5093498327089997
 30
0.0
 10
1.08277375990388
 20
-0.5100911816577738
 30
0.0
 10
1.127437019731196
 20
-0.466629885962877
 30
0.0
 10
1.12817836867997
 20
-0.4122763118149477
 30
0.0
 10
1.128919717628732
 20
-0.3579227376669804
 30
0.0
 10
1.085458421933822
 20
-0.3132594778396399
 30
0.0
 10
1.031104847785918
 20
-0.3125181288908783
 30
0.0
 10
0.9767512736379002
 20
-0.3117767799421547
 30
0.0
 10
0.9320880138106101
 20
-0.355238075637001
 30
0.0
 10
0.9313466648618739
 20
-0.4095916497849683
 30
0.0
  0
INSERT
  5
4B
330
1F
100
AcDbEntity
  8
ENGRAVE
 62
     7
100
AcDbBlockReference
  2
*U1
 10
0.0
 20
0.0
 30
0.0
1001
ACAD
1002
{
1000
R14_HATCH_DATA
1000
4B
1011
1.0
1021
0.0
1031
0.0
1011
0.0
1021
1.0
1031
0.0
1011
0.0
1021
0.0
1031
1.0
1040
0.0
1010
0.0
1020
0.0
1030
1.0
1000
SOLID
1070
     1
1070
     1
1071
        1
1071
        1
1071
        1
1070
     4
1070
     3
1070
     0
1070
     1
1071
       17
1071
       13
1040
0.0
1040
0.0
1040
0.0
1040
0.0
1040
1.0
1040
1.0
1040
1.0
1040
2.0
1040
2.0
1040
2.0
1040
3.0
1040
3.0
1040
3.0
1040
4.0
1040
4.0
1040
4.0
1040
4.0
1040
0.9313466648618739
1040
-0.4095916497849683
1040
0.9306053159130998
1040
-0.4639452239329229
1040
0.9740666116079713
1040
-0.5086084837602508
1040
1.028420185755964
1040
-0.5093498327089997
1040
1.08277375990388
1040
-0.5100911816577738
1040
1.127437019731196
1040
-0.466629885962877
1040
1.12817836867997
1040
-0.4122763118149477
1040
1.128919717628732
1040
-0.3579227376669804
1040
1.085458421933822
1040
-0.3132594778396399
1040
1.031104847785918
1040
-0.3125181288908783
1040
0.9767512736379002
1040
-0.3117767799421547
1040
0.9320880138106101
1040
-0.355238075637001
1040
0.9313466648618739
1040
-0.4095916497849683
1071
        0
1070
     2
1070
     1
1071
        0
1002
}
  0
SPLINE
  5
4C
330
1F
100
AcDbEntity
  8
ENGRAVE
100
AcDbSpline
210
0.0
220
0.0
230
1.0
 70
    11
 71
     3
 72
    17
 73
    13
 74
     0
 42
0.0000000001
 43
0.0000000001
 12
1.0
 22
0.0
 32
0.0
 13
1.0
 23
0.0
 33
0.0
 40
0.0
 40
0.0
 40
0.0
 40
0.0
 40
1.0
 40
1.0
 40
1.0
 40
2.0
 40
2.0
 40
2.0
 40
3.0
 40
3.0
 40
3.0
 40
4.0
 40
4.0
 40
4.0
 40
4.0
 10
2.981842728308253
 20
-1.709709724787735
 30
0.0
 10
2.981101379359466
 20
-1.764063298935689
 30
0.0
 10
3.02456267505435
 20
-1.808726558763017
 30
0.0
 10
3.078916249202343
 20
-1.809467907711766
 30
0.0
 10
3.133269823350259
 20
-1.81020925666054
 30
0.0
 10
3.177933083177575
 20
-1.766747960965644
 30
0.0
 10
3.178674432126349
 20
-1.712394386817714
 30
0.0
 10
3.17941578107511
 20
-1.658040812669747
 30
0.0
 10
3.135954485380188
 20
-1.613377552842406
 30
0.0
 10
3.081600911232297
 20
-1.612636203893645
 30
0.0
 10
3.027247337084279
 20
-1.611894854944921
 30
0.0
 10
2.982584077256989
 20
-1.655356150639768
 30
0.0
 10
2.981842728308253
 20
-1.709709724787735
 30
0.0
  0
INSERT
  5
4D
330
1F
100
AcDbEntity
  8
ENGRAVE
 62
     7
100
AcDbBlockReference
  2
*U2
 10
0.0
 20
0.0
 30
0.0
1001
ACAD
1002
{
1000
R14_HATCH_DATA
1000
4D
1011
1.0
1021
0.0
1031
0.0
1011
0.0
1021
1.0
1031
0.0
1011
0.0
1021
0.0
1031
1.0
1040
0.0
1010
0.0
1020
0.0
1030
1.0
1000
SOLID
1070
     1
1070
     1
1071
        1
1071
        1
1071
        1
1070
     4
1070
     3
1070
     0
1070
     1
1071
       17
1071
       13
1040
0.0
1040
0.0
1040
0.0
1040
0.0
1040
1.0
1040
1.0
1040
1.0
1040
2.0
1040
2.0
1040
2.0
1040
3.0
1040
3.0
1040
3.0
1040
4.0
1040
4.0
1040
4.0
1040
4.0
1040
2.981842728308253
1040
-1.709709724787735
1040
2.981101379359466
1040
-1.764063298935689
1040
3.02456267505435
1040
-1.808726558763017
1040
3.078916249202343
1040
-1.809467907711766
1040
3.133269823350259
1040
-1.81020925666054
1040
3.177933083177575
1040
-1.766747960965644
1040
3.178674432126349
1040
-1.712394386817714
1040
3.17941578107511
1040
-1.658040812669747
1040
3.135954485380188
1040
-1.613377552842406
1040
3.081600911232297
1040
-1.612636203893645
1040
3.027247337084279
1040
-1.611894854944921
1040
2.982584077256989
1040
-1.655356150639768
1040
2.981842728308253
1040
-1.709709724787735
1071
        0
1070
     2
1070
     1
1071
        0
1002
}
  0
SPLINE
  5
4E
330
1F
100
AcDbEntity
  8
ENGRAVE
100
AcDbSpline
210
0.0
220
0.0
230
1.0
 70
    11
 71
     3
 72
    17
 73
    13
 74
     0
 42
0.0000000001
 43
0.0000000001
 12
1.0
 22
0.0
 32
0.0
 13
1.0
 23
0.0
 33
0.0
 40
0.0
 40
0.0
 40
0.0
 40
0.0
 40
1.0
 40
1.0
 40
1.0
 40
2.0
 40
2.0
 40
2.0
 40
3.0
 40
3.0
 40
3.0
 40
4.0
 40
4.0
 40
4.0
 40
4.0
 10
3.849165513042622
 20
-0.407457827232785
 30
0.0
 10
3.848424164093848
 20
-0.4618114013807397
 30
0.0
 10
3.89188545978872
 20
-0.5064746612080676
 30
0.0
 10
3.946239033936712
 20
-0.5072160101568165
 30
0.0
 10
4.000592608084629
 20
-0.5079573591055906
 30
0.0
 10
4.045255867911944
 20
-0.4644960634106938
 30
0.0
 10
4.045997216860719
 20
-0.4101424892627645
 30
0.0
 10
4.046738565809493
 20
-0.3557889151147972
 30
0.0
 10
4.00327727011457
 20
-0.3111256552874566
 30
0.0
 10
3.948923695966666
 20
-0.3103843063386951
 30
0.0
 10
3.894570121818649
 20
-0.3096429573899716
 30
0.0
 10
3.849906861991359
 20
-0.3531042530848177
 30
0.0
 10
3.849165513042622
 20
-0.407457827232785
 30
0.0
  0
INSERT
  5
4F
330
1F
100
AcDbEntity
  8
ENGRAVE
 62
     7
100
AcDbBlockReference
  2
*U3
 10
0.0
 20
0.0
 30
0.0
1001
ACAD
1002
{
1000
R14_HATCH_DATA
1000
4F
1011
1.0
1021
0.0
1031
0.0
1011
0.0
1021
1.0
1031
0.0
1011
0.0
1021
0.0
1031
1.0
1040
0.0
1010
0.0
1020
0.0
1030
1.0
1000
SOLID
1070
     1
1070
     1
1071
        1
1071
        1
1071
        1
1070
     4
1070
     3
1070
     0
1070
     1
1071
       17
1071
       13
1040
0.0
1040
0.0
1040
0.0
1040
0.0
1040
1.0
1040
1.0
1040
1.0
1040
2.0
1040
2.0
1040
2.0
1040
3.0
1040
3.0
1040
3.0
1040
4.0
1040
4.0
1040
4.0
1040
4.0
1040
3.849165513042622
1040
-0.407457827232785
1040
3.848424164093848
1040
-0.4618114013807397
1040
3.89188545978872
1040
-0.5064746612080676
1040
3.946239033936712
1040
-0.5072160101568165
1040
4.000592608084629
1040
-0.5079573591055906
1040
4.045255867911944
1040
-0.4644960634106938
1040
4.045997216860719
1040
-0.4101424892627645
1040
4.046738565809493
1040
-0.3557889151147972
1040
4.00327727011457
1040
-0.3111256552874566
1040
3.948923695966666
1040
-0.3103843063386951
1040
3.894570121818649
1040
-0.3096429573899716
1040
3.849906861991359
1040
-0.3531042530848177
1040
3.849165513042622
1040
-0.407457827232785
1071
        0
1070
     2
1070
     1
1071
        0
1002
}
  0
ENDSEC
  0
SECTION
  2
OBJECTS
  0
DICTIONARY
  5
C
330
0
100
AcDbDictionary
  3
ACAD_GROUP
350
D
  3
ACAD_LAYOUT
350
1A
  3
ACAD_MATERIAL
350
3B
  3
ACAD_MLEADERSTYLE
350
52
  3
ACAD_MLINESTYLE
350
17
  3
ACAD_PLOTSETTINGS
350
19
  3
ACAD_VISUALSTYLE
350
2A
  3
ACDBVARIABLEDICTIONARY
350
50
1001
ACAD
1000
TREAT_AS_HARD
1070
     0
  0
DICTIONARY
  5
D
102
{ACAD_REACTORS
330
C
102
}
330
C
100
AcDbDictionary
1001
ACAD
1000
TREAT_AS_HARD
1070
     0
  0
DICTIONARY
  5
1A
102
{ACAD_REACTORS
330
C
102
}
330
C
100
AcDbDictionary
1001
ACAD
1000
TREAT_AS_HARD
1070
     0
  0
DICTIONARY
  5
3B
102
{ACAD_REACTORS
330
C
102
}
330
C
100
AcDbDictionary
  3
BYBLOCK
350
3D
  3
BYLAYER
350
3C
  3
GLOBAL
350
3E
1001
ACAD
1000
TREAT_AS_HARD
1070
     0
  0
DICTIONARY
  5
52
102
{ACAD_REACTORS
330
C
102
}
330
C
100
AcDbDictionary
1001
ACAD
1000
TREAT_AS_HARD
1070
     0
  0
DICTIONARY
  5
17
102
{ACAD_REACTORS
330
C
102
}
330
C
100
AcDbDictionary
  3
STANDARD
350
18
1001
ACAD
1000
TREAT_AS_HARD
1070
     0
  0
DICTIONARY
  5
19
102
{ACAD_REACTORS
330
C
102
}
330
C
100
AcDbDictionary
1001
ACAD
1000
TREAT_AS_HARD
1070
     0
  0
DICTIONARY
  5
2A
102
{ACAD_REACTORS
330
C
102
}
330
C
100
AcDbDictionary
  3
2DWIREFRAME
350
2F
  3
3DWIREFRAME
350
30
  3
3D_HIDDEN
350
31
  3
BASIC
350
32
  3
BRIGHTEN
350
36
  3
COLORCHANGE
350
3A
  3
CONCEPTUAL
350
34
  3
DIM
350
35
  3
FACEPATTERN
350
39
  3
FLAT
350
2B
  3
FLATWITHEDGES
350
2C
  3
GOURAUD
350
2D
  3
GOURAUDWITHEDGES
350
2E
  3
LINEPATTERN
350
38
  3
REALISTIC
350
33
  3
THICKEN
350
37
1001
ACAD
1000
TREAT_AS_HARD
1070
     0
  0
DICTIONARY
  5
50
102
{ACAD_REACTORS
330
C
102
}
330
C
100
AcDbDictionary
  3
DIMASSOC
350
53
  3
HIDETEXT
350
54
1001
ACAD
1000
TREAT_AS_HARD
1070
     0
  0
MATERIAL
  5
3D
102
{ACAD_REACTORS
330
3B
102
}
102
{ACAD_XDICTIONARY
360
1D4
102
}
330
3B
100
AcDbMaterial
  1
ByBlock
  0
MATERIAL
  5
3C
102
{ACAD_REACTORS
330
3B
102
}
102
{ACAD_XDICTIONARY
360
1D2
102
}
330
3B
100
AcDbMaterial
  1
ByLayer
  0
MATERIAL
  5
3E
102
{ACAD_REACTORS
330
3B
102
}
102
{ACAD_XDICTIONARY
360
1D6
102
}
330
3B
100
AcDbMaterial
  1
Global
  0
MLINESTYLE
  5
18
102
{ACAD_REACTORS
330
17
102
}
330
17
100
AcDbMlineStyle
  2
Standard
 70
     0
  3

 62
   256
 51
90.0
 52
90.0
 71
     2
 49
0.5
 62
   256
  6
BYLAYER
 49
-0.5
 62
   256
  6
BYLAYER
  0
ACAD_PROXY_OBJECT
  5
2F
102
{ACAD_REACTORS
330
2A
102
}
330
2A
100
AcDbZombieObject
 90
      499
 91
      501
 93
      436
310
42CC9915DA5C99599C985B595049028333333333333E3BF0000000000000FB0107901411070040501600405405064090741402480A0340
1001
ACAD
1000
AcDbSavedByObjectVersion
1070
     0
  0
ACAD_PROXY_OBJECT
  5
30
102
{ACAD_REACTORS
330
2A
102
}
330
2A
100
AcDbZombieObject
 90
      499
 91
      501
 93
      436
310
42CCD915DA5C99599C985B595059028333333333333E3BF0000000000000FB0107901411070040501600405405064090741402480A0340
1001
ACAD
1000
AcDbSavedByObjectVersion
1070
     0
  0
ACAD_PROXY_OBJECT
  5
31
102
{ACAD_REACTORS
330
2A
102
}
330
2A
100
AcDbZombieObject
 90
      499
 91
      501
 93
      500
310
424CD108121A5919195B90640502408333333333333E3BF0000000000000FB01079024090700405020000000000001110200405405064090740C02480A0340
1001
ACAD
1000
AcDbSavedByObjectVersion
1070
     0
  0
ACAD_PROXY_OBJECT
  5
32
102
{ACAD_REACTORS
330
2A
102
}
330
2A
100
AcDbZombieObject
 90
      499
 91
      501
 93
      388
310
4150985CDA58D07406404333333333333E3BF0000000000000FB0107A41107004050150841D405064090741402480A0350
1001
ACAD
1000
AcDbSavedByObjectVersion
1070
     0
  0
ACAD_PROXY_OBJECT
  5
36
102
{ACAD_REACTORS
330
2A
102
}
330
2A
100
AcDbZombieObject
 90
      499
 91
      501
 93
      428
310
42109C9A59DA1D195B90C409028333333333333E3BF0000000000000FB010790141107004050150841D405064090741402480A029950
1001
ACAD
1000
AcDbSavedByObjectVersion
1070
     0
  0
ACAD_PROXY_OBJECT
  5
3A
102
{ACAD_REACTORS
330
2A
102
}
330
2A
100
AcDbZombieObject
 90
      499
 91
      501
 93
      452
310
42D0DBDB1BDC90DA185B99D95104090240C333333333333E3BF0000000000000FB0108901411070040501508421405064090741402480A0350
1001
ACAD
1000
AcDbSavedByObjectVersion
1070
     0
  0
ACAD_PROXY_OBJECT
  5
34
102
{ACAD_REACTORS
330
2A
102
}
330
2A
100
AcDbZombieObject
 90
      499
 91
      501
 93
      500
310
4290DBDB98D95C1D1D585B10940D028333333333333E3BF0000000000000FB0107902409070040501000000000000111010841D405064090740C02480A0340
1001
ACAD
1000
AcDbSavedByObjectVersion
1070
     0
  0
ACAD_PROXY_OBJECT
  5
35
102
{ACAD_REACTORS
330
2A
102
}
330
2A
100
AcDbZombieObject
 90
      499
 91
      501
 93
      412
310
40D11A5B50B409028333333333333E3BF0000000000000FB010790141107004050150841D405064090741402480A02677FFFFFD0
1001
ACAD
1000
AcDbSavedByObjectVersion
1070
     0
  0
ACAD_PROXY_OBJECT
  5
39
102
{ACAD_REACTORS
330
2A
102
}
330
2A
100
AcDbZombieObject
 90
      499
 91
      501
 93
      444
310
42D19858D95C185D1D195C9B90F409028333333333333E3BF0000000000000FB010790141107004050150841D405064090741402480A0350
1001
ACAD
1000
AcDbSavedByObjectVersion
1070
     0
  0
ACAD_PROXY_OBJECT
  5
2B
102
{ACAD_REACTORS
330
2A
102
}
330
2A
100
AcDbZombieObject
 90
      499
 91
      501
 93
      388
310
41119B185D240901404333333333333E3BF0000000000000F9010740A41107004050150841D405064090741402480A1B50
1001
ACAD
1000
AcDbSavedByObjectVersion
1070
     0
  0
ACAD_PROXY_OBJECT
  5
2C
102
{ACAD_REACTORS
330
2A
102
}
330
2A
100
AcDbZombieObject
 90
      499
 91
      501
 93
      476
310
43519B185D15DA5D1A115919D95CD0140901404333333333333E3BF0000000000000F9010740901411070040501600405405064090741402480A1B50
1001
ACAD
1000
AcDbSavedByObjectVersion
1070
     0
  0
ACAD_PROXY_OBJECT
  5
2D
102
{ACAD_REACTORS
330
2A
102
}
330
2A
100
AcDbZombieObject
 90
      499
 91
      501
 93
      412
310
41D1DBDD5C985D5910240902404333333333333E3BF0000000000000F9010740A411070040501641D405064090741402480A1B50
1001
ACAD
1000
AcDbSavedByObjectVersion
1070
     0
  0
ACAD_PROXY_OBJECT
  5
2E
102
{ACAD_REACTORS
330
2A
102
}
330
2A
100
AcDbZombieObject
 90
      499
 91
      501
 93
      500
310
4411DBDD5C985D5915DA5D1A115919D95CD0340902404333333333333E3BF0000000000000F9010740901411070040501600405405064090741402480A1B50
1001
ACAD
1000
AcDbSavedByObjectVersion
1070
     0
  0
ACAD_PROXY_OBJECT
  5
38
102
{ACAD_REACTORS
330
2A
102
}
330
2A
100
AcDbZombieObject
 90
      499
 91
      501
 93
      444
310
42D31A5B995C185D1D195C9B90E409028333333333333E3BF0000000000000FB010790141107004050750841D405064090741402483A0350
1001
ACAD
1000
AcDbSavedByObjectVersion
1070
     0
  0
ACAD_PROXY_OBJECT
  5
33
102
{ACAD_REACTORS
330
2A
102
}
330
2A
100
AcDbZombieObject
 90
      499
 91
      501
 93
      420
310
425499585B1A5CDD1A58D08409028333333333333E3BF0000000000000FB01079019070040501508421405064090741402480A1B40
1001
ACAD
1000
AcDbSavedByObjectVersion
1070
     0
  0
ACAD_PROXY_OBJECT
  5
37
102
{ACAD_REACTORS
330
2A
102
}
330
2A
100
AcDbZombieObject
 90
      499
 91
      501
 93
      412
310
41D51A1A58DAD95B90D409028333333333333E3BF0000000000000FB010790141107004050150C41D405064090741402480A0350
1001
ACAD
1000
AcDbSavedByObjectVersion
1070
     0
  0
DICTIONARYVAR
  5
53
102
{ACAD_REACTORS
330
50
102
}
330
50
100
DictionaryVariables
280
     0
  1
2
  0
DICTIONARYVAR
  5
54
102
{ACAD_REACTORS
330
50
102
}
330
50
100
DictionaryVariables
280
     0
  1
1
  0
DICTIONARY
  5
1D4
330
3D
100
AcDbDictionary
  3
ACAD_XREC_ROUNDTRIP
360
1D5
1001
ACAD
1000
TREAT_AS_HARD
1070
     1
  0
DICTIONARY
  5
1D2
330
3C
100
AcDbDictionary
  3
ACAD_XREC_ROUNDTRIP
360
1D3
1001
ACAD
1000
TREAT_AS_HARD
1070
     1
  0
DICTIONARY
  5
1D6
330
3E
100
AcDbDictionary
  3
ACAD_XREC_ROUNDTRIP
360
1D7
1001
ACAD
1000
TREAT_AS_HARD
1070
     1
  0
XRECORD
  5
1D5
102
{ACAD_REACTORS
330
1D4
102
}
330
1D4
100
AcDbXrecord
102
MATERIAL
148
0.0
149
0.0
149
0.0
 93
        0
 94
      127
282
     0
 72
     1
 77
     1
171
     1
175
     1
179
     1
273
     0
  0
XRECORD
  5
1D3
102
{ACAD_REACTORS
330
1D2
102
}
330
1D2
100
AcDbXrecord
102
MATERIAL
148
0.0
149
0.0
149
0.0
 93
        0
 94
      127
282
     0
 72
     1
 77
     1
171
     1
175
     1
179
     1
273
     0
  0
XRECORD
  5
1D7
102
{ACAD_REACTORS
330
1D6
102
}
330
1D6
100
AcDbXrecord
102
MATERIAL
148
0.0
149
0.0
149
0.0
 93
        0
 94
      127
282
     0
 72
     1
 77
     1
171
     1
175
     1
179
     1
273
     0
  0
ENDSEC
  0
EOF
